<svg id="svg-5544734748594536487" width="883" class="svg-populationPyramid" height="729.0757153320312" version="1.1" xmlns="http://www.w3.org/2000/svg"><rect class="svgBg" x="0" y="0" width="100%" height="100%" fill="#fff"></rect><g class="svgGroup" transform="translate(16.55625,16.55625)"><g class="svgTitle" style="display: block;"><text x="50%" y="0" dx="-16.55625" dy="20" text-anchor="middle" fill="#000" style="font-size: 20px; font-weight: bold;">人口金字塔</text></g><g class="mainGroup" transform="translate(0,50.052499999999995)"><g transform="translate(84.98875000000001,16.99775)"><g class="rectGroup"><rect fill="#ff6060" class="male" height="34" width="369.70106250000003" y="562" x="0"></rect><rect fill="#ff6060" class="male" height="34" width="368.3244662196159" y="527" x="1.376596280384124"></rect><rect fill="#ff6060" class="male" height="34" width="265.9016607513642" y="492" x="103.79940174863582"></rect><rect fill="#ff6060" class="male" height="34" width="214.59331988873927" y="457" x="155.10774261126076"></rect><rect fill="#ff6060" class="male" height="34" width="208.1227933810503" y="422" x="161.57826911894975"></rect><rect fill="#ff6060" class="male" height="34" width="195.37486806569345" y="387" x="174.3261944343066"></rect><rect fill="#ff6060" class="male" height="34" width="172.81336078414006" y="352" x="196.88770171585998"></rect><rect fill="#ff6060" class="male" height="34" width="150.8551904259089" y="317" x="218.84587207409115"></rect><rect fill="#ff6060" class="male" height="34" width="146.30396400680323" y="282" x="223.3970984931968"></rect><rect fill="#ff6060" class="male" height="34" width="125.6003751417334" y="247" x="244.10068735826664"></rect><rect fill="#ff6060" class="male" height="34" width="100.52895631688045" y="212" x="269.1721061831196"></rect><rect fill="#ff6060" class="male" height="34" width="82.9767923242506" y="177" x="286.72427017574944"></rect><rect fill="#ff6060" class="male" height="34" width="59.40780220758626" y="142" x="310.2932602924138"></rect><rect fill="#ff6060" class="male" height="34" width="42.11448921754305" y="107" x="327.586573282457"></rect><rect fill="#ff6060" class="male" height="34" width="22.774172318669798" y="72" x="346.92689018133024"></rect><rect fill="#ff6060" class="male" height="34" width="9.492451023138017" y="37" x="360.208611476862"></rect><rect fill="#ff6060" class="male" height="34" width="2.7417995235808803" y="2" x="366.95926297641915"></rect><rect fill="#ababab" class="female" height="34" width="348.09695959180783" y="562" x="369.70106250000003"></rect><rect fill="#ababab" class="female" height="34" width="346.9920894940118" y="527" x="369.70106250000003"></rect><rect fill="#ababab" class="female" height="34" width="249.00672978438809" y="492" x="369.70106250000003"></rect><rect fill="#ababab" class="female" height="34" width="190.53170442562543" y="457" x="369.70106250000003"></rect><rect fill="#ababab" class="female" height="34" width="181.0961437327262" y="422" x="369.70106250000003"></rect><rect fill="#ababab" class="female" height="34" width="173.16368544929492" y="387" x="369.70106250000003"></rect><rect fill="#ababab" class="female" height="34" width="150.53630515378075" y="352" x="369.70106250000003"></rect><rect fill="#ababab" class="female" height="34" width="137.47698013606407" y="317" x="369.70106250000003"></rect><rect fill="#ababab" class="female" height="34" width="132.99986085766426" y="282" x="369.70106250000003"></rect><rect fill="#ababab" class="female" height="34" width="118.16870147579903" y="247" x="369.70106250000003"></rect><rect fill="#ababab" class="female" height="34" width="100.34331418662748" y="212" x="369.70106250000003"></rect><rect fill="#ababab" class="female" height="34" width="87.36333620845437" y="177" x="369.70106250000003"></rect><rect fill="#ababab" class="female" height="34" width="64.5278570733825" y="142" x="369.70106250000003"></rect><rect fill="#ababab" class="female" height="34" width="49.73083188966052" y="107" x="369.70106250000003"></rect><rect fill="#ababab" class="female" height="34" width="31.277929286815265" y="72" x="369.70106250000003"></rect><rect fill="#ababab" class="female" height="34" width="17.26898488829636" y="37" x="369.70106250000003"></rect><rect fill="#ababab" class="female" height="34" width="6.946354235578667" y="2" x="369.70106250000003"></rect></g><g class="coverGroup"><rect x="0" y="562" width="717.7980220918079" height="34" fill="#fff" opacity="0"></rect><rect x="1.376596280384124" y="527" width="715.3165557136276" height="34" fill="#fff" opacity="0"></rect><rect x="103.79940174863582" y="492" width="514.9083905357522" height="34" fill="#fff" opacity="0"></rect><rect x="155.10774261126076" y="457" width="405.12502431436474" height="34" fill="#fff" opacity="0"></rect><rect x="161.57826911894975" y="422" width="389.2189371137765" height="34" fill="#fff" opacity="0"></rect><rect x="174.3261944343066" y="387" width="368.5385535149884" height="34" fill="#fff" opacity="0"></rect><rect x="196.88770171585998" y="352" width="323.3496659379208" height="34" fill="#fff" opacity="0"></rect><rect x="218.84587207409115" y="317" width="288.33217056197293" height="34" fill="#fff" opacity="0"></rect><rect x="223.3970984931968" y="282" width="279.3038248644675" height="34" fill="#fff" opacity="0"></rect><rect x="244.10068735826664" y="247" width="243.76907661753242" height="34" fill="#fff" opacity="0"></rect><rect x="269.1721061831196" y="212" width="200.87227050350793" height="34" fill="#fff" opacity="0"></rect><rect x="286.72427017574944" y="177" width="170.34012853270497" height="34" fill="#fff" opacity="0"></rect><rect x="310.2932602924138" y="142" width="123.93565928096876" height="34" fill="#fff" opacity="0"></rect><rect x="327.586573282457" y="107" width="91.84532110720357" height="34" fill="#fff" opacity="0"></rect><rect x="346.92689018133024" y="72" width="54.05210160548506" height="34" fill="#fff" opacity="0"></rect><rect x="360.208611476862" y="37" width="26.761435911434376" height="34" fill="#fff" opacity="0"></rect><rect x="366.95926297641915" y="2" width="9.688153759159547" height="34" fill="#fff" opacity="0"></rect></g><g class="tooltipGroup" display="none"><rect x="0" y="0" width="120" height="60" fill="rgba(255,255,255,.9)"></rect><text x="5" y="3" dy="15">1</text><text x="5" y="21" dy="15">2</text><text x="5" y="39" dy="15">3</text></g><g class="axis" transform="translate(0,599.1706875)"><g class="tick" transform="translate(369.70106250000003,0)" style="opacity: 1;"><line y2="6" x2="0"></line><text dy=".71em" y="9" x="0" style="text-anchor: middle;">0</text></g><g class="tick" transform="translate(294.8453648173411,0)" style="opacity: 1;"><line y2="6" x2="0"></line><text dy=".71em" y="9" x="0" style="text-anchor: middle;">10,000</text></g><g class="tick" transform="translate(219.98966713468215,0)" style="opacity: 1;"><line y2="6" x2="0"></line><text dy=".71em" y="9" x="0" style="text-anchor: middle;">20,000</text></g><g class="tick" transform="translate(145.13396945202328,0)" style="opacity: 1;"><line y2="6" x2="0"></line><text dy=".71em" y="9" x="0" style="text-anchor: middle;">30,000</text></g><g class="tick" transform="translate(70.27827176936434,0)" style="opacity: 1;"><line y2="6" x2="0"></line><text dy=".71em" y="9" x="0" style="text-anchor: middle;">40,000</text></g><path class="domain" d="M0,6V0H369.70106250000003V6"></path></g><g class="axis" transform="translate(0,599.1706875)"><g class="tick" transform="translate(369.70106250000003,0)" style="opacity: 1;"><line y2="6" x2="0"></line><text dy=".71em" y="9" x="0" style="text-anchor: middle;">0</text></g><g class="tick" transform="translate(444.55676018265893,0)" style="opacity: 1;"><line y2="6" x2="0"></line><text dy=".71em" y="9" x="0" style="text-anchor: middle;">10,000</text></g><g class="tick" transform="translate(519.4124578653178,0)" style="opacity: 1;"><line y2="6" x2="0"></line><text dy=".71em" y="9" x="0" style="text-anchor: middle;">20,000</text></g><g class="tick" transform="translate(594.2681555479768,0)" style="opacity: 1;"><line y2="6" x2="0"></line><text dy=".71em" y="9" x="0" style="text-anchor: middle;">30,000</text></g><g class="tick" transform="translate(669.1238532306357,0)" style="opacity: 1;"><line y2="6" x2="0"></line><text dy=".71em" y="9" x="0" style="text-anchor: middle;">40,000</text></g><path class="domain" d="M369.70106250000003,6V0H739.4021250000001V6"></path></g><g class="axis" transform="translate(0,0)"><g class="tick" transform="translate(0,579.5)" style="opacity: 1;"><line x2="-6" y2="0"></line><text dy=".32em" x="-9" y="0" style="text-anchor: end;">0-4</text></g><g class="tick" transform="translate(0,544.5)" style="opacity: 1;"><line x2="-6" y2="0"></line><text dy=".32em" x="-9" y="0" style="text-anchor: end;">5-9</text></g><g class="tick" transform="translate(0,509.5)" style="opacity: 1;"><line x2="-6" y2="0"></line><text dy=".32em" x="-9" y="0" style="text-anchor: end;">10-14</text></g><g class="tick" transform="translate(0,474.5)" style="opacity: 1;"><line x2="-6" y2="0"></line><text dy=".32em" x="-9" y="0" style="text-anchor: end;">15-19</text></g><g class="tick" transform="translate(0,439.5)" style="opacity: 1;"><line x2="-6" y2="0"></line><text dy=".32em" x="-9" y="0" style="text-anchor: end;">20-24</text></g><g class="tick" transform="translate(0,404.5)" style="opacity: 1;"><line x2="-6" y2="0"></line><text dy=".32em" x="-9" y="0" style="text-anchor: end;">25-29</text></g><g class="tick" transform="translate(0,369.5)" style="opacity: 1;"><line x2="-6" y2="0"></line><text dy=".32em" x="-9" y="0" style="text-anchor: end;">30-34</text></g><g class="tick" transform="translate(0,334.5)" style="opacity: 1;"><line x2="-6" y2="0"></line><text dy=".32em" x="-9" y="0" style="text-anchor: end;">35-39</text></g><g class="tick" transform="translate(0,299.5)" style="opacity: 1;"><line x2="-6" y2="0"></line><text dy=".32em" x="-9" y="0" style="text-anchor: end;">40-44</text></g><g class="tick" transform="translate(0,264.5)" style="opacity: 1;"><line x2="-6" y2="0"></line><text dy=".32em" x="-9" y="0" style="text-anchor: end;">45-49</text></g><g class="tick" transform="translate(0,229.5)" style="opacity: 1;"><line x2="-6" y2="0"></line><text dy=".32em" x="-9" y="0" style="text-anchor: end;">50-54</text></g><g class="tick" transform="translate(0,194.5)" style="opacity: 1;"><line x2="-6" y2="0"></line><text dy=".32em" x="-9" y="0" style="text-anchor: end;">55-59</text></g><g class="tick" transform="translate(0,159.5)" style="opacity: 1;"><line x2="-6" y2="0"></line><text dy=".32em" x="-9" y="0" style="text-anchor: end;">60-64</text></g><g class="tick" transform="translate(0,124.5)" style="opacity: 1;"><line x2="-6" y2="0"></line><text dy=".32em" x="-9" y="0" style="text-anchor: end;">65-69</text></g><g class="tick" transform="translate(0,89.5)" style="opacity: 1;"><line x2="-6" y2="0"></line><text dy=".32em" x="-9" y="0" style="text-anchor: end;">70-74</text></g><g class="tick" transform="translate(0,54.5)" style="opacity: 1;"><line x2="-6" y2="0"></line><text dy=".32em" x="-9" y="0" style="text-anchor: end;">75-79</text></g><g class="tick" transform="translate(0,19.5)" style="opacity: 1;"><line x2="-6" y2="0"></line><text dy=".32em" x="-9" y="0" style="text-anchor: end;">80+</text></g><path class="domain" d="M-6,0H0V599.1706875H-6"></path></g><g><rect x="16.99775" y="1" width="50.99325" height="17" fill="#ff6060"></rect><text x="72.991" y="14.6" text-anchor="start" style="font-size: 17px; font-weight: bold;">male</text></g><g transform="translate(722.4043750000001,0)"><rect x="-50.99325" y="1" width="50.99325" height="17" fill="#ababab"></rect><text x="-55.99325" y="14.6" text-anchor="end" style="font-size: 17px; font-weight: bold;">female</text></g></g></g></g></svg>