<svg id="svg-892973281855086592" width="883" class="svg-populationPyramid" height="727.7475903320312" version="1.1" xmlns="http://www.w3.org/2000/svg"><rect class="svgBg" x="0" y="0" width="100%" height="100%" fill="#fff"></rect><g class="svgGroup" transform="translate(16.55625,16.55625)"><g class="svgTitle" style="display: block;"><text x="50%" y="0" dx="-16.55625" dy="20" text-anchor="middle" fill="#000" style="font-size: 20px; font-weight: bold;">人口金字塔</text></g><g class="mainGroup" transform="translate(0,49.489999999999995)"><g transform="translate(84.98875000000001,16.99775)"><g class="rectGroup"><rect fill="#ff6060" class="male" height="27" width="264.5903175011955" y="566" x="105.1107449988045"></rect><rect fill="#ff6060" class="male" height="27" width="263.6051051665737" y="538" x="106.09595733342634"></rect><rect fill="#ff6060" class="male" height="27" width="190.30241451442578" y="510" x="179.39864798557426"></rect><rect fill="#ff6060" class="male" height="27" width="153.58169181079143" y="482" x="216.1193706892086"></rect><rect fill="#ff6060" class="male" height="27" width="148.95081882521723" y="454" x="220.7502436747828"></rect><rect fill="#ff6060" class="male" height="27" width="139.8272918765442" y="426" x="229.87377062345584"></rect><rect fill="#ff6060" class="male" height="27" width="123.6803099485933" y="398" x="246.02075255140673"></rect><rect fill="#ff6060" class="male" height="27" width="107.96512853271696" y="370" x="261.7359339672831"></rect><rect fill="#ff6060" class="male" height="27" width="104.7078740495736" y="342" x="264.99318845042643"></rect><rect fill="#ff6060" class="male" height="27" width="89.89058054714275" y="314" x="279.8104819528573"></rect><rect fill="#ff6060" class="male" height="27" width="71.94728705965571" y="286" x="297.7537754403443"></rect><rect fill="#ff6060" class="male" height="27" width="59.38542799374352" y="258" x="310.3156345062565"></rect><rect fill="#ff6060" class="male" height="27" width="42.51740349854549" y="230" x="327.18365900145454"></rect><rect fill="#ff6060" class="male" height="27" width="30.14080078136209" y="202" x="339.56026171863795"></rect><rect fill="#ff6060" class="male" height="27" width="16.29918357246754" y="174" x="353.4018789275325"></rect><rect fill="#ff6060" class="male" height="27" width="6.7936256744640104" y="146" x="362.907436825536"></rect><rect fill="#ababab" class="female" height="27" width="249.12853762652435" y="566" x="369.70106250000003"></rect><rect fill="#ababab" class="female" height="27" width="248.33779624212968" y="538" x="369.70106250000003"></rect><rect fill="#ababab" class="female" height="27" width="178.21092871104645" y="510" x="369.70106250000003"></rect><rect fill="#ababab" class="female" height="27" width="136.36110166175183" y="482" x="369.70106250000003"></rect><rect fill="#ababab" class="female" height="27" width="129.6081916683271" y="454" x="369.70106250000003"></rect><rect fill="#ababab" class="female" height="27" width="123.93103282657205" y="426" x="369.70106250000003"></rect><rect fill="#ababab" class="female" height="27" width="107.73690642583881" y="398" x="369.70106250000003"></rect><rect fill="#ababab" class="female" height="27" width="98.39051469674018" y="370" x="369.70106250000003"></rect><rect fill="#ababab" class="female" height="27" width="95.18629774547702" y="342" x="369.70106250000003"></rect><rect fill="#ababab" class="female" height="27" width="84.57182684506256" y="314" x="369.70106250000003"></rect><rect fill="#ababab" class="female" height="27" width="71.81442536363272" y="286" x="369.70106250000003"></rect><rect fill="#ababab" class="female" height="27" width="62.52482129493103" y="258" x="369.70106250000003"></rect><rect fill="#ababab" class="female" height="27" width="46.181761218817314" y="230" x="369.70106250000003"></rect><rect fill="#ababab" class="female" height="27" width="35.59171972702643" y="202" x="369.70106250000003"></rect><rect fill="#ababab" class="female" height="27" width="22.385213569080236" y="174" x="369.70106250000003"></rect><rect fill="#ababab" class="female" height="27" width="12.35919140621263" y="146" x="369.70106250000003"></rect></g><g class="coverGroup"><rect x="105.1107449988045" y="566" width="513.7188551277198" height="27" fill="#fff" opacity="0"></rect><rect x="106.09595733342634" y="538" width="511.9429014087034" height="27" fill="#fff" opacity="0"></rect><rect x="179.39864798557426" y="510" width="368.5133432254722" height="27" fill="#fff" opacity="0"></rect><rect x="216.1193706892086" y="482" width="289.94279347254326" height="27" fill="#fff" opacity="0"></rect><rect x="220.7502436747828" y="454" width="278.5590104935443" height="27" fill="#fff" opacity="0"></rect><rect x="229.87377062345584" y="426" width="263.7583247031163" height="27" fill="#fff" opacity="0"></rect><rect x="246.02075255140673" y="398" width="231.41721637443212" height="27" fill="#fff" opacity="0"></rect><rect x="261.7359339672831" y="370" width="206.35564322945714" height="27" fill="#fff" opacity="0"></rect><rect x="264.99318845042643" y="342" width="199.89417179505062" height="27" fill="#fff" opacity="0"></rect><rect x="279.8104819528573" y="314" width="174.4624073922053" height="27" fill="#fff" opacity="0"></rect><rect x="297.7537754403443" y="286" width="143.76171242328843" height="27" fill="#fff" opacity="0"></rect><rect x="310.3156345062565" y="258" width="121.91024928867455" height="27" fill="#fff" opacity="0"></rect><rect x="327.18365900145454" y="230" width="88.6991647173628" height="27" fill="#fff" opacity="0"></rect><rect x="339.56026171863795" y="202" width="65.73252050838852" height="27" fill="#fff" opacity="0"></rect><rect x="353.4018789275325" y="174" width="38.68439714154778" height="27" fill="#fff" opacity="0"></rect><rect x="362.907436825536" y="146" width="19.15281708067664" height="27" fill="#fff" opacity="0"></rect></g><g class="tooltipGroup" display="none" transform="translate(144.45501708984375,546.9559936523438)"><rect x="0" y="0" width="122" height="60" fill="rgba(255,255,255,.9)"></rect><text x="5" y="3" dy="15" style="font-weight: bold;">0</text><text x="5" y="21" dy="15" fill="#ff6060">male: 39673.7</text><text x="5" y="39" dy="15" fill="#ababab">female: 36834.2</text></g><g class="axis" transform="translate(0,599.1706875)"><g class="tick" transform="translate(369.70106250000003,0)" style="opacity: 1;"><line y2="6" x2="0"></line><text dy=".71em" y="9" x="0" style="text-anchor: middle;">0</text></g><g class="tick" transform="translate(262.5545334492309,0)" style="opacity: 1;"><line y2="6" x2="0"></line><text dy=".71em" y="9" x="0" style="text-anchor: middle;">20,000</text></g><g class="tick" transform="translate(155.40800439846183,0)" style="opacity: 1;"><line y2="6" x2="0"></line><text dy=".71em" y="9" x="0" style="text-anchor: middle;">40,000</text></g><g class="tick" transform="translate(48.26147534769268,0)" style="opacity: 1;"><line y2="6" x2="0"></line><text dy=".71em" y="9" x="0" style="text-anchor: middle;">60,000</text></g><path class="domain" d="M0,6V0H369.70106250000003V6"></path></g><g class="axis" transform="translate(0,599.1706875)"><g class="tick" transform="translate(369.70106250000003,0)" style="opacity: 1;"><line y2="6" x2="0"></line><text dy=".71em" y="9" x="0" style="text-anchor: middle;">0</text></g><g class="tick" transform="translate(476.84759155076915,0)" style="opacity: 1;"><line y2="6" x2="0"></line><text dy=".71em" y="9" x="0" style="text-anchor: middle;">20,000</text></g><g class="tick" transform="translate(583.9941206015383,0)" style="opacity: 1;"><line y2="6" x2="0"></line><text dy=".71em" y="9" x="0" style="text-anchor: middle;">40,000</text></g><g class="tick" transform="translate(691.1406496523074,0)" style="opacity: 1;"><line y2="6" x2="0"></line><text dy=".71em" y="9" x="0" style="text-anchor: middle;">60,000</text></g><path class="domain" d="M369.70106250000003,6V0H739.4021250000001V6"></path></g><g class="axis" transform="translate(0,0)"><g class="tick" transform="translate(0,580)" style="opacity: 1;"><line x2="-6" y2="0"></line><text dy=".32em" x="-9" y="0" style="text-anchor: end;">0</text></g><g class="tick" transform="translate(0,552)" style="opacity: 1;"><line x2="-6" y2="0"></line><text dy=".32em" x="-9" y="0" style="text-anchor: end;">5</text></g><g class="tick" transform="translate(0,524)" style="opacity: 1;"><line x2="-6" y2="0"></line><text dy=".32em" x="-9" y="0" style="text-anchor: end;">10</text></g><g class="tick" transform="translate(0,496)" style="opacity: 1;"><line x2="-6" y2="0"></line><text dy=".32em" x="-9" y="0" style="text-anchor: end;">15</text></g><g class="tick" transform="translate(0,468)" style="opacity: 1;"><line x2="-6" y2="0"></line><text dy=".32em" x="-9" y="0" style="text-anchor: end;">20</text></g><g class="tick" transform="translate(0,440)" style="opacity: 1;"><line x2="-6" y2="0"></line><text dy=".32em" x="-9" y="0" style="text-anchor: end;">25</text></g><g class="tick" transform="translate(0,412)" style="opacity: 1;"><line x2="-6" y2="0"></line><text dy=".32em" x="-9" y="0" style="text-anchor: end;">30</text></g><g class="tick" transform="translate(0,384)" style="opacity: 1;"><line x2="-6" y2="0"></line><text dy=".32em" x="-9" y="0" style="text-anchor: end;">35</text></g><g class="tick" transform="translate(0,356)" style="opacity: 1;"><line x2="-6" y2="0"></line><text dy=".32em" x="-9" y="0" style="text-anchor: end;">40</text></g><g class="tick" transform="translate(0,328)" style="opacity: 1;"><line x2="-6" y2="0"></line><text dy=".32em" x="-9" y="0" style="text-anchor: end;">45</text></g><g class="tick" transform="translate(0,300)" style="opacity: 1;"><line x2="-6" y2="0"></line><text dy=".32em" x="-9" y="0" style="text-anchor: end;">50</text></g><g class="tick" transform="translate(0,272)" style="opacity: 1;"><line x2="-6" y2="0"></line><text dy=".32em" x="-9" y="0" style="text-anchor: end;">55</text></g><g class="tick" transform="translate(0,244)" style="opacity: 1;"><line x2="-6" y2="0"></line><text dy=".32em" x="-9" y="0" style="text-anchor: end;">60</text></g><g class="tick" transform="translate(0,216)" style="opacity: 1;"><line x2="-6" y2="0"></line><text dy=".32em" x="-9" y="0" style="text-anchor: end;">65</text></g><g class="tick" transform="translate(0,188)" style="opacity: 1;"><line x2="-6" y2="0"></line><text dy=".32em" x="-9" y="0" style="text-anchor: end;">70</text></g><g class="tick" transform="translate(0,160)" style="opacity: 1;"><line x2="-6" y2="0"></line><text dy=".32em" x="-9" y="0" style="text-anchor: end;">75</text></g><g class="tick" transform="translate(0,132)" style="opacity: 1;"><line x2="-6" y2="0"></line><text dy=".32em" x="-9" y="0" style="text-anchor: end;">80</text></g><g class="tick" transform="translate(0,104)" style="opacity: 1;"><line x2="-6" y2="0"></line><text dy=".32em" x="-9" y="0" style="text-anchor: end;">85</text></g><g class="tick" transform="translate(0,76)" style="opacity: 1;"><line x2="-6" y2="0"></line><text dy=".32em" x="-9" y="0" style="text-anchor: end;">90</text></g><g class="tick" transform="translate(0,48)" style="opacity: 1;"><line x2="-6" y2="0"></line><text dy=".32em" x="-9" y="0" style="text-anchor: end;">95</text></g><g class="tick" transform="translate(0,20)" style="opacity: 1;"><line x2="-6" y2="0"></line><text dy=".32em" x="-9" y="0" style="text-anchor: end;">100</text></g><path class="domain" d="M-6,0H0V599.1706875H-6"></path></g><g><rect x="16.99775" y="1" width="50.99325" height="17" fill="#ff6060"></rect><text x="72.991" y="14.6" text-anchor="start" style="font-size: 17px; font-weight: bold;">male</text></g><g transform="translate(722.4043750000001,0)"><rect x="-50.99325" y="1" width="50.99325" height="17" fill="#ababab"></rect><text x="-55.99325" y="14.6" text-anchor="end" style="font-size: 17px; font-weight: bold;">female</text></g></g></g></g></svg>