<svg id="svg-5544734748594536487" width="883" class="svg-populationPyramid" height="729.0757153320312" version="1.1" xmlns="http://www.w3.org/2000/svg"><rect class="svgBg" x="0" y="0" width="100%" height="100%" fill="#fff"></rect><g class="svgGroup" transform="translate(16.55625,16.55625)"><g class="svgTitle" style="display: block;"><text x="50%" y="0" dx="-16.55625" dy="20" text-anchor="middle" fill="#000" style="font-size: 20px; font-weight: bold;"></text></g><g class="mainGroup" transform="translate(0,50.052499999999995)"><g transform="translate(84.98875000000001,16.99775)"><g class="rectGroup"><rect fill="#ff6060" class="male" height="34" width="369.70106250000003" y="562" x="0"></rect><rect fill="#ff6060" class="male" height="34" width="304.15513018739205" y="527" x="65.54593231260802"></rect><rect fill="#ff6060" class="male" height="34" width="243.59346290003896" y="492" x="126.10759959996108"></rect><rect fill="#ff6060" class="male" height="34" width="253.52976015236862" y="457" x="116.17130234763141"></rect><rect fill="#ff6060" class="male" height="34" width="183.17469435128447" y="422" x="186.52636814871556"></rect><rect fill="#ff6060" class="male" height="34" width="146.87411704081617" y="387" x="222.82694545918386"></rect><rect fill="#ff6060" class="male" height="34" width="141.77918607514283" y="352" x="227.9218764248572"></rect><rect fill="#ff6060" class="male" height="34" width="132.08463480916413" y="317" x="237.6164276908359"></rect><rect fill="#ff6060" class="male" height="34" width="115.04584047784167" y="282" x="254.65522202215837"></rect><rect fill="#ff6060" class="male" height="34" width="97.80559115789333" y="247" x="271.8954713421067"></rect><rect fill="#ff6060" class="male" height="34" width="91.07377125797206" y="212" x="278.627291242028"></rect><rect fill="#ff6060" class="male" height="34" width="73.06960462115455" y="177" x="296.6314578788455"></rect><rect fill="#ff6060" class="male" height="34" width="51.69189960547379" y="142" x="318.00916289452624"></rect><rect fill="#ff6060" class="male" height="34" width="35.69057160490922" y="107" x="334.0104908950908"></rect><rect fill="#ff6060" class="male" height="34" width="20.51263043385626" y="72" x="349.1884320661438"></rect><rect fill="#ff6060" class="male" height="34" width="10.253521707752498" y="37" x="359.44754079224754"></rect><rect fill="#ff6060" class="male" height="34" width="4.119394584485519" y="2" x="365.5816679155145"></rect><rect fill="#ababab" class="female" height="34" width="353.32411495797635" y="562" x="369.70106250000003"></rect><rect fill="#ababab" class="female" height="34" width="287.4982945145042" y="527" x="369.70106250000003"></rect><rect fill="#ababab" class="female" height="34" width="229.9246076184496" y="492" x="369.70106250000003"></rect><rect fill="#ababab" class="female" height="34" width="239.93450309329057" y="457" x="369.70106250000003"></rect><rect fill="#ababab" class="female" height="34" width="172.64155311931927" y="422" x="369.70106250000003"></rect><rect fill="#ababab" class="female" height="34" width="131.12194857018414" y="387" x="369.70106250000003"></rect><rect fill="#ababab" class="female" height="34" width="123.5837715024565" y="352" x="369.70106250000003"></rect><rect fill="#ababab" class="female" height="34" width="116.81219781811308" y="317" x="369.70106250000003"></rect><rect fill="#ababab" class="female" height="34" width="100.13763410622613" y="282" x="369.70106250000003"></rect><rect fill="#ababab" class="female" height="34" width="89.8478505005209" y="247" x="369.70106250000003"></rect><rect fill="#ababab" class="female" height="34" width="85.00111208083456" y="212" x="369.70106250000003"></rect><rect fill="#ababab" class="female" height="34" width="72.93154080228294" y="177" x="369.70106250000003"></rect><rect fill="#ababab" class="female" height="34" width="57.8938660246439" y="142" x="369.70106250000003"></rect><rect fill="#ababab" class="female" height="34" width="44.62598675241543" y="107" x="369.70106250000003"></rect><rect fill="#ababab" class="female" height="34" width="27.397824731784624" y="72" x="369.70106250000003"></rect><rect fill="#ababab" class="female" height="34" width="15.664548980912457" y="37" x="369.70106250000003"></rect><rect fill="#ababab" class="female" height="34" width="8.37687447637478" y="2" x="369.70106250000003"></rect></g><g class="coverGroup"><rect x="0" y="562" width="723.0251774579764" height="34" fill="#fff" opacity="0"></rect><rect x="65.54593231260802" y="527" width="591.6534247018963" height="34" fill="#fff" opacity="0"></rect><rect x="126.10759959996108" y="492" width="473.51807051848857" height="34" fill="#fff" opacity="0"></rect><rect x="116.17130234763141" y="457" width="493.4642632456592" height="34" fill="#fff" opacity="0"></rect><rect x="186.52636814871556" y="422" width="355.81624747060374" height="34" fill="#fff" opacity="0"></rect><rect x="222.82694545918386" y="387" width="277.9960656110003" height="34" fill="#fff" opacity="0"></rect><rect x="227.9218764248572" y="352" width="265.36295757759933" height="34" fill="#fff" opacity="0"></rect><rect x="237.6164276908359" y="317" width="248.8968326272772" height="34" fill="#fff" opacity="0"></rect><rect x="254.65522202215837" y="282" width="215.1834745840678" height="34" fill="#fff" opacity="0"></rect><rect x="271.8954713421067" y="247" width="187.65344165841424" height="34" fill="#fff" opacity="0"></rect><rect x="278.627291242028" y="212" width="176.07488333880661" height="34" fill="#fff" opacity="0"></rect><rect x="296.6314578788455" y="177" width="146.0011454234375" height="34" fill="#fff" opacity="0"></rect><rect x="318.00916289452624" y="142" width="109.58576563011769" height="34" fill="#fff" opacity="0"></rect><rect x="334.0104908950908" y="107" width="80.31655835732465" height="34" fill="#fff" opacity="0"></rect><rect x="349.1884320661438" y="72" width="47.91045516564088" height="34" fill="#fff" opacity="0"></rect><rect x="359.44754079224754" y="37" width="25.918070688664955" height="34" fill="#fff" opacity="0"></rect><rect x="365.5816679155145" y="2" width="12.4962690608603" height="34" fill="#fff" opacity="0"></rect></g><g class="tooltipGroup" display="none" opacity="1" transform="translate(278.45501708984375,97.39349365234375)"><rect x="0" y="0" width="122" height="60" fill="rgba(255,255,255,.9)"></rect><text x="5" y="3" dy="15" style="font-weight: bold;">60-64</text><text x="5" y="21" dy="15" fill="#ff6060">male: 9622.23</text><text x="5" y="39" dy="15" fill="#ababab">female: 10776.7</text></g><g class="axis" transform="translate(0,599.1706875)"><g class="tick" transform="translate(369.70106250000003,0)" style="opacity: 1;"><line y2="6" x2="0"></line><text dy=".71em" y="9" x="0" style="text-anchor: middle;">0</text></g><g class="tick" transform="translate(262.25840189954926,0)" style="opacity: 1;"><line y2="6" x2="0"></line><text dy=".71em" y="9" x="0" style="text-anchor: middle;">20,000</text></g><g class="tick" transform="translate(154.81574129909853,0)" style="opacity: 1;"><line y2="6" x2="0"></line><text dy=".71em" y="9" x="0" style="text-anchor: middle;">40,000</text></g><g class="tick" transform="translate(47.37308069864776,0)" style="opacity: 1;"><line y2="6" x2="0"></line><text dy=".71em" y="9" x="0" style="text-anchor: middle;">60,000</text></g><path class="domain" d="M0,6V0H369.70106250000003V6"></path></g><g class="axis" transform="translate(0,599.1706875)"><g class="tick" transform="translate(369.70106250000003,0)" style="opacity: 1;"><line y2="6" x2="0"></line><text dy=".71em" y="9" x="0" style="text-anchor: middle;">0</text></g><g class="tick" transform="translate(477.14372310045076,0)" style="opacity: 1;"><line y2="6" x2="0"></line><text dy=".71em" y="9" x="0" style="text-anchor: middle;">20,000</text></g><g class="tick" transform="translate(584.5863837009015,0)" style="opacity: 1;"><line y2="6" x2="0"></line><text dy=".71em" y="9" x="0" style="text-anchor: middle;">40,000</text></g><g class="tick" transform="translate(692.0290443013523,0)" style="opacity: 1;"><line y2="6" x2="0"></line><text dy=".71em" y="9" x="0" style="text-anchor: middle;">60,000</text></g><path class="domain" d="M369.70106250000003,6V0H739.4021250000001V6"></path></g><g class="axis" transform="translate(0,0)"><g class="tick" transform="translate(0,579.5)" style="opacity: 1;"><line x2="-6" y2="0"></line><text dy=".32em" x="-9" y="0" style="text-anchor: end;">0-4</text></g><g class="tick" transform="translate(0,544.5)" style="opacity: 1;"><line x2="-6" y2="0"></line><text dy=".32em" x="-9" y="0" style="text-anchor: end;">5-9</text></g><g class="tick" transform="translate(0,509.5)" style="opacity: 1;"><line x2="-6" y2="0"></line><text dy=".32em" x="-9" y="0" style="text-anchor: end;">10-14</text></g><g class="tick" transform="translate(0,474.5)" style="opacity: 1;"><line x2="-6" y2="0"></line><text dy=".32em" x="-9" y="0" style="text-anchor: end;">15-19</text></g><g class="tick" transform="translate(0,439.5)" style="opacity: 1;"><line x2="-6" y2="0"></line><text dy=".32em" x="-9" y="0" style="text-anchor: end;">20-24</text></g><g class="tick" transform="translate(0,404.5)" style="opacity: 1;"><line x2="-6" y2="0"></line><text dy=".32em" x="-9" y="0" style="text-anchor: end;">25-29</text></g><g class="tick" transform="translate(0,369.5)" style="opacity: 1;"><line x2="-6" y2="0"></line><text dy=".32em" x="-9" y="0" style="text-anchor: end;">30-34</text></g><g class="tick" transform="translate(0,334.5)" style="opacity: 1;"><line x2="-6" y2="0"></line><text dy=".32em" x="-9" y="0" style="text-anchor: end;">35-39</text></g><g class="tick" transform="translate(0,299.5)" style="opacity: 1;"><line x2="-6" y2="0"></line><text dy=".32em" x="-9" y="0" style="text-anchor: end;">40-44</text></g><g class="tick" transform="translate(0,264.5)" style="opacity: 1;"><line x2="-6" y2="0"></line><text dy=".32em" x="-9" y="0" style="text-anchor: end;">45-49</text></g><g class="tick" transform="translate(0,229.5)" style="opacity: 1;"><line x2="-6" y2="0"></line><text dy=".32em" x="-9" y="0" style="text-anchor: end;">50-54</text></g><g class="tick" transform="translate(0,194.5)" style="opacity: 1;"><line x2="-6" y2="0"></line><text dy=".32em" x="-9" y="0" style="text-anchor: end;">55-59</text></g><g class="tick" transform="translate(0,159.5)" style="opacity: 1;"><line x2="-6" y2="0"></line><text dy=".32em" x="-9" y="0" style="text-anchor: end;">60-64</text></g><g class="tick" transform="translate(0,124.5)" style="opacity: 1;"><line x2="-6" y2="0"></line><text dy=".32em" x="-9" y="0" style="text-anchor: end;">65-69</text></g><g class="tick" transform="translate(0,89.5)" style="opacity: 1;"><line x2="-6" y2="0"></line><text dy=".32em" x="-9" y="0" style="text-anchor: end;">70-74</text></g><g class="tick" transform="translate(0,54.5)" style="opacity: 1;"><line x2="-6" y2="0"></line><text dy=".32em" x="-9" y="0" style="text-anchor: end;">75-79</text></g><g class="tick" transform="translate(0,19.5)" style="opacity: 1;"><line x2="-6" y2="0"></line><text dy=".32em" x="-9" y="0" style="text-anchor: end;">80+</text></g><path class="domain" d="M-6,0H0V599.1706875H-6"></path></g><g><rect x="16.99775" y="1" width="50.99325" height="17" fill="#ff6060"></rect><text x="72.991" y="14.6" text-anchor="start" style="font-size: 17px; font-weight: bold;">male</text></g><g transform="translate(722.4043750000001,0)"><rect x="-50.99325" y="1" width="50.99325" height="17" fill="#ababab"></rect><text x="-55.99325" y="14.6" text-anchor="end" style="font-size: 17px; font-weight: bold;">female</text></g></g></g></g></svg>