<svg id="svg-892973281855086592" width="883" class="svg-populationPyramid" height="727.7475903320312" version="1.1" xmlns="http://www.w3.org/2000/svg"><rect class="svgBg" x="0" y="0" width="100%" height="100%" fill="#fff"></rect><g class="svgGroup" transform="translate(16.55625,16.55625)"><g class="svgTitle" style="display: block;"><text x="50%" y="0" dx="-16.55625" dy="20" text-anchor="middle" fill="#000" style="font-size: 20px; font-weight: bold;">人口金字塔</text></g><g class="mainGroup" transform="translate(0,49.489999999999995)"><g transform="translate(84.98875000000001,16.99775)"><g class="rectGroup"><rect fill="#ff6060" class="male" height="27" width="368.6820990087272" y="566" x="1.0189634912728125"></rect><rect fill="#ff6060" class="male" height="27" width="303.31682322866027" y="538" x="66.38423927133978"></rect><rect fill="#ff6060" class="male" height="27" width="242.92207493125852" y="510" x="126.77898756874151"></rect><rect fill="#ff6060" class="male" height="27" width="252.8309859378736" y="482" x="116.87007656212641"></rect><rect fill="#ff6060" class="male" height="27" width="182.6698315174942" y="454" x="187.03123098250583"></rect><rect fill="#ff6060" class="male" height="27" width="146.4693052124014" y="426" x="223.23175728759864"></rect><rect fill="#ff6060" class="male" height="27" width="141.38841680481391" y="398" x="228.31264569518612"></rect><rect fill="#ff6060" class="male" height="27" width="131.72058548856302" y="370" x="237.98047701143702"></rect><rect fill="#ff6060" class="male" height="27" width="114.72875317904678" y="342" x="254.97230932095326"></rect><rect fill="#ff6060" class="male" height="27" width="97.53602112756039" y="314" x="272.16504137243965"></rect><rect fill="#ff6060" class="male" height="27" width="90.82275534988446" y="286" x="278.8783071501156"></rect><rect fill="#ff6060" class="male" height="27" width="72.86821147684708" y="258" x="296.83285102315295"></rect><rect fill="#ff6060" class="male" height="27" width="51.54942731140909" y="230" x="318.15163518859094"></rect><rect fill="#ff6060" class="male" height="27" width="35.59220188640711" y="202" x="334.1088606135929"></rect><rect fill="#ff6060" class="male" height="27" width="20.45609388678571" y="174" x="349.2449686132143"></rect><rect fill="#ff6060" class="male" height="27" width="10.22526113363756" y="146" x="359.4758013663625"></rect><rect fill="#ababab" class="female" height="27" width="352.35028931816373" y="566" x="369.70106250000003"></rect><rect fill="#ababab" class="female" height="27" width="286.70589682991954" y="538" x="369.70106250000003"></rect><rect fill="#ababab" class="female" height="27" width="229.29089350541972" y="510" x="369.70106250000003"></rect><rect fill="#ababab" class="female" height="27" width="239.27319988443458" y="482" x="369.70106250000003"></rect><rect fill="#ababab" class="female" height="27" width="172.16572154200207" y="454" x="369.70106250000003"></rect><rect fill="#ababab" class="female" height="27" width="130.76055258826813" y="426" x="369.70106250000003"></rect><rect fill="#ababab" class="female" height="27" width="123.24315211006615" y="398" x="369.70106250000003"></rect><rect fill="#ababab" class="female" height="27" width="116.49024211664141" y="370" x="369.70106250000003"></rect><rect fill="#ababab" class="female" height="27" width="99.86163654060732" y="342" x="369.70106250000003"></rect><rect fill="#ababab" class="female" height="27" width="89.60021345341517" y="314" x="369.70106250000003"></rect><rect fill="#ababab" class="female" height="27" width="84.76683352793498" y="286" x="369.70106250000003"></rect><rect fill="#ababab" class="female" height="27" width="72.73052818701683" y="258" x="369.70106250000003"></rect><rect fill="#ababab" class="female" height="27" width="57.73429998107116" y="230" x="369.70106250000003"></rect><rect fill="#ababab" class="female" height="27" width="44.50298940164981" y="202" x="369.70106250000003"></rect><rect fill="#ababab" class="female" height="27" width="27.322311334681558" y="174" x="369.70106250000003"></rect><rect fill="#ababab" class="female" height="27" width="15.621374629692355" y="146" x="369.70106250000003"></rect></g><g class="coverGroup"><rect x="1.0189634912728125" y="566" width="721.0323883268909" height="27" fill="#fff" opacity="0"></rect><rect x="66.38423927133978" y="538" width="590.0227200585798" height="27" fill="#fff" opacity="0"></rect><rect x="126.77898756874151" y="510" width="472.21296843667824" height="27" fill="#fff" opacity="0"></rect><rect x="116.87007656212641" y="482" width="492.1041858223082" height="27" fill="#fff" opacity="0"></rect><rect x="187.03123098250583" y="454" width="354.8355530594963" height="27" fill="#fff" opacity="0"></rect><rect x="223.23175728759864" y="426" width="277.2298578006695" height="27" fill="#fff" opacity="0"></rect><rect x="228.31264569518612" y="398" width="264.63156891488006" height="27" fill="#fff" opacity="0"></rect><rect x="237.98047701143702" y="370" width="248.21082760520443" height="27" fill="#fff" opacity="0"></rect><rect x="254.97230932095326" y="342" width="214.5903897196541" height="27" fill="#fff" opacity="0"></rect><rect x="272.16504137243965" y="314" width="187.13623458097555" height="27" fill="#fff" opacity="0"></rect><rect x="278.8783071501156" y="286" width="175.58958887781944" height="27" fill="#fff" opacity="0"></rect><rect x="296.83285102315295" y="258" width="145.5987396638639" height="27" fill="#fff" opacity="0"></rect><rect x="318.15163518859094" y="230" width="109.28372729248025" height="27" fill="#fff" opacity="0"></rect><rect x="334.1088606135929" y="202" width="80.09519128805692" height="27" fill="#fff" opacity="0"></rect><rect x="349.2449686132143" y="174" width="47.77840522146727" height="27" fill="#fff" opacity="0"></rect><rect x="359.4758013663625" y="146" width="25.846635763329914" height="27" fill="#fff" opacity="0"></rect></g><g class="tooltipGroup" display="none" transform="translate(39.45500183105469,441.95599365234375)"><rect x="0" y="0" width="122" height="60" fill="rgba(255,255,255,.9)"></rect><text x="5" y="3" dy="15" style="font-weight: bold;">15</text><text x="5" y="21" dy="15" fill="#ff6060">male: 47193.5</text><text x="5" y="39" dy="15" fill="#ababab">female: 44662.8</text></g><g class="axis" transform="translate(0,599.1706875)"><g class="tick" transform="translate(369.70106250000003,0)" style="opacity: 1;"><line y2="6" x2="0"></line><text dy=".71em" y="9" x="0" style="text-anchor: middle;">0</text></g><g class="tick" transform="translate(262.5545334492309,0)" style="opacity: 1;"><line y2="6" x2="0"></line><text dy=".71em" y="9" x="0" style="text-anchor: middle;">20,000</text></g><g class="tick" transform="translate(155.40800439846183,0)" style="opacity: 1;"><line y2="6" x2="0"></line><text dy=".71em" y="9" x="0" style="text-anchor: middle;">40,000</text></g><g class="tick" transform="translate(48.26147534769268,0)" style="opacity: 1;"><line y2="6" x2="0"></line><text dy=".71em" y="9" x="0" style="text-anchor: middle;">60,000</text></g><path class="domain" d="M0,6V0H369.70106250000003V6"></path></g><g class="axis" transform="translate(0,599.1706875)"><g class="tick" transform="translate(369.70106250000003,0)" style="opacity: 1;"><line y2="6" x2="0"></line><text dy=".71em" y="9" x="0" style="text-anchor: middle;">0</text></g><g class="tick" transform="translate(476.84759155076915,0)" style="opacity: 1;"><line y2="6" x2="0"></line><text dy=".71em" y="9" x="0" style="text-anchor: middle;">20,000</text></g><g class="tick" transform="translate(583.9941206015383,0)" style="opacity: 1;"><line y2="6" x2="0"></line><text dy=".71em" y="9" x="0" style="text-anchor: middle;">40,000</text></g><g class="tick" transform="translate(691.1406496523074,0)" style="opacity: 1;"><line y2="6" x2="0"></line><text dy=".71em" y="9" x="0" style="text-anchor: middle;">60,000</text></g><path class="domain" d="M369.70106250000003,6V0H739.4021250000001V6"></path></g><g class="axis" transform="translate(0,0)"><g class="tick" transform="translate(0,580)" style="opacity: 1;"><line x2="-6" y2="0"></line><text dy=".32em" x="-9" y="0" style="text-anchor: end;">0</text></g><g class="tick" transform="translate(0,552)" style="opacity: 1;"><line x2="-6" y2="0"></line><text dy=".32em" x="-9" y="0" style="text-anchor: end;">5</text></g><g class="tick" transform="translate(0,524)" style="opacity: 1;"><line x2="-6" y2="0"></line><text dy=".32em" x="-9" y="0" style="text-anchor: end;">10</text></g><g class="tick" transform="translate(0,496)" style="opacity: 1;"><line x2="-6" y2="0"></line><text dy=".32em" x="-9" y="0" style="text-anchor: end;">15</text></g><g class="tick" transform="translate(0,468)" style="opacity: 1;"><line x2="-6" y2="0"></line><text dy=".32em" x="-9" y="0" style="text-anchor: end;">20</text></g><g class="tick" transform="translate(0,440)" style="opacity: 1;"><line x2="-6" y2="0"></line><text dy=".32em" x="-9" y="0" style="text-anchor: end;">25</text></g><g class="tick" transform="translate(0,412)" style="opacity: 1;"><line x2="-6" y2="0"></line><text dy=".32em" x="-9" y="0" style="text-anchor: end;">30</text></g><g class="tick" transform="translate(0,384)" style="opacity: 1;"><line x2="-6" y2="0"></line><text dy=".32em" x="-9" y="0" style="text-anchor: end;">35</text></g><g class="tick" transform="translate(0,356)" style="opacity: 1;"><line x2="-6" y2="0"></line><text dy=".32em" x="-9" y="0" style="text-anchor: end;">40</text></g><g class="tick" transform="translate(0,328)" style="opacity: 1;"><line x2="-6" y2="0"></line><text dy=".32em" x="-9" y="0" style="text-anchor: end;">45</text></g><g class="tick" transform="translate(0,300)" style="opacity: 1;"><line x2="-6" y2="0"></line><text dy=".32em" x="-9" y="0" style="text-anchor: end;">50</text></g><g class="tick" transform="translate(0,272)" style="opacity: 1;"><line x2="-6" y2="0"></line><text dy=".32em" x="-9" y="0" style="text-anchor: end;">55</text></g><g class="tick" transform="translate(0,244)" style="opacity: 1;"><line x2="-6" y2="0"></line><text dy=".32em" x="-9" y="0" style="text-anchor: end;">60</text></g><g class="tick" transform="translate(0,216)" style="opacity: 1;"><line x2="-6" y2="0"></line><text dy=".32em" x="-9" y="0" style="text-anchor: end;">65</text></g><g class="tick" transform="translate(0,188)" style="opacity: 1;"><line x2="-6" y2="0"></line><text dy=".32em" x="-9" y="0" style="text-anchor: end;">70</text></g><g class="tick" transform="translate(0,160)" style="opacity: 1;"><line x2="-6" y2="0"></line><text dy=".32em" x="-9" y="0" style="text-anchor: end;">75</text></g><g class="tick" transform="translate(0,132)" style="opacity: 1;"><line x2="-6" y2="0"></line><text dy=".32em" x="-9" y="0" style="text-anchor: end;">80</text></g><g class="tick" transform="translate(0,104)" style="opacity: 1;"><line x2="-6" y2="0"></line><text dy=".32em" x="-9" y="0" style="text-anchor: end;">85</text></g><g class="tick" transform="translate(0,76)" style="opacity: 1;"><line x2="-6" y2="0"></line><text dy=".32em" x="-9" y="0" style="text-anchor: end;">90</text></g><g class="tick" transform="translate(0,48)" style="opacity: 1;"><line x2="-6" y2="0"></line><text dy=".32em" x="-9" y="0" style="text-anchor: end;">95</text></g><g class="tick" transform="translate(0,20)" style="opacity: 1;"><line x2="-6" y2="0"></line><text dy=".32em" x="-9" y="0" style="text-anchor: end;">100</text></g><path class="domain" d="M-6,0H0V599.1706875H-6"></path></g><g><rect x="16.99775" y="1" width="50.99325" height="17" fill="#ff6060"></rect><text x="72.991" y="14.6" text-anchor="start" style="font-size: 17px; font-weight: bold;">male</text></g><g transform="translate(722.4043750000001,0)"><rect x="-50.99325" y="1" width="50.99325" height="17" fill="#ababab"></rect><text x="-55.99325" y="14.6" text-anchor="end" style="font-size: 17px; font-weight: bold;">female</text></g></g></g></g></svg>