<svg id="svg-5544734748594536487" width="883" class="svg-populationPyramid" height="705.5132153320312" version="1.1" xmlns="http://www.w3.org/2000/svg"><rect class="svgBg" x="0" y="0" width="100%" height="100%" fill="#fff"></rect><g class="svgGroup" transform="translate(16.55625,16.55625)"><g class="svgTitle" style="display: block;"><text x="50%" y="0" dx="-16.55625" dy="20" text-anchor="middle" fill="#000" style="font-size: 20px; font-weight: bold;"></text></g><g class="mainGroup" transform="translate(0,26.49)"><g transform="translate(84.98875000000001,16.99775)"><g class="rectGroup"><rect fill="#ff6060" class="male" height="34" width="287.92653211285995" y="562" x="81.77453038714008"></rect><rect fill="#ff6060" class="male" height="34" width="353.4808346101984" y="527" x="16.220227889801677"></rect><rect fill="#ff6060" class="male" height="34" width="369.70106250000003" y="492" x="0"></rect><rect fill="#ff6060" class="male" height="34" width="310.0096468102527" y="457" x="59.6914156897473"></rect><rect fill="#ff6060" class="male" height="34" width="248.64113794318007" y="422" x="121.05992455681996"></rect><rect fill="#ff6060" class="male" height="34" width="258.01420686273" y="387" x="111.68685563726999"></rect><rect fill="#ff6060" class="male" height="34" width="185.63495119689202" y="352" x="184.06611130310802"></rect><rect fill="#ff6060" class="male" height="34" width="148.2870132300805" y="317" x="221.41404926991953"></rect><rect fill="#ff6060" class="male" height="34" width="142.28034385614475" y="282" x="227.42071864385528"></rect><rect fill="#ff6060" class="male" height="34" width="131.10083296406358" y="247" x="238.60022953593645"></rect><rect fill="#ff6060" class="male" height="34" width="111.4670181999245" y="212" x="258.23404430007554"></rect><rect fill="#ff6060" class="male" height="34" width="90.87724367035867" y="177" x="278.82381882964137"></rect><rect fill="#ff6060" class="male" height="34" width="78.94828696914499" y="142" x="290.75277553085505"></rect><rect fill="#ff6060" class="male" height="34" width="56.21454228041654" y="107" x="313.4865202195835"></rect><rect fill="#ff6060" class="male" height="34" width="33.22154485623258" y="72" x="336.47951764376745"></rect><rect fill="#ff6060" class="male" height="34" width="17.384422561158544" y="37" x="352.3166399388415"></rect><rect fill="#ff6060" class="male" height="34" width="8.414166885391126" y="2" x="361.2868956146089"></rect><rect fill="#ababab" class="female" height="34" width="270.6665175560174" y="562" x="369.70106250000003"></rect><rect fill="#ababab" class="female" height="34" width="333.47618295679956" y="527" x="369.70106250000003"></rect><rect fill="#ababab" class="female" height="34" width="354.45067300172025" y="492" x="369.70106250000003"></rect><rect fill="#ababab" class="female" height="34" width="293.48908545175425" y="457" x="369.70106250000003"></rect><rect fill="#ababab" class="female" height="34" width="235.00344479714443" y="422" x="369.70106250000003"></rect><rect fill="#ababab" class="female" height="34" width="244.53250947400284" y="387" x="369.70106250000003"></rect><rect fill="#ababab" class="female" height="34" width="175.26872779398047" y="352" x="369.70106250000003"></rect><rect fill="#ababab" class="female" height="34" width="132.61471349851115" y="317" x="369.70106250000003"></rect><rect fill="#ababab" class="female" height="34" width="124.30641277297309" y="282" x="369.70106250000003"></rect><rect fill="#ababab" class="female" height="34" width="116.43279061673178" y="247" x="369.70106250000003"></rect><rect fill="#ababab" class="female" height="34" width="98.19016933236003" y="212" x="369.70106250000003"></rect><rect fill="#ababab" class="female" height="34" width="85.77990187817028" y="177" x="369.70106250000003"></rect><rect fill="#ababab" class="female" height="34" width="77.35002438803957" y="142" x="369.70106250000003"></rect><rect fill="#ababab" class="female" height="34" width="61.18031469722388" y="107" x="369.70106250000003"></rect><rect fill="#ababab" class="female" height="34" width="42.25575324104591" y="72" x="369.70106250000003"></rect><rect fill="#ababab" class="female" height="34" width="25.83045477206383" y="37" x="369.70106250000003"></rect><rect fill="#ababab" class="female" height="34" width="15.03038551742128" y="2" x="369.70106250000003"></rect></g><g class="coverGroup"><rect x="81.77453038714008" y="562" width="558.5930496688774" height="34" fill="#fff" opacity="0"></rect><rect x="16.220227889801677" y="527" width="686.9570175669979" height="34" fill="#fff" opacity="0"></rect><rect x="0" y="492" width="724.1517355017203" height="34" fill="#fff" opacity="0"></rect><rect x="59.6914156897473" y="457" width="603.498732262007" height="34" fill="#fff" opacity="0"></rect><rect x="121.05992455681996" y="422" width="483.6445827403245" height="34" fill="#fff" opacity="0"></rect><rect x="111.68685563726999" y="387" width="502.54671633673286" height="34" fill="#fff" opacity="0"></rect><rect x="184.06611130310802" y="352" width="360.9036789908725" height="34" fill="#fff" opacity="0"></rect><rect x="221.41404926991953" y="317" width="280.90172672859165" height="34" fill="#fff" opacity="0"></rect><rect x="227.42071864385528" y="282" width="266.5867566291179" height="34" fill="#fff" opacity="0"></rect><rect x="238.60022953593645" y="247" width="247.53362358079536" height="34" fill="#fff" opacity="0"></rect><rect x="258.23404430007554" y="212" width="209.65718753228452" height="34" fill="#fff" opacity="0"></rect><rect x="278.82381882964137" y="177" width="176.65714554852894" height="34" fill="#fff" opacity="0"></rect><rect x="290.75277553085505" y="142" width="156.29831135718456" height="34" fill="#fff" opacity="0"></rect><rect x="313.4865202195835" y="107" width="117.39485697764042" height="34" fill="#fff" opacity="0"></rect><rect x="336.47951764376745" y="72" width="75.47729809727849" height="34" fill="#fff" opacity="0"></rect><rect x="352.3166399388415" y="37" width="43.214877333222375" height="34" fill="#fff" opacity="0"></rect><rect x="361.2868956146089" y="2" width="23.444552402812405" height="34" fill="#fff" opacity="0"></rect></g><g class="tooltipGroup" display="none" opacity="1" transform="translate(251.45501708984375,-34.04399871826172)"><rect x="0" y="0" width="122" height="60" fill="rgba(255,255,255,.9)"></rect><text x="5" y="3" dy="15" style="font-weight: bold;">80+</text><text x="5" y="21" dy="15" fill="#ff6060">male: 1515.67</text><text x="5" y="39" dy="15" fill="#ababab">female: 2707.47</text></g><g class="axis" transform="translate(0,599.1706875)"><g class="tick" transform="translate(369.70106250000003,0)" style="opacity: 1;"><line y2="6" x2="0"></line><text dy=".71em" y="9" x="0" style="text-anchor: middle;">0</text></g><g class="tick" transform="translate(314.1865581198176,0)" style="opacity: 1;"><line y2="6" x2="0"></line><text dy=".71em" y="9" x="0" style="text-anchor: middle;">10,000</text></g><g class="tick" transform="translate(258.67205373963515,0)" style="opacity: 1;"><line y2="6" x2="0"></line><text dy=".71em" y="9" x="0" style="text-anchor: middle;">20,000</text></g><g class="tick" transform="translate(203.15754935945273,0)" style="opacity: 1;"><line y2="6" x2="0"></line><text dy=".71em" y="9" x="0" style="text-anchor: middle;">30,000</text></g><g class="tick" transform="translate(147.64304497927034,0)" style="opacity: 1;"><line y2="6" x2="0"></line><text dy=".71em" y="9" x="0" style="text-anchor: middle;">40,000</text></g><g class="tick" transform="translate(92.1285405990879,0)" style="opacity: 1;"><line y2="6" x2="0"></line><text dy=".71em" y="9" x="0" style="text-anchor: middle;">50,000</text></g><g class="tick" transform="translate(36.61403621890547,0)" style="opacity: 1;"><line y2="6" x2="0"></line><text dy=".71em" y="9" x="0" style="text-anchor: middle;">60,000</text></g><path class="domain" d="M0,6V0H369.70106250000003V6"></path></g><g class="axis" transform="translate(0,599.1706875)"><g class="tick" transform="translate(369.70106250000003,0)" style="opacity: 1;"><line y2="6" x2="0"></line><text dy=".71em" y="9" x="0" style="text-anchor: middle;">0</text></g><g class="tick" transform="translate(425.21556688018245,0)" style="opacity: 1;"><line y2="6" x2="0"></line><text dy=".71em" y="9" x="0" style="text-anchor: middle;">10,000</text></g><g class="tick" transform="translate(480.73007126036487,0)" style="opacity: 1;"><line y2="6" x2="0"></line><text dy=".71em" y="9" x="0" style="text-anchor: middle;">20,000</text></g><g class="tick" transform="translate(536.2445756405473,0)" style="opacity: 1;"><line y2="6" x2="0"></line><text dy=".71em" y="9" x="0" style="text-anchor: middle;">30,000</text></g><g class="tick" transform="translate(591.7590800207297,0)" style="opacity: 1;"><line y2="6" x2="0"></line><text dy=".71em" y="9" x="0" style="text-anchor: middle;">40,000</text></g><g class="tick" transform="translate(647.2735844009121,0)" style="opacity: 1;"><line y2="6" x2="0"></line><text dy=".71em" y="9" x="0" style="text-anchor: middle;">50,000</text></g><g class="tick" transform="translate(702.7880887810945,0)" style="opacity: 1;"><line y2="6" x2="0"></line><text dy=".71em" y="9" x="0" style="text-anchor: middle;">60,000</text></g><path class="domain" d="M369.70106250000003,6V0H739.4021250000001V6"></path></g><g class="axis" transform="translate(0,0)"><g class="tick" transform="translate(0,579.5)" style="opacity: 1;"><line x2="-6" y2="0"></line><text dy=".32em" x="-9" y="0" style="text-anchor: end;">0-4</text></g><g class="tick" transform="translate(0,544.5)" style="opacity: 1;"><line x2="-6" y2="0"></line><text dy=".32em" x="-9" y="0" style="text-anchor: end;">5-9</text></g><g class="tick" transform="translate(0,509.5)" style="opacity: 1;"><line x2="-6" y2="0"></line><text dy=".32em" x="-9" y="0" style="text-anchor: end;">10-14</text></g><g class="tick" transform="translate(0,474.5)" style="opacity: 1;"><line x2="-6" y2="0"></line><text dy=".32em" x="-9" y="0" style="text-anchor: end;">15-19</text></g><g class="tick" transform="translate(0,439.5)" style="opacity: 1;"><line x2="-6" y2="0"></line><text dy=".32em" x="-9" y="0" style="text-anchor: end;">20-24</text></g><g class="tick" transform="translate(0,404.5)" style="opacity: 1;"><line x2="-6" y2="0"></line><text dy=".32em" x="-9" y="0" style="text-anchor: end;">25-29</text></g><g class="tick" transform="translate(0,369.5)" style="opacity: 1;"><line x2="-6" y2="0"></line><text dy=".32em" x="-9" y="0" style="text-anchor: end;">30-34</text></g><g class="tick" transform="translate(0,334.5)" style="opacity: 1;"><line x2="-6" y2="0"></line><text dy=".32em" x="-9" y="0" style="text-anchor: end;">35-39</text></g><g class="tick" transform="translate(0,299.5)" style="opacity: 1;"><line x2="-6" y2="0"></line><text dy=".32em" x="-9" y="0" style="text-anchor: end;">40-44</text></g><g class="tick" transform="translate(0,264.5)" style="opacity: 1;"><line x2="-6" y2="0"></line><text dy=".32em" x="-9" y="0" style="text-anchor: end;">45-49</text></g><g class="tick" transform="translate(0,229.5)" style="opacity: 1;"><line x2="-6" y2="0"></line><text dy=".32em" x="-9" y="0" style="text-anchor: end;">50-54</text></g><g class="tick" transform="translate(0,194.5)" style="opacity: 1;"><line x2="-6" y2="0"></line><text dy=".32em" x="-9" y="0" style="text-anchor: end;">55-59</text></g><g class="tick" transform="translate(0,159.5)" style="opacity: 1;"><line x2="-6" y2="0"></line><text dy=".32em" x="-9" y="0" style="text-anchor: end;">60-64</text></g><g class="tick" transform="translate(0,124.5)" style="opacity: 1;"><line x2="-6" y2="0"></line><text dy=".32em" x="-9" y="0" style="text-anchor: end;">65-69</text></g><g class="tick" transform="translate(0,89.5)" style="opacity: 1;"><line x2="-6" y2="0"></line><text dy=".32em" x="-9" y="0" style="text-anchor: end;">70-74</text></g><g class="tick" transform="translate(0,54.5)" style="opacity: 1;"><line x2="-6" y2="0"></line><text dy=".32em" x="-9" y="0" style="text-anchor: end;">75-79</text></g><g class="tick" transform="translate(0,19.5)" style="opacity: 1;"><line x2="-6" y2="0"></line><text dy=".32em" x="-9" y="0" style="text-anchor: end;">80+</text></g><path class="domain" d="M-6,0H0V599.1706875H-6"></path></g><g><rect x="16.99775" y="1" width="50.99325" height="17" fill="#ff6060"></rect><text x="72.991" y="14.6" text-anchor="start" style="font-size: 17px; font-weight: bold;">male</text></g><g transform="translate(722.4043750000001,0)"><rect x="-50.99325" y="1" width="50.99325" height="17" fill="#ababab"></rect><text x="-55.99325" y="14.6" text-anchor="end" style="font-size: 17px; font-weight: bold;">female</text></g></g></g></g></svg>