<svg id="svg-892973281855086592" width="883" class="svg-populationPyramid" height="727.7475903320312" version="1.1" xmlns="http://www.w3.org/2000/svg"><rect class="svgBg" x="0" y="0" width="100%" height="100%" fill="#fff"></rect><g class="svgGroup" transform="translate(16.55625,16.55625)"><g class="svgTitle" style="display: block;"><text x="50%" y="0" dx="-16.55625" dy="20" text-anchor="middle" fill="#000" style="font-size: 20px; font-weight: bold;">人口金字塔</text></g><g class="mainGroup" transform="translate(0,49.489999999999995)"><g transform="translate(84.98875000000001,16.99775)"><g class="rectGroup"><rect fill="#ff6060" class="male" height="27" width="277.85827219355224" y="566" x="91.84279030644777"></rect><rect fill="#ff6060" class="male" height="27" width="341.1202616083526" y="538" x="28.58080089164743"></rect><rect fill="#ff6060" class="male" height="27" width="356.77329803737945" y="510" x="12.927764462620567"></rect><rect fill="#ff6060" class="male" height="27" width="299.169181089105" y="482" x="70.53188141089505"></rect><rect fill="#ff6060" class="male" height="27" width="239.94661581951863" y="454" x="129.7544466804814"></rect><rect fill="#ff6060" class="male" height="27" width="248.99192580198456" y="426" x="120.70913669801547"></rect><rect fill="#ff6060" class="male" height="27" width="179.14363924643345" y="398" x="190.55742325356658"></rect><rect fill="#ff6060" class="male" height="27" width="143.10168980433573" y="370" x="226.5993726956643"></rect><rect fill="#ff6060" class="male" height="27" width="137.30506258268912" y="342" x="232.39599991731092"></rect><rect fill="#ff6060" class="male" height="27" width="126.51647857256717" y="314" x="243.18458392743287"></rect><rect fill="#ff6060" class="male" height="27" width="107.5692221078744" y="286" x="262.13184039212564"></rect><rect fill="#ff6060" class="male" height="27" width="87.6994340280545" y="258" x="282.00162847194554"></rect><rect fill="#ff6060" class="male" height="27" width="76.18761094683992" y="230" x="293.5134515531601"></rect><rect fill="#ff6060" class="male" height="27" width="54.248823391049655" y="202" x="315.4522391089504"></rect><rect fill="#ff6060" class="male" height="27" width="32.0598486899259" y="174" x="337.64121381007413"></rect><rect fill="#ff6060" class="male" height="27" width="16.77652135938871" y="146" x="352.9245411406113"></rect><rect fill="#ababab" class="female" height="27" width="261.20180851996497" y="566" x="369.70106250000003"></rect><rect fill="#ababab" class="female" height="27" width="321.8151357366303" y="538" x="369.70106250000003"></rect><rect fill="#ababab" class="female" height="27" width="342.0561865396111" y="510" x="369.70106250000003"></rect><rect fill="#ababab" class="female" height="27" width="283.2263132989958" y="482" x="369.70106250000003"></rect><rect fill="#ababab" class="female" height="27" width="226.78580765621268" y="454" x="369.70106250000003"></rect><rect fill="#ababab" class="female" height="27" width="235.98165851199497" y="426" x="369.70106250000003"></rect><rect fill="#ababab" class="female" height="27" width="169.13990356160843" y="398" x="369.70106250000003"></rect><rect fill="#ababab" class="female" height="27" width="127.97742149617443" y="370" x="369.70106250000003"></rect><rect fill="#ababab" class="female" height="27" width="119.95964672730531" y="342" x="369.70106250000003"></rect><rect fill="#ababab" class="female" height="27" width="112.36135061967013" y="314" x="369.70106250000003"></rect><rect fill="#ababab" class="female" height="27" width="94.75664016398343" y="286" x="369.70106250000003"></rect><rect fill="#ababab" class="female" height="27" width="82.78033687933373" y="258" x="369.70106250000003"></rect><rect fill="#ababab" class="female" height="27" width="74.64523666115406" y="230" x="369.70106250000003"></rect><rect fill="#ababab" class="female" height="27" width="59.04095190284528" y="202" x="369.70106250000003"></rect><rect fill="#ababab" class="female" height="27" width="40.778147465728864" y="174" x="369.70106250000003"></rect><rect fill="#ababab" class="female" height="27" width="24.927211397545193" y="146" x="369.70106250000003"></rect></g><g class="coverGroup"><rect x="91.84279030644777" y="566" width="539.0600807135172" height="27" fill="#fff" opacity="0"></rect><rect x="28.58080089164743" y="538" width="662.9353973449829" height="27" fill="#fff" opacity="0"></rect><rect x="12.927764462620567" y="510" width="698.8294845769906" height="27" fill="#fff" opacity="0"></rect><rect x="70.53188141089505" y="482" width="582.3954943881008" height="27" fill="#fff" opacity="0"></rect><rect x="129.7544466804814" y="454" width="466.7324234757313" height="27" fill="#fff" opacity="0"></rect><rect x="120.70913669801547" y="426" width="484.97358431397953" height="27" fill="#fff" opacity="0"></rect><rect x="190.55742325356658" y="398" width="348.2835428080419" height="27" fill="#fff" opacity="0"></rect><rect x="226.5993726956643" y="370" width="271.07911130051014" height="27" fill="#fff" opacity="0"></rect><rect x="232.39599991731092" y="342" width="257.26470930999443" height="27" fill="#fff" opacity="0"></rect><rect x="243.18458392743287" y="314" width="238.8778291922373" height="27" fill="#fff" opacity="0"></rect><rect x="262.13184039212564" y="286" width="202.32586227185783" height="27" fill="#fff" opacity="0"></rect><rect x="282.00162847194554" y="258" width="170.47977090738823" height="27" fill="#fff" opacity="0"></rect><rect x="293.5134515531601" y="230" width="150.83284760799398" height="27" fill="#fff" opacity="0"></rect><rect x="315.4522391089504" y="202" width="113.28977529389493" height="27" fill="#fff" opacity="0"></rect><rect x="337.64121381007413" y="174" width="72.83799615565476" height="27" fill="#fff" opacity="0"></rect><rect x="352.9245411406113" y="146" width="41.7037327569339" height="27" fill="#fff" opacity="0"></rect></g><g class="tooltipGroup" display="none" transform="translate(109.45500183105469,326.95599365234375)"><rect x="0" y="0" width="122" height="60" fill="rgba(255,255,255,.9)"></rect><text x="5" y="3" dy="15" style="font-weight: bold;">35</text><text x="5" y="21" dy="15" fill="#ff6060">male: 26711.4</text><text x="5" y="39" dy="15" fill="#ababab">female: 23888.3</text></g><g class="axis" transform="translate(0,599.1706875)"><g class="tick" transform="translate(369.70106250000003,0)" style="opacity: 1;"><line y2="6" x2="0"></line><text dy=".71em" y="9" x="0" style="text-anchor: middle;">0</text></g><g class="tick" transform="translate(262.5545334492309,0)" style="opacity: 1;"><line y2="6" x2="0"></line><text dy=".71em" y="9" x="0" style="text-anchor: middle;">20,000</text></g><g class="tick" transform="translate(155.40800439846183,0)" style="opacity: 1;"><line y2="6" x2="0"></line><text dy=".71em" y="9" x="0" style="text-anchor: middle;">40,000</text></g><g class="tick" transform="translate(48.26147534769268,0)" style="opacity: 1;"><line y2="6" x2="0"></line><text dy=".71em" y="9" x="0" style="text-anchor: middle;">60,000</text></g><path class="domain" d="M0,6V0H369.70106250000003V6"></path></g><g class="axis" transform="translate(0,599.1706875)"><g class="tick" transform="translate(369.70106250000003,0)" style="opacity: 1;"><line y2="6" x2="0"></line><text dy=".71em" y="9" x="0" style="text-anchor: middle;">0</text></g><g class="tick" transform="translate(476.84759155076915,0)" style="opacity: 1;"><line y2="6" x2="0"></line><text dy=".71em" y="9" x="0" style="text-anchor: middle;">20,000</text></g><g class="tick" transform="translate(583.9941206015383,0)" style="opacity: 1;"><line y2="6" x2="0"></line><text dy=".71em" y="9" x="0" style="text-anchor: middle;">40,000</text></g><g class="tick" transform="translate(691.1406496523074,0)" style="opacity: 1;"><line y2="6" x2="0"></line><text dy=".71em" y="9" x="0" style="text-anchor: middle;">60,000</text></g><path class="domain" d="M369.70106250000003,6V0H739.4021250000001V6"></path></g><g class="axis" transform="translate(0,0)"><g class="tick" transform="translate(0,580)" style="opacity: 1;"><line x2="-6" y2="0"></line><text dy=".32em" x="-9" y="0" style="text-anchor: end;">0</text></g><g class="tick" transform="translate(0,552)" style="opacity: 1;"><line x2="-6" y2="0"></line><text dy=".32em" x="-9" y="0" style="text-anchor: end;">5</text></g><g class="tick" transform="translate(0,524)" style="opacity: 1;"><line x2="-6" y2="0"></line><text dy=".32em" x="-9" y="0" style="text-anchor: end;">10</text></g><g class="tick" transform="translate(0,496)" style="opacity: 1;"><line x2="-6" y2="0"></line><text dy=".32em" x="-9" y="0" style="text-anchor: end;">15</text></g><g class="tick" transform="translate(0,468)" style="opacity: 1;"><line x2="-6" y2="0"></line><text dy=".32em" x="-9" y="0" style="text-anchor: end;">20</text></g><g class="tick" transform="translate(0,440)" style="opacity: 1;"><line x2="-6" y2="0"></line><text dy=".32em" x="-9" y="0" style="text-anchor: end;">25</text></g><g class="tick" transform="translate(0,412)" style="opacity: 1;"><line x2="-6" y2="0"></line><text dy=".32em" x="-9" y="0" style="text-anchor: end;">30</text></g><g class="tick" transform="translate(0,384)" style="opacity: 1;"><line x2="-6" y2="0"></line><text dy=".32em" x="-9" y="0" style="text-anchor: end;">35</text></g><g class="tick" transform="translate(0,356)" style="opacity: 1;"><line x2="-6" y2="0"></line><text dy=".32em" x="-9" y="0" style="text-anchor: end;">40</text></g><g class="tick" transform="translate(0,328)" style="opacity: 1;"><line x2="-6" y2="0"></line><text dy=".32em" x="-9" y="0" style="text-anchor: end;">45</text></g><g class="tick" transform="translate(0,300)" style="opacity: 1;"><line x2="-6" y2="0"></line><text dy=".32em" x="-9" y="0" style="text-anchor: end;">50</text></g><g class="tick" transform="translate(0,272)" style="opacity: 1;"><line x2="-6" y2="0"></line><text dy=".32em" x="-9" y="0" style="text-anchor: end;">55</text></g><g class="tick" transform="translate(0,244)" style="opacity: 1;"><line x2="-6" y2="0"></line><text dy=".32em" x="-9" y="0" style="text-anchor: end;">60</text></g><g class="tick" transform="translate(0,216)" style="opacity: 1;"><line x2="-6" y2="0"></line><text dy=".32em" x="-9" y="0" style="text-anchor: end;">65</text></g><g class="tick" transform="translate(0,188)" style="opacity: 1;"><line x2="-6" y2="0"></line><text dy=".32em" x="-9" y="0" style="text-anchor: end;">70</text></g><g class="tick" transform="translate(0,160)" style="opacity: 1;"><line x2="-6" y2="0"></line><text dy=".32em" x="-9" y="0" style="text-anchor: end;">75</text></g><g class="tick" transform="translate(0,132)" style="opacity: 1;"><line x2="-6" y2="0"></line><text dy=".32em" x="-9" y="0" style="text-anchor: end;">80</text></g><g class="tick" transform="translate(0,104)" style="opacity: 1;"><line x2="-6" y2="0"></line><text dy=".32em" x="-9" y="0" style="text-anchor: end;">85</text></g><g class="tick" transform="translate(0,76)" style="opacity: 1;"><line x2="-6" y2="0"></line><text dy=".32em" x="-9" y="0" style="text-anchor: end;">90</text></g><g class="tick" transform="translate(0,48)" style="opacity: 1;"><line x2="-6" y2="0"></line><text dy=".32em" x="-9" y="0" style="text-anchor: end;">95</text></g><g class="tick" transform="translate(0,20)" style="opacity: 1;"><line x2="-6" y2="0"></line><text dy=".32em" x="-9" y="0" style="text-anchor: end;">100</text></g><path class="domain" d="M-6,0H0V599.1706875H-6"></path></g><g><rect x="16.99775" y="1" width="50.99325" height="17" fill="#ff6060"></rect><text x="72.991" y="14.6" text-anchor="start" style="font-size: 17px; font-weight: bold;">male</text></g><g transform="translate(722.4043750000001,0)"><rect x="-50.99325" y="1" width="50.99325" height="17" fill="#ababab"></rect><text x="-55.99325" y="14.6" text-anchor="end" style="font-size: 17px; font-weight: bold;">female</text></g></g></g></g></svg>