<?xml version="1.0" encoding="utf-8"?>
<!-- Generator: Adobe Illustrator 21.1.0, SVG Export Plug-In . SVG Version: 6.00 Build 0)  -->
<svg version="1.1" id="svg-892973281855086592" xmlns="http://www.w3.org/2000/svg" xmlns:xlink="http://www.w3.org/1999/xlink"
	 x="0px" y="0px" viewBox="0 0 883 727.7" style="enable-background:new 0 0 883 727.7;" xml:space="preserve">
<style type="text/css">
	.st0{fill:#FFFFFF;}
	.st1{font-family:'KozGoPr6N-Regular-83pv-RKSJ-H';}
	.st2{font-size:20px;}
	.st3{fill:#FF6060;}
	.st4{fill:#ABABAB;}
	.st5{fill:#FFFFFF;fill-opacity:0;}
	.st6{display:none;}
	.st7{display:inline;}
	.st8{font-family:'ArialMT';}
	.st9{font-size:12px;}
	.st10{fill:none;}
	.st11{font-family:'Arial-BoldMT';}
	.st12{font-size:17px;}
</style>
<rect class="st0" width="883" height="727.7"/>
<g transform="translate(16.55625,16.55625)">
	<g>
		<text transform="matrix(1 0 0 1 434.3925 24.0001)" class="st1 st2">1990</text>
	</g>
	<g transform="translate(0,49.489999999999995)">
		<g transform="translate(84.98875000000001,16.99775)">
			<g>
				<rect x="0" y="566" class="st3" width="369.7" height="27"/>
				<rect x="80.1" y="538" class="st3" width="289.6" height="27"/>
				<rect x="96.5" y="510" class="st3" width="273.2" height="27"/>
				<rect x="31.8" y="482" class="st3" width="337.9" height="27"/>
				<rect x="16.3" y="454" class="st3" width="353.4" height="27"/>
				<rect x="74" y="426" class="st3" width="295.7" height="27"/>
				<rect x="133.1" y="398" class="st3" width="236.6" height="27"/>
				<rect x="124.8" y="370" class="st3" width="244.9" height="27"/>
				<rect x="194.5" y="342" class="st3" width="175.2" height="27"/>
				<rect x="230.9" y="314" class="st3" width="138.8" height="27"/>
				<rect x="238.6" y="286" class="st3" width="131.1" height="27"/>
				<rect x="252.6" y="258" class="st3" width="117.1" height="27"/>
				<rect x="275.5" y="230" class="st3" width="94.2" height="27"/>
				<rect x="299.5" y="202" class="st3" width="70.2" height="27"/>
				<rect x="317.1" y="174" class="st3" width="52.6" height="27"/>
				<rect x="341.4" y="146" class="st3" width="28.3" height="27"/>
				<rect x="359" y="118" class="st3" width="10.7" height="27"/>
				<rect x="366.6" y="90" class="st3" width="3.1" height="27"/>
				<rect x="369.2" y="62" class="st3" width="0.5" height="27"/>
				<rect x="369.6" y="34" class="st3" width="0.1" height="27"/>
				<rect x="369.7" y="6" class="st3" width="0" height="27"/>
				<rect x="369.7" y="566" class="st4" width="344.1" height="27"/>
				<rect x="369.7" y="538" class="st4" width="272.5" height="27"/>
				<rect x="369.7" y="510" class="st4" width="257.5" height="27"/>
				<rect x="369.7" y="482" class="st4" width="319.3" height="27"/>
				<rect x="369.7" y="454" class="st4" width="339.3" height="27"/>
				<rect x="369.7" y="426" class="st4" width="280.4" height="27"/>
				<rect x="369.7" y="398" class="st4" width="224" height="27"/>
				<rect x="369.7" y="370" class="st4" width="232.6" height="27"/>
				<rect x="369.7" y="342" class="st4" width="166.1" height="27"/>
				<rect x="369.7" y="314" class="st4" width="124.9" height="27"/>
				<rect x="369.7" y="286" class="st4" width="115.7" height="27"/>
				<rect x="369.7" y="258" class="st4" width="106.2" height="27"/>
				<rect x="369.7" y="230" class="st4" width="86.2" height="27"/>
				<rect x="369.7" y="202" class="st4" width="70.5" height="27"/>
				<rect x="369.7" y="174" class="st4" width="56.8" height="27"/>
				<rect x="369.7" y="146" class="st4" width="36.6" height="27"/>
				<rect x="369.7" y="118" class="st4" width="17.9" height="27"/>
				<rect x="369.7" y="90" class="st4" width="6.4" height="27"/>
				<rect x="369.7" y="62" class="st4" width="1.3" height="27"/>
				<rect x="369.7" y="34" class="st4" width="0.2" height="27"/>
				<rect x="369.7" y="6" class="st4" width="0" height="27"/>
			</g>
			<g>
				<rect x="0" y="566" class="st5" width="713.8" height="27"/>
				<rect x="80.1" y="538" class="st5" width="562.1" height="27"/>
				<rect x="96.5" y="510" class="st5" width="530.7" height="27"/>
				<rect x="31.8" y="482" class="st5" width="657.2" height="27"/>
				<rect x="16.3" y="454" class="st5" width="692.7" height="27"/>
				<rect x="74" y="426" class="st5" width="576" height="27"/>
				<rect x="133.1" y="398" class="st5" width="460.7" height="27"/>
				<rect x="124.8" y="370" class="st5" width="477.5" height="27"/>
				<rect x="194.5" y="342" class="st5" width="341.3" height="27"/>
				<rect x="230.9" y="314" class="st5" width="263.6" height="27"/>
				<rect x="238.6" y="286" class="st5" width="246.8" height="27"/>
				<rect x="252.6" y="258" class="st5" width="223.4" height="27"/>
				<rect x="275.5" y="230" class="st5" width="180.4" height="27"/>
				<rect x="299.5" y="202" class="st5" width="140.7" height="27"/>
				<rect x="317.1" y="174" class="st5" width="109.4" height="27"/>
				<rect x="341.4" y="146" class="st5" width="64.8" height="27"/>
				<rect x="359" y="118" class="st5" width="28.6" height="27"/>
				<rect x="366.6" y="90" class="st5" width="9.5" height="27"/>
				<rect x="369.2" y="62" class="st5" width="1.8" height="27"/>
				<rect x="369.6" y="34" class="st5" width="0.2" height="27"/>
				<rect x="369.7" y="6" class="st5" width="0" height="27"/>
			</g>
			<g class="st6">
				<rect x="0" y="0" class="st7" width="120" height="60"/>
				<text transform="matrix(1 0 0 1 5 17.9999)" class="st7 st8 st9">1</text>
				<text transform="matrix(1 0 0 1 5 35.9999)" class="st7 st8 st9">2</text>
				<text transform="matrix(1 0 0 1 5 53.9999)" class="st7 st8 st9">3</text>
			</g>
			<g transform="translate(0,599.1706875)">
				<g transform="translate(369.70106250000003,0)">
					<line class="st10" x1="0" y1="0" x2="0" y2="6"/>
					<text transform="matrix(1 0 0 1 -3.3369 17.52)" class="st8 st9">0</text>
				</g>
				<g transform="translate(262.5545334492309,0)">
					<line class="st10" x1="0" y1="0" x2="0" y2="6"/>
					<text transform="matrix(1 0 0 1 -18.3516 17.52)" class="st8 st9">20,000</text>
				</g>
				<g transform="translate(155.40800439846183,0)">
					<line class="st10" x1="0" y1="0" x2="0" y2="6"/>
					<text transform="matrix(1 0 0 1 -18.3516 17.52)" class="st8 st9">40,000</text>
				</g>
				<g transform="translate(48.26147534769268,0)">
					<line class="st10" x1="0" y1="0" x2="0" y2="6"/>
					<text transform="matrix(1 0 0 1 -18.3516 17.52)" class="st8 st9">60,000</text>
				</g>
				<path d="M0,6V0h369.7v6"/>
			</g>
			<g transform="translate(0,599.1706875)">
				<g transform="translate(369.70106250000003,0)">
					<line class="st10" x1="0" y1="0" x2="0" y2="6"/>
					<text transform="matrix(1 0 0 1 -3.3369 17.52)" class="st8 st9">0</text>
				</g>
				<g transform="translate(476.84759155076915,0)">
					<line class="st10" x1="0" y1="0" x2="0" y2="6"/>
					<text transform="matrix(1 0 0 1 -18.3516 17.52)" class="st8 st9">20,000</text>
				</g>
				<g transform="translate(583.9941206015383,0)">
					<line class="st10" x1="0" y1="0" x2="0" y2="6"/>
					<text transform="matrix(1 0 0 1 -18.3516 17.52)" class="st8 st9">40,000</text>
				</g>
				<g transform="translate(691.1406496523074,0)">
					<line class="st10" x1="0" y1="0" x2="0" y2="6"/>
					<text transform="matrix(1 0 0 1 -18.3516 17.52)" class="st8 st9">60,000</text>
				</g>
				<path d="M369.7,6V0h369.7v6"/>
			</g>
			<g transform="translate(0,0)">
				<g transform="translate(0,580)">
					<line class="st10" x1="0" y1="0" x2="-6" y2="0"/>
					<text transform="matrix(1 0 0 1 -15.6738 3.84)" class="st8 st9">0</text>
				</g>
				<g transform="translate(0,552)">
					<line class="st10" x1="0" y1="0" x2="-6" y2="0"/>
					<text transform="matrix(1 0 0 1 -15.6738 3.84)" class="st8 st9">5</text>
				</g>
				<g transform="translate(0,524)">
					<line class="st10" x1="0" y1="0" x2="-6" y2="0"/>
					<text transform="matrix(1 0 0 1 -22.3477 3.84)" class="st8 st9">10</text>
				</g>
				<g transform="translate(0,496)">
					<line class="st10" x1="0" y1="0" x2="-6" y2="0"/>
					<text transform="matrix(1 0 0 1 -22.3477 3.84)" class="st8 st9">15</text>
				</g>
				<g transform="translate(0,468)">
					<line class="st10" x1="0" y1="0" x2="-6" y2="0"/>
					<text transform="matrix(1 0 0 1 -22.3477 3.84)" class="st8 st9">20</text>
				</g>
				<g transform="translate(0,440)">
					<line class="st10" x1="0" y1="0" x2="-6" y2="0"/>
					<text transform="matrix(1 0 0 1 -22.3477 3.84)" class="st8 st9">25</text>
				</g>
				<g transform="translate(0,412)">
					<line class="st10" x1="0" y1="0" x2="-6" y2="0"/>
					<text transform="matrix(1 0 0 1 -22.3477 3.84)" class="st8 st9">30</text>
				</g>
				<g transform="translate(0,384)">
					<line class="st10" x1="0" y1="0" x2="-6" y2="0"/>
					<text transform="matrix(1 0 0 1 -22.3477 3.84)" class="st8 st9">35</text>
				</g>
				<g transform="translate(0,356)">
					<line class="st10" x1="0" y1="0" x2="-6" y2="0"/>
					<text transform="matrix(1 0 0 1 -22.3477 3.84)" class="st8 st9">40</text>
				</g>
				<g transform="translate(0,328)">
					<line class="st10" x1="0" y1="0" x2="-6" y2="0"/>
					<text transform="matrix(1 0 0 1 -22.3477 3.84)" class="st8 st9">45</text>
				</g>
				<g transform="translate(0,300)">
					<line class="st10" x1="0" y1="0" x2="-6" y2="0"/>
					<text transform="matrix(1 0 0 1 -22.3477 3.84)" class="st8 st9">50</text>
				</g>
				<g transform="translate(0,272)">
					<line class="st10" x1="0" y1="0" x2="-6" y2="0"/>
					<text transform="matrix(1 0 0 1 -22.3477 3.84)" class="st8 st9">55</text>
				</g>
				<g transform="translate(0,244)">
					<line class="st10" x1="0" y1="0" x2="-6" y2="0"/>
					<text transform="matrix(1 0 0 1 -22.3477 3.84)" class="st8 st9">60</text>
				</g>
				<g transform="translate(0,216)">
					<line class="st10" x1="0" y1="0" x2="-6" y2="0"/>
					<text transform="matrix(1 0 0 1 -22.3477 3.84)" class="st8 st9">65</text>
				</g>
				<g transform="translate(0,188)">
					<line class="st10" x1="0" y1="0" x2="-6" y2="0"/>
					<text transform="matrix(1 0 0 1 -22.3477 3.84)" class="st8 st9">70</text>
				</g>
				<g transform="translate(0,160)">
					<line class="st10" x1="0" y1="0" x2="-6" y2="0"/>
					<text transform="matrix(1 0 0 1 -22.3477 3.84)" class="st8 st9">75</text>
				</g>
				<g transform="translate(0,132)">
					<line class="st10" x1="0" y1="0" x2="-6" y2="0"/>
					<text transform="matrix(1 0 0 1 -22.3477 3.84)" class="st8 st9">80</text>
				</g>
				<g transform="translate(0,104)">
					<line class="st10" x1="0" y1="0" x2="-6" y2="0"/>
					<text transform="matrix(1 0 0 1 -22.3477 3.84)" class="st8 st9">85</text>
				</g>
				<g transform="translate(0,76)">
					<line class="st10" x1="0" y1="0" x2="-6" y2="0"/>
					<text transform="matrix(1 0 0 1 -22.3477 3.84)" class="st8 st9">90</text>
				</g>
				<g transform="translate(0,48)">
					<line class="st10" x1="0" y1="0" x2="-6" y2="0"/>
					<text transform="matrix(1 0 0 1 -22.3477 3.84)" class="st8 st9">95</text>
				</g>
				<g transform="translate(0,20)">
					<line class="st10" x1="0" y1="0" x2="-6" y2="0"/>
					<text transform="matrix(1 0 0 1 -29.0215 3.84)" class="st8 st9">100</text>
				</g>
				<path d="M-6,0h6v599.2h-6"/>
			</g>
			<g>
				<rect x="17" y="1" class="st3" width="51" height="17"/>
				<text transform="matrix(1 0 0 1 72.991 14.6)" class="st11 st12">male</text>
			</g>
			<g transform="translate(722.4043750000001,0)">
				<rect x="-51" y="1" class="st4" width="51" height="17"/>
				<text transform="matrix(1 0 0 1 -109.857 14.6)" class="st11 st12">female</text>
			</g>
		</g>
	</g>
</g>
</svg>
