<svg id="svg-892973281855086592" width="883" class="svg-populationPyramid" height="727.7475903320312" version="1.1" xmlns="http://www.w3.org/2000/svg"><rect class="svgBg" x="0" y="0" width="100%" height="100%" fill="#fff"></rect><g class="svgGroup" transform="translate(16.55625,16.55625)"><g class="svgTitle" style="display: block;"><text x="50%" y="0" dx="-16.55625" dy="20" text-anchor="middle" fill="#000" style="font-size: 20px; font-weight: bold;">人口金字塔</text></g><g class="mainGroup" transform="translate(0,49.489999999999995)"><g transform="translate(84.98875000000001,16.99775)"><g class="rectGroup"><rect fill="#ff6060" class="male" height="27" width="369.70106250000003" y="566" x="0"></rect><rect fill="#ff6060" class="male" height="27" width="289.59671018370926" y="538" x="80.10435231629077"></rect><rect fill="#ff6060" class="male" height="27" width="273.20061257571535" y="510" x="96.50044992428471"></rect><rect fill="#ff6060" class="male" height="27" width="337.902651340958" y="482" x="31.798411159041994"></rect><rect fill="#ff6060" class="male" height="27" width="353.36710987885556" y="454" x="16.333952621144462"></rect><rect fill="#ff6060" class="male" height="27" width="295.65638213417554" y="426" x="74.04468036582449"></rect><rect fill="#ff6060" class="male" height="27" width="236.64221686359286" y="398" x="133.05884563640717"></rect><rect fill="#ff6060" class="male" height="27" width="244.92839368773417" y="370" x="124.77266881226588"></rect><rect fill="#ff6060" class="male" height="27" width="175.23975546046864" y="342" x="194.4613070395314"></rect><rect fill="#ff6060" class="male" height="27" width="138.7810060203635" y="314" x="230.92005647963654"></rect><rect fill="#ff6060" class="male" height="27" width="131.06645592870805" y="286" x="238.63460657129198"></rect><rect fill="#ff6060" class="male" height="27" width="117.10954905455486" y="258" x="252.59151344544517"></rect><rect fill="#ff6060" class="male" height="27" width="94.21876458814859" y="230" x="275.48229791185145"></rect><rect fill="#ff6060" class="male" height="27" width="70.22329940722881" y="202" x="299.4777630927712"></rect><rect fill="#ff6060" class="male" height="27" width="52.59544530126726" y="174" x="317.1056171987328"></rect><rect fill="#ff6060" class="male" height="27" width="28.278058373814474" y="146" x="341.42300412618556"></rect><rect fill="#ff6060" class="male" height="27" width="10.740582365107173" y="118" x="358.96048013489286"></rect><rect fill="#ff6060" class="male" height="27" width="3.060860252719749" y="90" x="366.6402022472803"></rect><rect fill="#ff6060" class="male" height="27" width="0.5323521722622786" y="62" x="369.16871032773776"></rect><rect fill="#ff6060" class="male" height="27" width="0.062086056258465305" y="34" x="369.63897644374157"></rect><rect fill="#ff6060" class="male" height="27" width="0.0036001233760885043" y="6" x="369.69746237662395"></rect><rect fill="#ababab" class="female" height="27" width="344.0539335737626" y="566" x="369.70106250000003"></rect><rect fill="#ababab" class="female" height="27" width="272.50362440424" y="538" x="369.70106250000003"></rect><rect fill="#ababab" class="female" height="27" width="257.4768594375149" y="510" x="369.70106250000003"></rect><rect fill="#ababab" class="female" height="27" width="319.3186216097474" y="482" x="369.70106250000003"></rect><rect fill="#ababab" class="female" height="27" width="339.33145030585" y="454" x="369.70106250000003"></rect><rect fill="#ababab" class="female" height="27" width="280.3762156262454" y="426" x="369.70106250000003"></rect><rect fill="#ababab" class="female" height="27" width="224.02946319638158" y="398" x="369.70106250000003"></rect><rect fill="#ababab" class="female" height="27" width="232.55939837411336" y="370" x="369.70106250000003"></rect><rect fill="#ababab" class="female" height="27" width="166.0626552472702" y="342" x="369.70106250000003"></rect><rect fill="#ababab" class="female" height="27" width="124.85302870905394" y="314" x="369.70106250000003"></rect><rect fill="#ababab" class="female" height="27" width="115.71825137483063" y="286" x="369.70106250000003"></rect><rect fill="#ababab" class="female" height="27" width="106.24435527616163" y="258" x="369.70106250000003"></rect><rect fill="#ababab" class="female" height="27" width="86.21920472921812" y="230" x="369.70106250000003"></rect><rect fill="#ababab" class="female" height="27" width="70.46384336494776" y="202" x="369.70106250000003"></rect><rect fill="#ababab" class="female" height="27" width="56.758730834063954" y="174" x="369.70106250000003"></rect><rect fill="#ababab" class="female" height="27" width="36.56053864270348" y="146" x="369.70106250000003"></rect><rect fill="#ababab" class="female" height="27" width="17.866094413305973" y="118" x="369.70106250000003"></rect><rect fill="#ababab" class="female" height="27" width="6.393647681517507" y="90" x="369.70106250000003"></rect><rect fill="#ababab" class="female" height="27" width="1.2896263383079258" y="62" x="369.70106250000003"></rect><rect fill="#ababab" class="female" height="27" width="0.1722701894078682" y="34" x="369.70106250000003"></rect><rect fill="#ababab" class="female" height="27" width="0.013971907388224736" y="6" x="369.70106250000003"></rect></g><g class="coverGroup"><rect x="0" y="566" width="713.7549960737626" height="27" fill="#fff" opacity="0"></rect><rect x="80.10435231629077" y="538" width="562.1003345879492" height="27" fill="#fff" opacity="0"></rect><rect x="96.50044992428471" y="510" width="530.6774720132303" height="27" fill="#fff" opacity="0"></rect><rect x="31.798411159041994" y="482" width="657.2212729507055" height="27" fill="#fff" opacity="0"></rect><rect x="16.333952621144462" y="454" width="692.6985601847056" height="27" fill="#fff" opacity="0"></rect><rect x="74.04468036582449" y="426" width="576.0325977604209" height="27" fill="#fff" opacity="0"></rect><rect x="133.05884563640717" y="398" width="460.67168005997445" height="27" fill="#fff" opacity="0"></rect><rect x="124.77266881226588" y="370" width="477.48779206184753" height="27" fill="#fff" opacity="0"></rect><rect x="194.4613070395314" y="342" width="341.30241070773883" height="27" fill="#fff" opacity="0"></rect><rect x="230.92005647963654" y="314" width="263.6340347294174" height="27" fill="#fff" opacity="0"></rect><rect x="238.63460657129198" y="286" width="246.78470730353868" height="27" fill="#fff" opacity="0"></rect><rect x="252.59151344544517" y="258" width="223.3539043307165" height="27" fill="#fff" opacity="0"></rect><rect x="275.48229791185145" y="230" width="180.4379693173667" height="27" fill="#fff" opacity="0"></rect><rect x="299.4777630927712" y="202" width="140.68714277217657" height="27" fill="#fff" opacity="0"></rect><rect x="317.1056171987328" y="174" width="109.35417613533122" height="27" fill="#fff" opacity="0"></rect><rect x="341.42300412618556" y="146" width="64.83859701651795" height="27" fill="#fff" opacity="0"></rect><rect x="358.96048013489286" y="118" width="28.606676778413146" height="27" fill="#fff" opacity="0"></rect><rect x="366.6402022472803" y="90" width="9.454507934237256" height="27" fill="#fff" opacity="0"></rect><rect x="369.16871032773776" y="62" width="1.8219785105702044" height="27" fill="#fff" opacity="0"></rect><rect x="369.63897644374157" y="34" width="0.2343562456663335" height="27" fill="#fff" opacity="0"></rect><rect x="369.69746237662395" y="6" width="0.01757203076431324" height="27" fill="#fff" opacity="0"></rect></g><g class="tooltipGroup" display="none"><rect x="0" y="0" width="120" height="60" fill="rgba(255,255,255,.9)"></rect><text x="5" y="3" dy="15">1</text><text x="5" y="21" dy="15">2</text><text x="5" y="39" dy="15">3</text></g><g class="axis" transform="translate(0,599.1706875)"><g class="tick" transform="translate(369.70106250000003,0)" style="opacity: 1;"><line y2="6" x2="0"></line><text dy=".71em" y="9" x="0" style="text-anchor: middle;">0</text></g><g class="tick" transform="translate(262.5545334492309,0)" style="opacity: 1;"><line y2="6" x2="0"></line><text dy=".71em" y="9" x="0" style="text-anchor: middle;">20,000</text></g><g class="tick" transform="translate(155.40800439846183,0)" style="opacity: 1;"><line y2="6" x2="0"></line><text dy=".71em" y="9" x="0" style="text-anchor: middle;">40,000</text></g><g class="tick" transform="translate(48.26147534769268,0)" style="opacity: 1;"><line y2="6" x2="0"></line><text dy=".71em" y="9" x="0" style="text-anchor: middle;">60,000</text></g><path class="domain" d="M0,6V0H369.70106250000003V6"></path></g><g class="axis" transform="translate(0,599.1706875)"><g class="tick" transform="translate(369.70106250000003,0)" style="opacity: 1;"><line y2="6" x2="0"></line><text dy=".71em" y="9" x="0" style="text-anchor: middle;">0</text></g><g class="tick" transform="translate(476.84759155076915,0)" style="opacity: 1;"><line y2="6" x2="0"></line><text dy=".71em" y="9" x="0" style="text-anchor: middle;">20,000</text></g><g class="tick" transform="translate(583.9941206015383,0)" style="opacity: 1;"><line y2="6" x2="0"></line><text dy=".71em" y="9" x="0" style="text-anchor: middle;">40,000</text></g><g class="tick" transform="translate(691.1406496523074,0)" style="opacity: 1;"><line y2="6" x2="0"></line><text dy=".71em" y="9" x="0" style="text-anchor: middle;">60,000</text></g><path class="domain" d="M369.70106250000003,6V0H739.4021250000001V6"></path></g><g class="axis" transform="translate(0,0)"><g class="tick" transform="translate(0,580)" style="opacity: 1;"><line x2="-6" y2="0"></line><text dy=".32em" x="-9" y="0" style="text-anchor: end;">0</text></g><g class="tick" transform="translate(0,552)" style="opacity: 1;"><line x2="-6" y2="0"></line><text dy=".32em" x="-9" y="0" style="text-anchor: end;">5</text></g><g class="tick" transform="translate(0,524)" style="opacity: 1;"><line x2="-6" y2="0"></line><text dy=".32em" x="-9" y="0" style="text-anchor: end;">10</text></g><g class="tick" transform="translate(0,496)" style="opacity: 1;"><line x2="-6" y2="0"></line><text dy=".32em" x="-9" y="0" style="text-anchor: end;">15</text></g><g class="tick" transform="translate(0,468)" style="opacity: 1;"><line x2="-6" y2="0"></line><text dy=".32em" x="-9" y="0" style="text-anchor: end;">20</text></g><g class="tick" transform="translate(0,440)" style="opacity: 1;"><line x2="-6" y2="0"></line><text dy=".32em" x="-9" y="0" style="text-anchor: end;">25</text></g><g class="tick" transform="translate(0,412)" style="opacity: 1;"><line x2="-6" y2="0"></line><text dy=".32em" x="-9" y="0" style="text-anchor: end;">30</text></g><g class="tick" transform="translate(0,384)" style="opacity: 1;"><line x2="-6" y2="0"></line><text dy=".32em" x="-9" y="0" style="text-anchor: end;">35</text></g><g class="tick" transform="translate(0,356)" style="opacity: 1;"><line x2="-6" y2="0"></line><text dy=".32em" x="-9" y="0" style="text-anchor: end;">40</text></g><g class="tick" transform="translate(0,328)" style="opacity: 1;"><line x2="-6" y2="0"></line><text dy=".32em" x="-9" y="0" style="text-anchor: end;">45</text></g><g class="tick" transform="translate(0,300)" style="opacity: 1;"><line x2="-6" y2="0"></line><text dy=".32em" x="-9" y="0" style="text-anchor: end;">50</text></g><g class="tick" transform="translate(0,272)" style="opacity: 1;"><line x2="-6" y2="0"></line><text dy=".32em" x="-9" y="0" style="text-anchor: end;">55</text></g><g class="tick" transform="translate(0,244)" style="opacity: 1;"><line x2="-6" y2="0"></line><text dy=".32em" x="-9" y="0" style="text-anchor: end;">60</text></g><g class="tick" transform="translate(0,216)" style="opacity: 1;"><line x2="-6" y2="0"></line><text dy=".32em" x="-9" y="0" style="text-anchor: end;">65</text></g><g class="tick" transform="translate(0,188)" style="opacity: 1;"><line x2="-6" y2="0"></line><text dy=".32em" x="-9" y="0" style="text-anchor: end;">70</text></g><g class="tick" transform="translate(0,160)" style="opacity: 1;"><line x2="-6" y2="0"></line><text dy=".32em" x="-9" y="0" style="text-anchor: end;">75</text></g><g class="tick" transform="translate(0,132)" style="opacity: 1;"><line x2="-6" y2="0"></line><text dy=".32em" x="-9" y="0" style="text-anchor: end;">80</text></g><g class="tick" transform="translate(0,104)" style="opacity: 1;"><line x2="-6" y2="0"></line><text dy=".32em" x="-9" y="0" style="text-anchor: end;">85</text></g><g class="tick" transform="translate(0,76)" style="opacity: 1;"><line x2="-6" y2="0"></line><text dy=".32em" x="-9" y="0" style="text-anchor: end;">90</text></g><g class="tick" transform="translate(0,48)" style="opacity: 1;"><line x2="-6" y2="0"></line><text dy=".32em" x="-9" y="0" style="text-anchor: end;">95</text></g><g class="tick" transform="translate(0,20)" style="opacity: 1;"><line x2="-6" y2="0"></line><text dy=".32em" x="-9" y="0" style="text-anchor: end;">100</text></g><path class="domain" d="M-6,0H0V599.1706875H-6"></path></g><g><rect x="16.99775" y="1" width="50.99325" height="17" fill="#ff6060"></rect><text x="72.991" y="14.6" text-anchor="start" style="font-size: 17px; font-weight: bold;">male</text></g><g transform="translate(722.4043750000001,0)"><rect x="-50.99325" y="1" width="50.99325" height="17" fill="#ababab"></rect><text x="-55.99325" y="14.6" text-anchor="end" style="font-size: 17px; font-weight: bold;">female</text></g></g></g></g></svg>