<svg id="svg-892973281855086592" width="883" class="svg-populationPyramid" height="727.7475903320312" version="1.1" xmlns="http://www.w3.org/2000/svg"><rect class="svgBg" x="0" y="0" width="100%" height="100%" fill="#fff"></rect><g class="svgGroup" transform="translate(16.55625,16.55625)"><g class="svgTitle" style="display: block;"><text x="50%" y="0" dx="-16.55625" dy="20" text-anchor="middle" fill="#000" style="font-size: 20px; font-weight: bold;">人口金字塔</text></g><g class="mainGroup" transform="translate(0,49.489999999999995)"><g transform="translate(84.98875000000001,16.99775)"><g class="rectGroup"><rect fill="#ff6060" class="male" height="27" width="232.87333770423209" y="566" x="136.82772479576795"></rect><rect fill="#ff6060" class="male" height="27" width="289.454741032717" y="538" x="80.24632146728305"></rect><rect fill="#ff6060" class="male" height="27" width="365.15537100502115" y="510" x="4.545691494978864"></rect><rect fill="#ff6060" class="male" height="27" width="287.45699399856545" y="482" x="82.24406850143458"></rect><rect fill="#ff6060" class="male" height="27" width="270.6408819966925" y="454" x="99.06018050330755"></rect><rect fill="#ff6060" class="male" height="27" width="333.94358709253214" y="426" x="35.75747540746791"></rect><rect fill="#ff6060" class="male" height="27" width="348.6023037319678" y="398" x="21.098758768032205"></rect><rect fill="#ff6060" class="male" height="27" width="291.02229475272975" y="370" x="78.67876774727026"></rect><rect fill="#ff6060" class="male" height="27" width="231.9770569887224" y="342" x="137.72400551127762"></rect><rect fill="#ff6060" class="male" height="27" width="238.31638138001117" y="314" x="131.38468111998887"></rect><rect fill="#ff6060" class="male" height="27" width="168.04111590619274" y="286" x="201.6599465938073"></rect><rect fill="#ff6060" class="male" height="27" width="129.34032534570017" y="258" x="240.36073715429987"></rect><rect fill="#ff6060" class="male" height="27" width="116.52720766916394" y="230" x="253.1738548308361"></rect><rect fill="#ff6060" class="male" height="27" width="95.62238411871363" y="202" x="274.0786783812864"></rect><rect fill="#ff6060" class="male" height="27" width="65.74511022555191" y="174" x="303.9559522744481"></rect><rect fill="#ff6060" class="male" height="27" width="37.86006532029569" y="146" x="331.84099717970435"></rect><rect fill="#ff6060" class="male" height="27" width="19.84412648611226" y="118" x="349.8569360138878"></rect><rect fill="#ff6060" class="male" height="27" width="6.634352359030061" y="90" x="363.06671014097"></rect><rect fill="#ff6060" class="male" height="27" width="1.2647522715888044" y="62" x="368.43631022841123"></rect><rect fill="#ff6060" class="male" height="27" width="0.15063194786603162" y="34" x="369.550430552134"></rect><rect fill="#ff6060" class="male" height="27" width="0.010532503805677607" y="6" x="369.69052999619436"></rect><rect fill="#ababab" class="female" height="27" width="205.128815471826" y="566" x="369.70106250000003"></rect><rect fill="#ababab" class="female" height="27" width="259.95730158504034" y="538" x="369.70106250000003"></rect><rect fill="#ababab" class="female" height="27" width="340.55774233083616" y="510" x="369.70106250000003"></rect><rect fill="#ababab" class="female" height="27" width="270.9708933061688" y="482" x="369.70106250000003"></rect><rect fill="#ababab" class="female" height="27" width="255.57608001215442" y="454" x="369.70106250000003"></rect><rect fill="#ababab" class="female" height="27" width="316.3603059426557" y="426" x="369.70106250000003"></rect><rect fill="#ababab" class="female" height="27" width="335.7511490376186" y="398" x="369.70106250000003"></rect><rect fill="#ababab" class="female" height="27" width="276.91216834203397" y="370" x="369.70106250000003"></rect><rect fill="#ababab" class="female" height="27" width="220.61470331553357" y="342" x="369.70106250000003"></rect><rect fill="#ababab" class="female" height="27" width="227.82620045329566" y="314" x="369.70106250000003"></rect><rect fill="#ababab" class="female" height="27" width="161.013910798398" y="286" x="369.70106250000003"></rect><rect fill="#ababab" class="female" height="27" width="118.9262184546107" y="258" x="369.70106250000003"></rect><rect fill="#ababab" class="female" height="27" width="106.6509763539093" y="230" x="369.70106250000003"></rect><rect fill="#ababab" class="female" height="27" width="92.41013117777158" y="202" x="369.70106250000003"></rect><rect fill="#ababab" class="female" height="27" width="67.66196163027018" y="174" x="369.70106250000003"></rect><rect fill="#ababab" class="female" height="27" width="45.89187628447041" y="146" x="369.70106250000003"></rect><rect fill="#ababab" class="female" height="27" width="27.5218181717741" y="118" x="369.70106250000003"></rect><rect fill="#ababab" class="female" height="27" width="11.052646630967558" y="90" x="369.70106250000003"></rect><rect fill="#ababab" class="female" height="27" width="2.7677234212162034" y="62" x="369.70106250000003"></rect><rect fill="#ababab" class="female" height="27" width="0.4417437099705239" y="34" x="369.70106250000003"></rect><rect fill="#ababab" class="female" height="27" width="0.038910262024785425" y="6" x="369.70106250000003"></rect></g><g class="coverGroup"><rect x="136.82772479576795" y="566" width="438.0021531760581" height="27" fill="#fff" opacity="0"></rect><rect x="80.24632146728305" y="538" width="549.4120426177574" height="27" fill="#fff" opacity="0"></rect><rect x="4.545691494978864" y="510" width="705.7131133358573" height="27" fill="#fff" opacity="0"></rect><rect x="82.24406850143458" y="482" width="558.4278873047342" height="27" fill="#fff" opacity="0"></rect><rect x="99.06018050330755" y="454" width="526.2169620088468" height="27" fill="#fff" opacity="0"></rect><rect x="35.75747540746791" y="426" width="650.3038930351879" height="27" fill="#fff" opacity="0"></rect><rect x="21.098758768032205" y="398" width="684.3534527695864" height="27" fill="#fff" opacity="0"></rect><rect x="78.67876774727026" y="370" width="567.9344630947637" height="27" fill="#fff" opacity="0"></rect><rect x="137.72400551127762" y="342" width="452.591760304256" height="27" fill="#fff" opacity="0"></rect><rect x="131.38468111998887" y="314" width="466.14258183330685" height="27" fill="#fff" opacity="0"></rect><rect x="201.6599465938073" y="286" width="329.0550267045908" height="27" fill="#fff" opacity="0"></rect><rect x="240.36073715429987" y="258" width="248.26654380031087" height="27" fill="#fff" opacity="0"></rect><rect x="253.1738548308361" y="230" width="223.17818402307324" height="27" fill="#fff" opacity="0"></rect><rect x="274.0786783812864" y="202" width="188.0325152964852" height="27" fill="#fff" opacity="0"></rect><rect x="303.9559522744481" y="174" width="133.4070718558221" height="27" fill="#fff" opacity="0"></rect><rect x="331.84099717970435" y="146" width="83.7519416047661" height="27" fill="#fff" opacity="0"></rect><rect x="349.8569360138878" y="118" width="47.36594465788636" height="27" fill="#fff" opacity="0"></rect><rect x="363.06671014097" y="90" width="17.68699898999762" height="27" fill="#fff" opacity="0"></rect><rect x="368.43631022841123" y="62" width="4.032475692805008" height="27" fill="#fff" opacity="0"></rect><rect x="369.550430552134" y="34" width="0.5923756578365555" height="27" fill="#fff" opacity="0"></rect><rect x="369.69052999619436" y="6" width="0.04944276583046303" height="27" fill="#fff" opacity="0"></rect></g><g class="tooltipGroup" display="none" transform="translate(29.455001831054688,269.95599365234375)"><rect x="0" y="0" width="122" height="60" fill="rgba(255,255,255,.9)"></rect><text x="5" y="3" dy="15" style="font-weight: bold;">45</text><text x="5" y="21" dy="15" fill="#ff6060">male: 44484.2</text><text x="5" y="39" dy="15" fill="#ababab">female: 42526.1</text></g><g class="axis" transform="translate(0,599.1706875)"><g class="tick" transform="translate(369.70106250000003,0)" style="opacity: 1;"><line y2="6" x2="0"></line><text dy=".71em" y="9" x="0" style="text-anchor: middle;">0</text></g><g class="tick" transform="translate(262.5545334492309,0)" style="opacity: 1;"><line y2="6" x2="0"></line><text dy=".71em" y="9" x="0" style="text-anchor: middle;">20,000</text></g><g class="tick" transform="translate(155.40800439846183,0)" style="opacity: 1;"><line y2="6" x2="0"></line><text dy=".71em" y="9" x="0" style="text-anchor: middle;">40,000</text></g><g class="tick" transform="translate(48.26147534769268,0)" style="opacity: 1;"><line y2="6" x2="0"></line><text dy=".71em" y="9" x="0" style="text-anchor: middle;">60,000</text></g><path class="domain" d="M0,6V0H369.70106250000003V6"></path></g><g class="axis" transform="translate(0,599.1706875)"><g class="tick" transform="translate(369.70106250000003,0)" style="opacity: 1;"><line y2="6" x2="0"></line><text dy=".71em" y="9" x="0" style="text-anchor: middle;">0</text></g><g class="tick" transform="translate(476.84759155076915,0)" style="opacity: 1;"><line y2="6" x2="0"></line><text dy=".71em" y="9" x="0" style="text-anchor: middle;">20,000</text></g><g class="tick" transform="translate(583.9941206015383,0)" style="opacity: 1;"><line y2="6" x2="0"></line><text dy=".71em" y="9" x="0" style="text-anchor: middle;">40,000</text></g><g class="tick" transform="translate(691.1406496523074,0)" style="opacity: 1;"><line y2="6" x2="0"></line><text dy=".71em" y="9" x="0" style="text-anchor: middle;">60,000</text></g><path class="domain" d="M369.70106250000003,6V0H739.4021250000001V6"></path></g><g class="axis" transform="translate(0,0)"><g class="tick" transform="translate(0,580)" style="opacity: 1;"><line x2="-6" y2="0"></line><text dy=".32em" x="-9" y="0" style="text-anchor: end;">0</text></g><g class="tick" transform="translate(0,552)" style="opacity: 1;"><line x2="-6" y2="0"></line><text dy=".32em" x="-9" y="0" style="text-anchor: end;">5</text></g><g class="tick" transform="translate(0,524)" style="opacity: 1;"><line x2="-6" y2="0"></line><text dy=".32em" x="-9" y="0" style="text-anchor: end;">10</text></g><g class="tick" transform="translate(0,496)" style="opacity: 1;"><line x2="-6" y2="0"></line><text dy=".32em" x="-9" y="0" style="text-anchor: end;">15</text></g><g class="tick" transform="translate(0,468)" style="opacity: 1;"><line x2="-6" y2="0"></line><text dy=".32em" x="-9" y="0" style="text-anchor: end;">20</text></g><g class="tick" transform="translate(0,440)" style="opacity: 1;"><line x2="-6" y2="0"></line><text dy=".32em" x="-9" y="0" style="text-anchor: end;">25</text></g><g class="tick" transform="translate(0,412)" style="opacity: 1;"><line x2="-6" y2="0"></line><text dy=".32em" x="-9" y="0" style="text-anchor: end;">30</text></g><g class="tick" transform="translate(0,384)" style="opacity: 1;"><line x2="-6" y2="0"></line><text dy=".32em" x="-9" y="0" style="text-anchor: end;">35</text></g><g class="tick" transform="translate(0,356)" style="opacity: 1;"><line x2="-6" y2="0"></line><text dy=".32em" x="-9" y="0" style="text-anchor: end;">40</text></g><g class="tick" transform="translate(0,328)" style="opacity: 1;"><line x2="-6" y2="0"></line><text dy=".32em" x="-9" y="0" style="text-anchor: end;">45</text></g><g class="tick" transform="translate(0,300)" style="opacity: 1;"><line x2="-6" y2="0"></line><text dy=".32em" x="-9" y="0" style="text-anchor: end;">50</text></g><g class="tick" transform="translate(0,272)" style="opacity: 1;"><line x2="-6" y2="0"></line><text dy=".32em" x="-9" y="0" style="text-anchor: end;">55</text></g><g class="tick" transform="translate(0,244)" style="opacity: 1;"><line x2="-6" y2="0"></line><text dy=".32em" x="-9" y="0" style="text-anchor: end;">60</text></g><g class="tick" transform="translate(0,216)" style="opacity: 1;"><line x2="-6" y2="0"></line><text dy=".32em" x="-9" y="0" style="text-anchor: end;">65</text></g><g class="tick" transform="translate(0,188)" style="opacity: 1;"><line x2="-6" y2="0"></line><text dy=".32em" x="-9" y="0" style="text-anchor: end;">70</text></g><g class="tick" transform="translate(0,160)" style="opacity: 1;"><line x2="-6" y2="0"></line><text dy=".32em" x="-9" y="0" style="text-anchor: end;">75</text></g><g class="tick" transform="translate(0,132)" style="opacity: 1;"><line x2="-6" y2="0"></line><text dy=".32em" x="-9" y="0" style="text-anchor: end;">80</text></g><g class="tick" transform="translate(0,104)" style="opacity: 1;"><line x2="-6" y2="0"></line><text dy=".32em" x="-9" y="0" style="text-anchor: end;">85</text></g><g class="tick" transform="translate(0,76)" style="opacity: 1;"><line x2="-6" y2="0"></line><text dy=".32em" x="-9" y="0" style="text-anchor: end;">90</text></g><g class="tick" transform="translate(0,48)" style="opacity: 1;"><line x2="-6" y2="0"></line><text dy=".32em" x="-9" y="0" style="text-anchor: end;">95</text></g><g class="tick" transform="translate(0,20)" style="opacity: 1;"><line x2="-6" y2="0"></line><text dy=".32em" x="-9" y="0" style="text-anchor: end;">100</text></g><path class="domain" d="M-6,0H0V599.1706875H-6"></path></g><g><rect x="16.99775" y="1" width="50.99325" height="17" fill="#ff6060"></rect><text x="72.991" y="14.6" text-anchor="start" style="font-size: 17px; font-weight: bold;">male</text></g><g transform="translate(722.4043750000001,0)"><rect x="-50.99325" y="1" width="50.99325" height="17" fill="#ababab"></rect><text x="-55.99325" y="14.6" text-anchor="end" style="font-size: 17px; font-weight: bold;">female</text></g></g></g></g></svg>