<svg id="svg-892973281855086592" width="883" class="svg-populationPyramid" height="727.7475903320312" version="1.1" xmlns="http://www.w3.org/2000/svg"><rect class="svgBg" x="0" y="0" width="100%" height="100%" fill="#fff"></rect><g class="svgGroup" transform="translate(16.55625,16.55625)"><g class="svgTitle" style="display: block;"><text x="50%" y="0" dx="-16.55625" dy="20" text-anchor="middle" fill="#000" style="font-size: 20px; font-weight: bold;">人口金字塔</text></g><g class="mainGroup" transform="translate(0,49.489999999999995)"><g transform="translate(84.98875000000001,16.99775)"><g class="rectGroup"><rect fill="#ff6060" class="male" height="27" width="238.2681654419383" y="566" x="131.43289705806174"></rect><rect fill="#ff6060" class="male" height="27" width="226.80670122937758" y="538" x="142.89436127062245"></rect><rect fill="#ff6060" class="male" height="27" width="231.00148784171517" y="510" x="138.69957465828486"></rect><rect fill="#ff6060" class="male" height="27" width="287.3712767753248" y="482" x="82.3297857246752"></rect><rect fill="#ff6060" class="male" height="27" width="361.3672054704312" y="454" x="8.333857029568842"></rect><rect fill="#ff6060" class="male" height="27" width="282.9054094444887" y="426" x="86.79565305551131"></rect><rect fill="#ff6060" class="male" height="27" width="265.8980408882602" y="398" x="103.80302161173985"></rect><rect fill="#ff6060" class="male" height="27" width="328.23910588586915" y="370" x="41.46195661413088"></rect><rect fill="#ff6060" class="male" height="27" width="341.8960024786802" y="342" x="27.805060021319846"></rect><rect fill="#ff6060" class="male" height="27" width="284.0074114957759" y="314" x="85.69365100422414"></rect><rect fill="#ff6060" class="male" height="27" width="224.3964400583805" y="286" x="145.30462244161953"></rect><rect fill="#ff6060" class="male" height="27" width="226.46543953435085" y="258" x="143.23562296564918"></rect><rect fill="#ff6060" class="male" height="27" width="153.9245607037539" y="230" x="215.77650179624612"></rect><rect fill="#ff6060" class="male" height="27" width="110.54253828903325" y="202" x="259.1585242109668"></rect><rect fill="#ff6060" class="male" height="27" width="87.42299598310353" y="174" x="282.2780665168965"></rect><rect fill="#ff6060" class="male" height="27" width="56.79998224774846" y="146" x="312.9010802522516"></rect><rect fill="#ff6060" class="male" height="27" width="28.12992829740176" y="118" x="341.5711342025983"></rect><rect fill="#ff6060" class="male" height="27" width="10.589398612616549" y="90" x="359.1116638873835"></rect><rect fill="#ff6060" class="male" height="27" width="2.9796271117199353" y="62" x="366.7214353882801"></rect><rect fill="#ff6060" class="male" height="27" width="0.4489171700904535" y="34" x="369.2521453299096"></rect><rect fill="#ff6060" class="male" height="27" width="0.03691733658445173" y="6" x="369.6641451634156"></rect><rect fill="#ababab" class="female" height="27" width="204.14788899836617" y="566" x="369.70106250000003"></rect><rect fill="#ababab" class="female" height="27" width="196.2951198842353" y="538" x="369.70106250000003"></rect><rect fill="#ababab" class="female" height="27" width="203.66197948912088" y="510" x="369.70106250000003"></rect><rect fill="#ababab" class="female" height="27" width="258.2884943950746" y="482" x="369.70106250000003"></rect><rect fill="#ababab" class="female" height="27" width="337.45799324539735" y="454" x="369.70106250000003"></rect><rect fill="#ababab" class="female" height="27" width="267.5336326542201" y="426" x="369.70106250000003"></rect><rect fill="#ababab" class="female" height="27" width="252.19667848589313" y="398" x="369.70106250000003"></rect><rect fill="#ababab" class="female" height="27" width="312.441957375269" y="370" x="369.70106250000003"></rect><rect fill="#ababab" class="female" height="27" width="331.1250976458516" y="342" x="369.70106250000003"></rect><rect fill="#ababab" class="female" height="27" width="271.9127112965251" y="314" x="369.70106250000003"></rect><rect fill="#ababab" class="female" height="27" width="215.03611928050532" y="286" x="369.70106250000003"></rect><rect fill="#ababab" class="female" height="27" width="219.1837614200606" y="258" x="369.70106250000003"></rect><rect fill="#ababab" class="female" height="27" width="150.89392112955295" y="230" x="369.70106250000003"></rect><rect fill="#ababab" class="female" height="27" width="106.01131157547621" y="202" x="369.70106250000003"></rect><rect fill="#ababab" class="female" height="27" width="86.69279238762255" y="174" x="369.70106250000003"></rect><rect fill="#ababab" class="female" height="27" width="63.86415290806565" y="146" x="369.70106250000003"></rect><rect fill="#ababab" class="female" height="27" width="35.92510615216787" y="118" x="369.70106250000003"></rect><rect fill="#ababab" class="female" height="27" width="16.007905733243035" y="90" x="369.70106250000003"></rect><rect fill="#ababab" class="female" height="27" width="5.348829732784736" y="62" x="369.70106250000003"></rect><rect fill="#ababab" class="female" height="27" width="1.0100006841176992" y="34" x="369.70106250000003"></rect><rect fill="#ababab" class="female" height="27" width="0.11936123336255378" y="6" x="369.70106250000003"></rect></g><g class="coverGroup"><rect x="131.43289705806174" y="566" width="442.4160544403045" height="27" fill="#fff" opacity="0"></rect><rect x="142.89436127062245" y="538" width="423.1018211136129" height="27" fill="#fff" opacity="0"></rect><rect x="138.69957465828486" y="510" width="434.66346733083606" height="27" fill="#fff" opacity="0"></rect><rect x="82.3297857246752" y="482" width="545.6597711703994" height="27" fill="#fff" opacity="0"></rect><rect x="8.333857029568842" y="454" width="698.8251987158285" height="27" fill="#fff" opacity="0"></rect><rect x="86.79565305551131" y="426" width="550.4390420987088" height="27" fill="#fff" opacity="0"></rect><rect x="103.80302161173985" y="398" width="518.0947193741533" height="27" fill="#fff" opacity="0"></rect><rect x="41.46195661413088" y="370" width="640.6810632611382" height="27" fill="#fff" opacity="0"></rect><rect x="27.805060021319846" y="342" width="673.0211001245318" height="27" fill="#fff" opacity="0"></rect><rect x="85.69365100422414" y="314" width="555.9201227923011" height="27" fill="#fff" opacity="0"></rect><rect x="145.30462244161953" y="286" width="439.4325593388858" height="27" fill="#fff" opacity="0"></rect><rect x="143.23562296564918" y="258" width="445.6492009544114" height="27" fill="#fff" opacity="0"></rect><rect x="215.77650179624612" y="230" width="304.81848183330686" height="27" fill="#fff" opacity="0"></rect><rect x="259.1585242109668" y="202" width="216.55384986450946" height="27" fill="#fff" opacity="0"></rect><rect x="282.2780665168965" y="174" width="174.11578837072608" height="27" fill="#fff" opacity="0"></rect><rect x="312.9010802522516" y="146" width="120.66413515581411" height="27" fill="#fff" opacity="0"></rect><rect x="341.5711342025983" y="118" width="64.05503444956963" height="27" fill="#fff" opacity="0"></rect><rect x="359.1116638873835" y="90" width="26.597304345859584" height="27" fill="#fff" opacity="0"></rect><rect x="366.7214353882801" y="62" width="8.328456844504672" height="27" fill="#fff" opacity="0"></rect><rect x="369.2521453299096" y="34" width="1.4589178542081527" height="27" fill="#fff" opacity="0"></rect><rect x="369.6641451634156" y="6" width="0.1562785699470055" height="27" fill="#fff" opacity="0"></rect></g><g class="tooltipGroup" display="none" transform="translate(91.45500183105469,191.95599365234375)"><rect x="0" y="0" width="122" height="60" fill="rgba(255,255,255,.9)"></rect><text x="5" y="3" dy="15" style="font-weight: bold;">60</text><text x="5" y="21" dy="15" fill="#ff6060">male: 28731.6</text><text x="5" y="39" dy="15" fill="#ababab">female: 28165.9</text></g><g class="axis" transform="translate(0,599.1706875)"><g class="tick" transform="translate(369.70106250000003,0)" style="opacity: 1;"><line y2="6" x2="0"></line><text dy=".71em" y="9" x="0" style="text-anchor: middle;">0</text></g><g class="tick" transform="translate(262.5545334492309,0)" style="opacity: 1;"><line y2="6" x2="0"></line><text dy=".71em" y="9" x="0" style="text-anchor: middle;">20,000</text></g><g class="tick" transform="translate(155.40800439846183,0)" style="opacity: 1;"><line y2="6" x2="0"></line><text dy=".71em" y="9" x="0" style="text-anchor: middle;">40,000</text></g><g class="tick" transform="translate(48.26147534769268,0)" style="opacity: 1;"><line y2="6" x2="0"></line><text dy=".71em" y="9" x="0" style="text-anchor: middle;">60,000</text></g><path class="domain" d="M0,6V0H369.70106250000003V6"></path></g><g class="axis" transform="translate(0,599.1706875)"><g class="tick" transform="translate(369.70106250000003,0)" style="opacity: 1;"><line y2="6" x2="0"></line><text dy=".71em" y="9" x="0" style="text-anchor: middle;">0</text></g><g class="tick" transform="translate(476.84759155076915,0)" style="opacity: 1;"><line y2="6" x2="0"></line><text dy=".71em" y="9" x="0" style="text-anchor: middle;">20,000</text></g><g class="tick" transform="translate(583.9941206015383,0)" style="opacity: 1;"><line y2="6" x2="0"></line><text dy=".71em" y="9" x="0" style="text-anchor: middle;">40,000</text></g><g class="tick" transform="translate(691.1406496523074,0)" style="opacity: 1;"><line y2="6" x2="0"></line><text dy=".71em" y="9" x="0" style="text-anchor: middle;">60,000</text></g><path class="domain" d="M369.70106250000003,6V0H739.4021250000001V6"></path></g><g class="axis" transform="translate(0,0)"><g class="tick" transform="translate(0,580)" style="opacity: 1;"><line x2="-6" y2="0"></line><text dy=".32em" x="-9" y="0" style="text-anchor: end;">0</text></g><g class="tick" transform="translate(0,552)" style="opacity: 1;"><line x2="-6" y2="0"></line><text dy=".32em" x="-9" y="0" style="text-anchor: end;">5</text></g><g class="tick" transform="translate(0,524)" style="opacity: 1;"><line x2="-6" y2="0"></line><text dy=".32em" x="-9" y="0" style="text-anchor: end;">10</text></g><g class="tick" transform="translate(0,496)" style="opacity: 1;"><line x2="-6" y2="0"></line><text dy=".32em" x="-9" y="0" style="text-anchor: end;">15</text></g><g class="tick" transform="translate(0,468)" style="opacity: 1;"><line x2="-6" y2="0"></line><text dy=".32em" x="-9" y="0" style="text-anchor: end;">20</text></g><g class="tick" transform="translate(0,440)" style="opacity: 1;"><line x2="-6" y2="0"></line><text dy=".32em" x="-9" y="0" style="text-anchor: end;">25</text></g><g class="tick" transform="translate(0,412)" style="opacity: 1;"><line x2="-6" y2="0"></line><text dy=".32em" x="-9" y="0" style="text-anchor: end;">30</text></g><g class="tick" transform="translate(0,384)" style="opacity: 1;"><line x2="-6" y2="0"></line><text dy=".32em" x="-9" y="0" style="text-anchor: end;">35</text></g><g class="tick" transform="translate(0,356)" style="opacity: 1;"><line x2="-6" y2="0"></line><text dy=".32em" x="-9" y="0" style="text-anchor: end;">40</text></g><g class="tick" transform="translate(0,328)" style="opacity: 1;"><line x2="-6" y2="0"></line><text dy=".32em" x="-9" y="0" style="text-anchor: end;">45</text></g><g class="tick" transform="translate(0,300)" style="opacity: 1;"><line x2="-6" y2="0"></line><text dy=".32em" x="-9" y="0" style="text-anchor: end;">50</text></g><g class="tick" transform="translate(0,272)" style="opacity: 1;"><line x2="-6" y2="0"></line><text dy=".32em" x="-9" y="0" style="text-anchor: end;">55</text></g><g class="tick" transform="translate(0,244)" style="opacity: 1;"><line x2="-6" y2="0"></line><text dy=".32em" x="-9" y="0" style="text-anchor: end;">60</text></g><g class="tick" transform="translate(0,216)" style="opacity: 1;"><line x2="-6" y2="0"></line><text dy=".32em" x="-9" y="0" style="text-anchor: end;">65</text></g><g class="tick" transform="translate(0,188)" style="opacity: 1;"><line x2="-6" y2="0"></line><text dy=".32em" x="-9" y="0" style="text-anchor: end;">70</text></g><g class="tick" transform="translate(0,160)" style="opacity: 1;"><line x2="-6" y2="0"></line><text dy=".32em" x="-9" y="0" style="text-anchor: end;">75</text></g><g class="tick" transform="translate(0,132)" style="opacity: 1;"><line x2="-6" y2="0"></line><text dy=".32em" x="-9" y="0" style="text-anchor: end;">80</text></g><g class="tick" transform="translate(0,104)" style="opacity: 1;"><line x2="-6" y2="0"></line><text dy=".32em" x="-9" y="0" style="text-anchor: end;">85</text></g><g class="tick" transform="translate(0,76)" style="opacity: 1;"><line x2="-6" y2="0"></line><text dy=".32em" x="-9" y="0" style="text-anchor: end;">90</text></g><g class="tick" transform="translate(0,48)" style="opacity: 1;"><line x2="-6" y2="0"></line><text dy=".32em" x="-9" y="0" style="text-anchor: end;">95</text></g><g class="tick" transform="translate(0,20)" style="opacity: 1;"><line x2="-6" y2="0"></line><text dy=".32em" x="-9" y="0" style="text-anchor: end;">100</text></g><path class="domain" d="M-6,0H0V599.1706875H-6"></path></g><g><rect x="16.99775" y="1" width="50.99325" height="17" fill="#ff6060"></rect><text x="72.991" y="14.6" text-anchor="start" style="font-size: 17px; font-weight: bold;">male</text></g><g transform="translate(722.4043750000001,0)"><rect x="-50.99325" y="1" width="50.99325" height="17" fill="#ababab"></rect><text x="-55.99325" y="14.6" text-anchor="end" style="font-size: 17px; font-weight: bold;">female</text></g></g></g></g></svg>