<?xml version="1.0" encoding="utf-8"?>
<!-- Generator: Adobe Illustrator 21.1.0, SVG Export Plug-In . SVG Version: 6.00 Build 0)  -->
<svg version="1.1" id="svg-892973281855086592" xmlns="http://www.w3.org/2000/svg" xmlns:xlink="http://www.w3.org/1999/xlink"
	 x="0px" y="0px" viewBox="0 0 883 727.7" style="enable-background:new 0 0 883 727.7;" xml:space="preserve">
<style type="text/css">
	.st0{fill:#FFFFFF;}
	.st1{font-family:'KozGoPr6N-Regular-83pv-RKSJ-H';}
	.st2{font-size:20px;}
	.st3{fill:#FF6060;}
	.st4{fill:#ABABAB;}
	.st5{fill:#FFFFFF;fill-opacity:0;}
	.st6{display:none;}
	.st7{display:inline;}
	.st8{font-family:'Arial-BoldMT';}
	.st9{font-size:12px;}
	.st10{display:inline;fill:#FF6060;}
	.st11{font-family:'ArialMT';}
	.st12{display:inline;fill:#ABABAB;}
	.st13{fill:none;}
	.st14{font-size:17px;}
</style>
<rect class="st0" width="883" height="727.7"/>
<g transform="translate(16.55625,16.55625)">
	<g>
		<text transform="matrix(1 0 0 1 431.7219 20)" class="st1 st2">2010</text>
	</g>
	<g transform="translate(0,49.489999999999995)">
		<g transform="translate(84.98875000000001,16.99775)">
			<g>
				<rect x="131.4" y="566" class="st3" width="238.3" height="27"/>
				<rect x="142.9" y="538" class="st3" width="226.8" height="27"/>
				<rect x="138.7" y="510" class="st3" width="231" height="27"/>
				<rect x="82.3" y="482" class="st3" width="287.4" height="27"/>
				<rect x="8.3" y="454" class="st3" width="361.4" height="27"/>
				<rect x="86.8" y="426" class="st3" width="282.9" height="27"/>
				<rect x="103.8" y="398" class="st3" width="265.9" height="27"/>
				<rect x="41.5" y="370" class="st3" width="328.2" height="27"/>
				<rect x="27.8" y="342" class="st3" width="341.9" height="27"/>
				<rect x="85.7" y="314" class="st3" width="284" height="27"/>
				<rect x="145.3" y="286" class="st3" width="224.4" height="27"/>
				<rect x="143.2" y="258" class="st3" width="226.5" height="27"/>
				<rect x="215.8" y="230" class="st3" width="153.9" height="27"/>
				<rect x="259.2" y="202" class="st3" width="110.5" height="27"/>
				<rect x="282.3" y="174" class="st3" width="87.4" height="27"/>
				<rect x="312.9" y="146" class="st3" width="56.8" height="27"/>
				<rect x="341.6" y="118" class="st3" width="28.1" height="27"/>
				<rect x="359.1" y="90" class="st3" width="10.6" height="27"/>
				<rect x="366.7" y="62" class="st3" width="3" height="27"/>
				<rect x="369.3" y="34" class="st3" width="0.4" height="27"/>
				<rect x="369.7" y="6" class="st3" width="0" height="27"/>
				<rect x="369.7" y="566" class="st4" width="204.1" height="27"/>
				<rect x="369.7" y="538" class="st4" width="196.3" height="27"/>
				<rect x="369.7" y="510" class="st4" width="203.7" height="27"/>
				<rect x="369.7" y="482" class="st4" width="258.3" height="27"/>
				<rect x="369.7" y="454" class="st4" width="337.5" height="27"/>
				<rect x="369.7" y="426" class="st4" width="267.5" height="27"/>
				<rect x="369.7" y="398" class="st4" width="252.2" height="27"/>
				<rect x="369.7" y="370" class="st4" width="312.4" height="27"/>
				<rect x="369.7" y="342" class="st4" width="331.1" height="27"/>
				<rect x="369.7" y="314" class="st4" width="271.9" height="27"/>
				<rect x="369.7" y="286" class="st4" width="215" height="27"/>
				<rect x="369.7" y="258" class="st4" width="219.2" height="27"/>
				<rect x="369.7" y="230" class="st4" width="150.9" height="27"/>
				<rect x="369.7" y="202" class="st4" width="106" height="27"/>
				<rect x="369.7" y="174" class="st4" width="86.7" height="27"/>
				<rect x="369.7" y="146" class="st4" width="63.9" height="27"/>
				<rect x="369.7" y="118" class="st4" width="35.9" height="27"/>
				<rect x="369.7" y="90" class="st4" width="16" height="27"/>
				<rect x="369.7" y="62" class="st4" width="5.3" height="27"/>
				<rect x="369.7" y="34" class="st4" width="1" height="27"/>
				<rect x="369.7" y="6" class="st4" width="0.1" height="27"/>
			</g>
			<g>
				<rect x="131.4" y="566" class="st5" width="442.4" height="27"/>
				<rect x="142.9" y="538" class="st5" width="423.1" height="27"/>
				<rect x="138.7" y="510" class="st5" width="434.7" height="27"/>
				<rect x="82.3" y="482" class="st5" width="545.7" height="27"/>
				<rect x="8.3" y="454" class="st5" width="698.8" height="27"/>
				<rect x="86.8" y="426" class="st5" width="550.4" height="27"/>
				<rect x="103.8" y="398" class="st5" width="518.1" height="27"/>
				<rect x="41.5" y="370" class="st5" width="640.7" height="27"/>
				<rect x="27.8" y="342" class="st5" width="673" height="27"/>
				<rect x="85.7" y="314" class="st5" width="555.9" height="27"/>
				<rect x="145.3" y="286" class="st5" width="439.4" height="27"/>
				<rect x="143.2" y="258" class="st5" width="445.6" height="27"/>
				<rect x="215.8" y="230" class="st5" width="304.8" height="27"/>
				<rect x="259.2" y="202" class="st5" width="216.6" height="27"/>
				<rect x="282.3" y="174" class="st5" width="174.1" height="27"/>
				<rect x="312.9" y="146" class="st5" width="120.7" height="27"/>
				<rect x="341.6" y="118" class="st5" width="64.1" height="27"/>
				<rect x="359.1" y="90" class="st5" width="26.6" height="27"/>
				<rect x="366.7" y="62" class="st5" width="8.3" height="27"/>
				<rect x="369.3" y="34" class="st5" width="1.5" height="27"/>
				<rect x="369.7" y="6" class="st5" width="0.2" height="27"/>
			</g>
			<g transform="translate(91.45500183105469,191.95599365234375)" class="st6">
				<rect x="0" y="0" class="st7" width="122" height="60"/>
				<text transform="matrix(1 0 0 1 5 18)" class="st7 st8 st9">60</text>
				<text transform="matrix(1 0 0 1 5 36)" class="st10 st11 st9">male: 28731.6</text>
				<text transform="matrix(1 0 0 1 5 54)" class="st12 st11 st9">female: 28165.9</text>
			</g>
			<g transform="translate(0,599.1706875)">
				<g transform="translate(369.70106250000003,0)">
					<line class="st13" x1="0" y1="0" x2="0" y2="6"/>
					<text transform="matrix(1 0 0 1 -3.3369 17.52)" class="st11 st9">0</text>
				</g>
				<g transform="translate(262.5545334492309,0)">
					<line class="st13" x1="0" y1="0" x2="0" y2="6"/>
					<text transform="matrix(1 0 0 1 -18.3516 17.52)" class="st11 st9">20,000</text>
				</g>
				<g transform="translate(155.40800439846183,0)">
					<line class="st13" x1="0" y1="0" x2="0" y2="6"/>
					<text transform="matrix(1 0 0 1 -18.3516 17.52)" class="st11 st9">40,000</text>
				</g>
				<g transform="translate(48.26147534769268,0)">
					<line class="st13" x1="0" y1="0" x2="0" y2="6"/>
					<text transform="matrix(1 0 0 1 -18.3516 17.52)" class="st11 st9">60,000</text>
				</g>
				<path d="M0,6V0h369.7v6"/>
			</g>
			<g transform="translate(0,599.1706875)">
				<g transform="translate(369.70106250000003,0)">
					<line class="st13" x1="0" y1="0" x2="0" y2="6"/>
					<text transform="matrix(1 0 0 1 -3.3369 17.52)" class="st11 st9">0</text>
				</g>
				<g transform="translate(476.84759155076915,0)">
					<line class="st13" x1="0" y1="0" x2="0" y2="6"/>
					<text transform="matrix(1 0 0 1 -18.3516 17.52)" class="st11 st9">20,000</text>
				</g>
				<g transform="translate(583.9941206015383,0)">
					<line class="st13" x1="0" y1="0" x2="0" y2="6"/>
					<text transform="matrix(1 0 0 1 -18.3516 17.52)" class="st11 st9">40,000</text>
				</g>
				<g transform="translate(691.1406496523074,0)">
					<line class="st13" x1="0" y1="0" x2="0" y2="6"/>
					<text transform="matrix(1 0 0 1 -18.3516 17.52)" class="st11 st9">60,000</text>
				</g>
				<path d="M369.7,6V0h369.7v6"/>
			</g>
			<g transform="translate(0,0)">
				<g transform="translate(0,580)">
					<line class="st13" x1="0" y1="0" x2="-6" y2="0"/>
					<text transform="matrix(1 0 0 1 -15.6738 3.84)" class="st11 st9">0</text>
				</g>
				<g transform="translate(0,552)">
					<line class="st13" x1="0" y1="0" x2="-6" y2="0"/>
					<text transform="matrix(1 0 0 1 -15.6738 3.84)" class="st11 st9">5</text>
				</g>
				<g transform="translate(0,524)">
					<line class="st13" x1="0" y1="0" x2="-6" y2="0"/>
					<text transform="matrix(1 0 0 1 -22.3477 3.84)" class="st11 st9">10</text>
				</g>
				<g transform="translate(0,496)">
					<line class="st13" x1="0" y1="0" x2="-6" y2="0"/>
					<text transform="matrix(1 0 0 1 -22.3477 3.84)" class="st11 st9">15</text>
				</g>
				<g transform="translate(0,468)">
					<line class="st13" x1="0" y1="0" x2="-6" y2="0"/>
					<text transform="matrix(1 0 0 1 -22.3477 3.84)" class="st11 st9">20</text>
				</g>
				<g transform="translate(0,440)">
					<line class="st13" x1="0" y1="0" x2="-6" y2="0"/>
					<text transform="matrix(1 0 0 1 -22.3477 3.84)" class="st11 st9">25</text>
				</g>
				<g transform="translate(0,412)">
					<line class="st13" x1="0" y1="0" x2="-6" y2="0"/>
					<text transform="matrix(1 0 0 1 -22.3477 3.84)" class="st11 st9">30</text>
				</g>
				<g transform="translate(0,384)">
					<line class="st13" x1="0" y1="0" x2="-6" y2="0"/>
					<text transform="matrix(1 0 0 1 -22.3477 3.84)" class="st11 st9">35</text>
				</g>
				<g transform="translate(0,356)">
					<line class="st13" x1="0" y1="0" x2="-6" y2="0"/>
					<text transform="matrix(1 0 0 1 -22.3477 3.84)" class="st11 st9">40</text>
				</g>
				<g transform="translate(0,328)">
					<line class="st13" x1="0" y1="0" x2="-6" y2="0"/>
					<text transform="matrix(1 0 0 1 -22.3477 3.84)" class="st11 st9">45</text>
				</g>
				<g transform="translate(0,300)">
					<line class="st13" x1="0" y1="0" x2="-6" y2="0"/>
					<text transform="matrix(1 0 0 1 -22.3477 3.84)" class="st11 st9">50</text>
				</g>
				<g transform="translate(0,272)">
					<line class="st13" x1="0" y1="0" x2="-6" y2="0"/>
					<text transform="matrix(1 0 0 1 -22.3477 3.84)" class="st11 st9">55</text>
				</g>
				<g transform="translate(0,244)">
					<line class="st13" x1="0" y1="0" x2="-6" y2="0"/>
					<text transform="matrix(1 0 0 1 -22.3477 3.84)" class="st11 st9">60</text>
				</g>
				<g transform="translate(0,216)">
					<line class="st13" x1="0" y1="0" x2="-6" y2="0"/>
					<text transform="matrix(1 0 0 1 -22.3477 3.84)" class="st11 st9">65</text>
				</g>
				<g transform="translate(0,188)">
					<line class="st13" x1="0" y1="0" x2="-6" y2="0"/>
					<text transform="matrix(1 0 0 1 -22.3477 3.84)" class="st11 st9">70</text>
				</g>
				<g transform="translate(0,160)">
					<line class="st13" x1="0" y1="0" x2="-6" y2="0"/>
					<text transform="matrix(1 0 0 1 -22.3477 3.84)" class="st11 st9">75</text>
				</g>
				<g transform="translate(0,132)">
					<line class="st13" x1="0" y1="0" x2="-6" y2="0"/>
					<text transform="matrix(1 0 0 1 -22.3477 3.84)" class="st11 st9">80</text>
				</g>
				<g transform="translate(0,104)">
					<line class="st13" x1="0" y1="0" x2="-6" y2="0"/>
					<text transform="matrix(1 0 0 1 -22.3477 3.84)" class="st11 st9">85</text>
				</g>
				<g transform="translate(0,76)">
					<line class="st13" x1="0" y1="0" x2="-6" y2="0"/>
					<text transform="matrix(1 0 0 1 -22.3477 3.84)" class="st11 st9">90</text>
				</g>
				<g transform="translate(0,48)">
					<line class="st13" x1="0" y1="0" x2="-6" y2="0"/>
					<text transform="matrix(1 0 0 1 -22.3477 3.84)" class="st11 st9">95</text>
				</g>
				<g transform="translate(0,20)">
					<line class="st13" x1="0" y1="0" x2="-6" y2="0"/>
					<text transform="matrix(1 0 0 1 -29.0215 3.84)" class="st11 st9">100</text>
				</g>
				<path d="M-6,0h6v599.2h-6"/>
			</g>
			<g>
				<rect x="17" y="1" class="st3" width="51" height="17"/>
				<text transform="matrix(1 0 0 1 72.991 14.6)" class="st8 st14">male</text>
			</g>
			<g transform="translate(722.4043750000001,0)">
				<rect x="-51" y="1" class="st4" width="51" height="17"/>
				<text transform="matrix(1 0 0 1 -109.857 14.6)" class="st8 st14">female</text>
			</g>
		</g>
	</g>
</g>
</svg>
