<svg id="svg-5544734748594536487" width="883" class="svg-populationPyramid" height="705.5132153320312" version="1.1" xmlns="http://www.w3.org/2000/svg"><rect class="svgBg" x="0" y="0" width="100%" height="100%" fill="#fff"></rect><g class="svgGroup" transform="translate(16.55625,16.55625)"><g class="svgTitle" style="display: block;"><text x="50%" y="0" dx="-16.55625" dy="20" text-anchor="middle" fill="#000" style="font-size: 20px; font-weight: bold;"></text></g><g class="mainGroup" transform="translate(0,26.49)"><g transform="translate(84.98875000000001,16.99775)"><g class="rectGroup"><rect fill="#ff6060" class="male" height="27" width="239.58085499742043" y="566" x="130.1202075025796"></rect><rect fill="#ff6060" class="male" height="27" width="255.00406525320633" y="538" x="114.6969972467937"></rect><rect fill="#ff6060" class="male" height="27" width="245.5673685186173" y="510" x="124.13369398138275"></rect><rect fill="#ff6060" class="male" height="27" width="233.5046743254052" y="482" x="136.19638817459483"></rect><rect fill="#ff6060" class="male" height="27" width="236.78136868353405" y="454" x="132.91969381646598"></rect><rect fill="#ff6060" class="male" height="27" width="293.991268113085" y="426" x="75.70979438691501"></rect><rect fill="#ff6060" class="male" height="27" width="369.70106250000003" y="398" x="0"></rect><rect fill="#ff6060" class="male" height="27" width="289.0022073633487" y="370" x="80.69885513665136"></rect><rect fill="#ff6060" class="male" height="27" width="271.1308420861794" y="342" x="98.57022041382064"></rect><rect fill="#ff6060" class="male" height="27" width="333.4334618842164" y="314" x="36.26760061578365"></rect><rect fill="#ff6060" class="male" height="27" width="344.23785442103537" y="286" x="25.46320807896467"></rect><rect fill="#ff6060" class="male" height="27" width="281.0456342192991" y="258" x="88.65542828070095"></rect><rect fill="#ff6060" class="male" height="27" width="214.768903960356" y="230" x="154.93215853964404"></rect><rect fill="#ff6060" class="male" height="27" width="203.14652605685626" y="202" x="166.55453644314377"></rect><rect fill="#ff6060" class="male" height="27" width="122.44967855928186" y="174" x="247.25138394071817"></rect><rect fill="#ff6060" class="male" height="27" width="71.43231413278079" y="146" x="298.26874836721925"></rect><rect fill="#ff6060" class="male" height="27" width="41.936241647105305" y="118" x="327.76482085289473"></rect><rect fill="#ff6060" class="male" height="27" width="18.35744686429331" y="90" x="351.3436156357067"></rect><rect fill="#ff6060" class="male" height="27" width="5.131747319272051" y="62" x="364.569315180728"></rect><rect fill="#ff6060" class="male" height="27" width="0.9157274415212555" y="34" x="368.7853350584788"></rect><rect fill="#ff6060" class="male" height="27" width="0.11706421446518789" y="6" x="369.58399828553485"></rect><rect fill="#ababab" class="female" height="27" width="208.73726292764195" y="566" x="369.70106250000003"></rect><rect fill="#ababab" class="female" height="27" width="220.21488007095752" y="538" x="369.70106250000003"></rect><rect fill="#ababab" class="female" height="27" width="210.42906488362144" y="510" x="369.70106250000003"></rect><rect fill="#ababab" class="female" height="27" width="202.08981465683974" y="482" x="369.70106250000003"></rect><rect fill="#ababab" class="female" height="27" width="208.71755811648063" y="454" x="369.70106250000003"></rect><rect fill="#ababab" class="female" height="27" width="264.38706596143334" y="426" x="369.70106250000003"></rect><rect fill="#ababab" class="female" height="27" width="345.8578805070315" y="398" x="369.70106250000003"></rect><rect fill="#ababab" class="female" height="27" width="273.9188094322126" y="370" x="369.70106250000003"></rect><rect fill="#ababab" class="female" height="27" width="257.89794942545973" y="342" x="369.70106250000003"></rect><rect fill="#ababab" class="female" height="27" width="318.71347435583095" y="314" x="369.70106250000003"></rect><rect fill="#ababab" class="female" height="27" width="335.7838027332232" y="286" x="369.70106250000003"></rect><rect fill="#ababab" class="female" height="27" width="272.5290129622432" y="258" x="369.70106250000003"></rect><rect fill="#ababab" class="female" height="27" width="210.51689632025614" y="230" x="369.70106250000003"></rect><rect fill="#ababab" class="female" height="27" width="204.97420413820976" y="202" x="369.70106250000003"></rect><rect fill="#ababab" class="female" height="27" width="129.5534931404835" y="174" x="369.70106250000003"></rect><rect fill="#ababab" class="female" height="27" width="78.48737968777675" y="146" x="369.70106250000003"></rect><rect fill="#ababab" class="female" height="27" width="50.48394803406819" y="118" x="369.70106250000003"></rect><rect fill="#ababab" class="female" height="27" width="25.437508080393854" y="90" x="369.70106250000003"></rect><rect fill="#ababab" class="female" height="27" width="8.330254672685612" y="62" x="369.70106250000003"></rect><rect fill="#ababab" class="female" height="27" width="1.8740978025528534" y="34" x="369.70106250000003"></rect><rect fill="#ababab" class="female" height="27" width="0.32316888578259295" y="6" x="369.70106250000003"></rect></g><g class="coverGroup"><rect x="130.1202075025796" y="566" width="448.3181179250624" height="27" fill="#fff" opacity="0"></rect><rect x="114.6969972467937" y="538" width="475.2189453241639" height="27" fill="#fff" opacity="0"></rect><rect x="124.13369398138275" y="510" width="455.9964334022387" height="27" fill="#fff" opacity="0"></rect><rect x="136.19638817459483" y="482" width="435.5944889822449" height="27" fill="#fff" opacity="0"></rect><rect x="132.91969381646598" y="454" width="445.4989268000147" height="27" fill="#fff" opacity="0"></rect><rect x="75.70979438691501" y="426" width="558.3783340745183" height="27" fill="#fff" opacity="0"></rect><rect x="0" y="398" width="715.5589430070315" height="27" fill="#fff" opacity="0"></rect><rect x="80.69885513665136" y="370" width="562.9210167955613" height="27" fill="#fff" opacity="0"></rect><rect x="98.57022041382064" y="342" width="529.0287915116392" height="27" fill="#fff" opacity="0"></rect><rect x="36.26760061578365" y="314" width="652.1469362400474" height="27" fill="#fff" opacity="0"></rect><rect x="25.46320807896467" y="286" width="680.0216571542585" height="27" fill="#fff" opacity="0"></rect><rect x="88.65542828070095" y="258" width="553.5746471815423" height="27" fill="#fff" opacity="0"></rect><rect x="154.93215853964404" y="230" width="425.28580028061214" height="27" fill="#fff" opacity="0"></rect><rect x="166.55453644314377" y="202" width="408.120730195066" height="27" fill="#fff" opacity="0"></rect><rect x="247.25138394071817" y="174" width="252.00317169976537" height="27" fill="#fff" opacity="0"></rect><rect x="298.26874836721925" y="146" width="149.91969382055754" height="27" fill="#fff" opacity="0"></rect><rect x="327.76482085289473" y="118" width="92.4201896811735" height="27" fill="#fff" opacity="0"></rect><rect x="351.3436156357067" y="90" width="43.79495494468716" height="27" fill="#fff" opacity="0"></rect><rect x="364.569315180728" y="62" width="13.462001991957663" height="27" fill="#fff" opacity="0"></rect><rect x="368.7853350584788" y="34" width="2.789825244074109" height="27" fill="#fff" opacity="0"></rect><rect x="369.58399828553485" y="6" width="0.44023310024778084" height="27" fill="#fff" opacity="0"></rect></g><g class="tooltipGroup" display="none"><rect x="0" y="0" width="120" height="60" fill="rgba(255,255,255,.9)"></rect><text x="5" y="3" dy="15">1</text><text x="5" y="21" dy="15">2</text><text x="5" y="39" dy="15">3</text></g><g class="axis" transform="translate(0,599.1706875)"><g class="tick" transform="translate(369.70106250000003,0)" style="opacity: 1;"><line y2="6" x2="0"></line><text dy=".71em" y="9" x="0" style="text-anchor: middle;">0</text></g><g class="tick" transform="translate(314.2414194901609,0)" style="opacity: 1;"><line y2="6" x2="0"></line><text dy=".71em" y="9" x="0" style="text-anchor: middle;">10,000</text></g><g class="tick" transform="translate(258.78177648032175,0)" style="opacity: 1;"><line y2="6" x2="0"></line><text dy=".71em" y="9" x="0" style="text-anchor: middle;">20,000</text></g><g class="tick" transform="translate(203.3221334704826,0)" style="opacity: 1;"><line y2="6" x2="0"></line><text dy=".71em" y="9" x="0" style="text-anchor: middle;">30,000</text></g><g class="tick" transform="translate(147.86249046064347,0)" style="opacity: 1;"><line y2="6" x2="0"></line><text dy=".71em" y="9" x="0" style="text-anchor: middle;">40,000</text></g><g class="tick" transform="translate(92.40284745080436,0)" style="opacity: 1;"><line y2="6" x2="0"></line><text dy=".71em" y="9" x="0" style="text-anchor: middle;">50,000</text></g><g class="tick" transform="translate(36.943204440965225,0)" style="opacity: 1;"><line y2="6" x2="0"></line><text dy=".71em" y="9" x="0" style="text-anchor: middle;">60,000</text></g><path class="domain" d="M0,6V0H369.70106250000003V6"></path></g><g class="axis" transform="translate(0,599.1706875)"><g class="tick" transform="translate(369.70106250000003,0)" style="opacity: 1;"><line y2="6" x2="0"></line><text dy=".71em" y="9" x="0" style="text-anchor: middle;">0</text></g><g class="tick" transform="translate(425.1607055098392,0)" style="opacity: 1;"><line y2="6" x2="0"></line><text dy=".71em" y="9" x="0" style="text-anchor: middle;">10,000</text></g><g class="tick" transform="translate(480.6203485196783,0)" style="opacity: 1;"><line y2="6" x2="0"></line><text dy=".71em" y="9" x="0" style="text-anchor: middle;">20,000</text></g><g class="tick" transform="translate(536.0799915295174,0)" style="opacity: 1;"><line y2="6" x2="0"></line><text dy=".71em" y="9" x="0" style="text-anchor: middle;">30,000</text></g><g class="tick" transform="translate(591.5396345393566,0)" style="opacity: 1;"><line y2="6" x2="0"></line><text dy=".71em" y="9" x="0" style="text-anchor: middle;">40,000</text></g><g class="tick" transform="translate(646.9992775491958,0)" style="opacity: 1;"><line y2="6" x2="0"></line><text dy=".71em" y="9" x="0" style="text-anchor: middle;">50,000</text></g><g class="tick" transform="translate(702.4589205590348,0)" style="opacity: 1;"><line y2="6" x2="0"></line><text dy=".71em" y="9" x="0" style="text-anchor: middle;">60,000</text></g><path class="domain" d="M369.70106250000003,6V0H739.4021250000001V6"></path></g><g class="axis" transform="translate(0,0)"><g class="tick" transform="translate(0,580)" style="opacity: 1;"><line x2="-6" y2="0"></line><text dy=".32em" x="-9" y="0" style="text-anchor: end;">0-4</text></g><g class="tick" transform="translate(0,552)" style="opacity: 1;"><line x2="-6" y2="0"></line><text dy=".32em" x="-9" y="0" style="text-anchor: end;">5-9</text></g><g class="tick" transform="translate(0,524)" style="opacity: 1;"><line x2="-6" y2="0"></line><text dy=".32em" x="-9" y="0" style="text-anchor: end;">10-14</text></g><g class="tick" transform="translate(0,496)" style="opacity: 1;"><line x2="-6" y2="0"></line><text dy=".32em" x="-9" y="0" style="text-anchor: end;">15-19</text></g><g class="tick" transform="translate(0,468)" style="opacity: 1;"><line x2="-6" y2="0"></line><text dy=".32em" x="-9" y="0" style="text-anchor: end;">20-24</text></g><g class="tick" transform="translate(0,440)" style="opacity: 1;"><line x2="-6" y2="0"></line><text dy=".32em" x="-9" y="0" style="text-anchor: end;">25-29</text></g><g class="tick" transform="translate(0,412)" style="opacity: 1;"><line x2="-6" y2="0"></line><text dy=".32em" x="-9" y="0" style="text-anchor: end;">30-34</text></g><g class="tick" transform="translate(0,384)" style="opacity: 1;"><line x2="-6" y2="0"></line><text dy=".32em" x="-9" y="0" style="text-anchor: end;">35-39</text></g><g class="tick" transform="translate(0,356)" style="opacity: 1;"><line x2="-6" y2="0"></line><text dy=".32em" x="-9" y="0" style="text-anchor: end;">40-44</text></g><g class="tick" transform="translate(0,328)" style="opacity: 1;"><line x2="-6" y2="0"></line><text dy=".32em" x="-9" y="0" style="text-anchor: end;">45-49</text></g><g class="tick" transform="translate(0,300)" style="opacity: 1;"><line x2="-6" y2="0"></line><text dy=".32em" x="-9" y="0" style="text-anchor: end;">50-54</text></g><g class="tick" transform="translate(0,272)" style="opacity: 1;"><line x2="-6" y2="0"></line><text dy=".32em" x="-9" y="0" style="text-anchor: end;">55-59</text></g><g class="tick" transform="translate(0,244)" style="opacity: 1;"><line x2="-6" y2="0"></line><text dy=".32em" x="-9" y="0" style="text-anchor: end;">60-64</text></g><g class="tick" transform="translate(0,216)" style="opacity: 1;"><line x2="-6" y2="0"></line><text dy=".32em" x="-9" y="0" style="text-anchor: end;">65-69</text></g><g class="tick" transform="translate(0,188)" style="opacity: 1;"><line x2="-6" y2="0"></line><text dy=".32em" x="-9" y="0" style="text-anchor: end;">70-74</text></g><g class="tick" transform="translate(0,160)" style="opacity: 1;"><line x2="-6" y2="0"></line><text dy=".32em" x="-9" y="0" style="text-anchor: end;">75-79</text></g><g class="tick" transform="translate(0,132)" style="opacity: 1;"><line x2="-6" y2="0"></line><text dy=".32em" x="-9" y="0" style="text-anchor: end;">80-84</text></g><g class="tick" transform="translate(0,104)" style="opacity: 1;"><line x2="-6" y2="0"></line><text dy=".32em" x="-9" y="0" style="text-anchor: end;">85-89</text></g><g class="tick" transform="translate(0,76)" style="opacity: 1;"><line x2="-6" y2="0"></line><text dy=".32em" x="-9" y="0" style="text-anchor: end;">90-94</text></g><g class="tick" transform="translate(0,48)" style="opacity: 1;"><line x2="-6" y2="0"></line><text dy=".32em" x="-9" y="0" style="text-anchor: end;">95-99</text></g><g class="tick" transform="translate(0,20)" style="opacity: 1;"><line x2="-6" y2="0"></line><text dy=".32em" x="-9" y="0" style="text-anchor: end;">>=100</text></g><path class="domain" d="M-6,0H0V599.1706875H-6"></path></g><g><rect x="16.99775" y="1" width="50.99325" height="17" fill="#ff6060"></rect><text x="72.991" y="14.6" text-anchor="start" style="font-size: 17px; font-weight: bold;">male</text></g><g transform="translate(722.4043750000001,0)"><rect x="-50.99325" y="1" width="50.99325" height="17" fill="#ababab"></rect><text x="-55.99325" y="14.6" text-anchor="end" style="font-size: 17px; font-weight: bold;">female</text></g></g></g></g></svg>