<svg id="svg-5544734748594536487" width="883" class="svg-populationPyramid" height="705.5132153320312" version="1.1" xmlns="http://www.w3.org/2000/svg"><rect class="svgBg" x="0" y="0" width="100%" height="100%" fill="#fff"></rect><g class="svgGroup" transform="translate(16.55625,16.55625)"><g class="svgTitle" style="display: block;"><text x="50%" y="0" dx="-16.55625" dy="20" text-anchor="middle" fill="#000" style="font-size: 20px; font-weight: bold;"></text></g><g class="mainGroup" transform="translate(0,26.49)"><g transform="translate(84.98875000000001,16.99775)"><g class="rectGroup"><rect fill="#ff6060" class="male" height="27" width="202.4665721026907" y="566" x="167.23449039730934"></rect><rect fill="#ff6060" class="male" height="27" width="218.6008856410473" y="538" x="151.10017685895272"></rect><rect fill="#ff6060" class="male" height="27" width="241.74752388747663" y="510" x="127.95353861252342"></rect><rect fill="#ff6060" class="male" height="27" width="257.04975017328593" y="482" x="112.6513123267141"></rect><rect fill="#ff6060" class="male" height="27" width="246.54006180352917" y="454" x="123.16100069647085"></rect><rect fill="#ff6060" class="male" height="27" width="233.6034452595291" y="426" x="136.09761724047092"></rect><rect fill="#ff6060" class="male" height="27" width="236.71784534512008" y="398" x="132.98321715487995"></rect><rect fill="#ff6060" class="male" height="27" width="294.1820011861017" y="370" x="75.51906131389835"></rect><rect fill="#ff6060" class="male" height="27" width="369.70106250000003" y="342" x="0"></rect><rect fill="#ff6060" class="male" height="27" width="287.8560531164699" y="314" x="81.8450093835301"></rect><rect fill="#ff6060" class="male" height="27" width="267.9955200467286" y="286" x="101.70554245327146"></rect><rect fill="#ff6060" class="male" height="27" width="324.78038201406724" y="258" x="44.92068048593277"></rect><rect fill="#ff6060" class="male" height="27" width="325.83524777587786" y="230" x="43.86581472412215"></rect><rect fill="#ff6060" class="male" height="27" width="251.60240756243195" y="202" x="118.09865493756807"></rect><rect fill="#ff6060" class="male" height="27" width="173.32665106076757" y="174" x="196.37441143923246"></rect><rect fill="#ff6060" class="male" height="27" width="136.6376261010611" y="146" x="233.06343639893893"></rect><rect fill="#ff6060" class="male" height="27" width="62.85188190499548" y="118" x="306.84918059500455"></rect><rect fill="#ff6060" class="male" height="27" width="25.215103256988982" y="90" x="344.48595924301105"></rect><rect fill="#ff6060" class="male" height="27" width="8.477749306446185" y="62" x="361.22331319355385"></rect><rect fill="#ff6060" class="male" height="27" width="1.7554191634155814" y="34" x="367.94564333658445"></rect><rect fill="#ff6060" class="male" height="27" width="0.21642592640324665" y="6" x="369.4846365735968"></rect><rect fill="#ababab" class="female" height="27" width="179.5024456400397" y="566" x="369.70106250000003"></rect><rect fill="#ababab" class="female" height="27" width="192.14843292239016" y="538" x="369.70106250000003"></rect><rect fill="#ababab" class="female" height="27" width="210.67347446122108" y="510" x="369.70106250000003"></rect><rect fill="#ababab" class="female" height="27" width="221.9893286247285" y="482" x="369.70106250000003"></rect><rect fill="#ababab" class="female" height="27" width="211.2138596463484" y="454" x="369.70106250000003"></rect><rect fill="#ababab" class="female" height="27" width="202.20399306102593" y="426" x="369.70106250000003"></rect><rect fill="#ababab" class="female" height="27" width="208.89042071984682" y="398" x="369.70106250000003"></rect><rect fill="#ababab" class="female" height="27" width="265.0624915377359" y="370" x="369.70106250000003"></rect><rect fill="#ababab" class="female" height="27" width="346.72092258577175" y="342" x="369.70106250000003"></rect><rect fill="#ababab" class="female" height="27" width="273.7632664919473" y="314" x="369.70106250000003"></rect><rect fill="#ababab" class="female" height="27" width="256.42579285697" y="286" x="369.70106250000003"></rect><rect fill="#ababab" class="female" height="27" width="313.83267435009714" y="258" x="369.70106250000003"></rect><rect fill="#ababab" class="female" height="27" width="324.1250718086935" y="230" x="369.70106250000003"></rect><rect fill="#ababab" class="female" height="27" width="252.97978345265915" y="202" x="369.70106250000003"></rect><rect fill="#ababab" class="female" height="27" width="181.64169898108992" y="174" x="369.70106250000003"></rect><rect fill="#ababab" class="female" height="27" width="155.58401070199977" y="146" x="369.70106250000003"></rect><rect fill="#ababab" class="female" height="27" width="79.51606039178921" y="118" x="369.70106250000003"></rect><rect fill="#ababab" class="female" height="27" width="34.12588415333397" y="90" x="369.70106250000003"></rect><rect fill="#ababab" class="female" height="27" width="13.232789571593798" y="62" x="369.70106250000003"></rect><rect fill="#ababab" class="female" height="27" width="3.4365395062544053" y="34" x="369.70106250000003"></rect><rect fill="#ababab" class="female" height="27" width="0.5786242515385425" y="6" x="369.70106250000003"></rect></g><g class="coverGroup"><rect x="167.23449039730934" y="566" width="381.9690177427304" height="27" fill="#fff" opacity="0"></rect><rect x="151.10017685895272" y="538" width="410.74931856343744" height="27" fill="#fff" opacity="0"></rect><rect x="127.95353861252342" y="510" width="452.4209983486977" height="27" fill="#fff" opacity="0"></rect><rect x="112.6513123267141" y="482" width="479.03907879801443" height="27" fill="#fff" opacity="0"></rect><rect x="123.16100069647085" y="454" width="457.75392144987757" height="27" fill="#fff" opacity="0"></rect><rect x="136.09761724047092" y="426" width="435.80743832055504" height="27" fill="#fff" opacity="0"></rect><rect x="132.98321715487995" y="398" width="445.60826606496687" height="27" fill="#fff" opacity="0"></rect><rect x="75.51906131389835" y="370" width="559.2444927238375" height="27" fill="#fff" opacity="0"></rect><rect x="0" y="342" width="716.4219850857718" height="27" fill="#fff" opacity="0"></rect><rect x="81.8450093835301" y="314" width="561.6193196084173" height="27" fill="#fff" opacity="0"></rect><rect x="101.70554245327146" y="286" width="524.4213129036987" height="27" fill="#fff" opacity="0"></rect><rect x="44.92068048593277" y="258" width="638.6130563641643" height="27" fill="#fff" opacity="0"></rect><rect x="43.86581472412215" y="230" width="649.9603195845714" height="27" fill="#fff" opacity="0"></rect><rect x="118.09865493756807" y="202" width="504.5821910150911" height="27" fill="#fff" opacity="0"></rect><rect x="196.37441143923246" y="174" width="354.9683500418575" height="27" fill="#fff" opacity="0"></rect><rect x="233.06343639893893" y="146" width="292.22163680306085" height="27" fill="#fff" opacity="0"></rect><rect x="306.84918059500455" y="118" width="142.3679422967847" height="27" fill="#fff" opacity="0"></rect><rect x="344.48595924301105" y="90" width="59.34098741032295" height="27" fill="#fff" opacity="0"></rect><rect x="361.22331319355385" y="62" width="21.710538878039984" height="27" fill="#fff" opacity="0"></rect><rect x="367.94564333658445" y="34" width="5.191958669669987" height="27" fill="#fff" opacity="0"></rect><rect x="369.4846365735968" y="6" width="0.7950501779417891" height="27" fill="#fff" opacity="0"></rect></g><g class="tooltipGroup" display="none"><rect x="0" y="0" width="120" height="60" fill="rgba(255,255,255,.9)"></rect><text x="5" y="3" dy="15">1</text><text x="5" y="21" dy="15">2</text><text x="5" y="39" dy="15">3</text></g><g class="axis" transform="translate(0,599.1706875)"><g class="tick" transform="translate(369.70106250000003,0)" style="opacity: 1;"><line y2="6" x2="0"></line><text dy=".71em" y="9" x="0" style="text-anchor: middle;">0</text></g><g class="tick" transform="translate(313.5332211205668,0)" style="opacity: 1;"><line y2="6" x2="0"></line><text dy=".71em" y="9" x="0" style="text-anchor: middle;">10,000</text></g><g class="tick" transform="translate(257.3653797411335,0)" style="opacity: 1;"><line y2="6" x2="0"></line><text dy=".71em" y="9" x="0" style="text-anchor: middle;">20,000</text></g><g class="tick" transform="translate(201.19753836170025,0)" style="opacity: 1;"><line y2="6" x2="0"></line><text dy=".71em" y="9" x="0" style="text-anchor: middle;">30,000</text></g><g class="tick" transform="translate(145.02969698226698,0)" style="opacity: 1;"><line y2="6" x2="0"></line><text dy=".71em" y="9" x="0" style="text-anchor: middle;">40,000</text></g><g class="tick" transform="translate(88.86185560283373,0)" style="opacity: 1;"><line y2="6" x2="0"></line><text dy=".71em" y="9" x="0" style="text-anchor: middle;">50,000</text></g><g class="tick" transform="translate(32.69401422340049,0)" style="opacity: 1;"><line y2="6" x2="0"></line><text dy=".71em" y="9" x="0" style="text-anchor: middle;">60,000</text></g><path class="domain" d="M0,6V0H369.70106250000003V6"></path></g><g class="axis" transform="translate(0,599.1706875)"><g class="tick" transform="translate(369.70106250000003,0)" style="opacity: 1;"><line y2="6" x2="0"></line><text dy=".71em" y="9" x="0" style="text-anchor: middle;">0</text></g><g class="tick" transform="translate(425.86890387943333,0)" style="opacity: 1;"><line y2="6" x2="0"></line><text dy=".71em" y="9" x="0" style="text-anchor: middle;">10,000</text></g><g class="tick" transform="translate(482.0367452588665,0)" style="opacity: 1;"><line y2="6" x2="0"></line><text dy=".71em" y="9" x="0" style="text-anchor: middle;">20,000</text></g><g class="tick" transform="translate(538.2045866382998,0)" style="opacity: 1;"><line y2="6" x2="0"></line><text dy=".71em" y="9" x="0" style="text-anchor: middle;">30,000</text></g><g class="tick" transform="translate(594.3724280177331,0)" style="opacity: 1;"><line y2="6" x2="0"></line><text dy=".71em" y="9" x="0" style="text-anchor: middle;">40,000</text></g><g class="tick" transform="translate(650.5402693971664,0)" style="opacity: 1;"><line y2="6" x2="0"></line><text dy=".71em" y="9" x="0" style="text-anchor: middle;">50,000</text></g><g class="tick" transform="translate(706.7081107765996,0)" style="opacity: 1;"><line y2="6" x2="0"></line><text dy=".71em" y="9" x="0" style="text-anchor: middle;">60,000</text></g><path class="domain" d="M369.70106250000003,6V0H739.4021250000001V6"></path></g><g class="axis" transform="translate(0,0)"><g class="tick" transform="translate(0,580)" style="opacity: 1;"><line x2="-6" y2="0"></line><text dy=".32em" x="-9" y="0" style="text-anchor: end;">0-4</text></g><g class="tick" transform="translate(0,552)" style="opacity: 1;"><line x2="-6" y2="0"></line><text dy=".32em" x="-9" y="0" style="text-anchor: end;">5-9</text></g><g class="tick" transform="translate(0,524)" style="opacity: 1;"><line x2="-6" y2="0"></line><text dy=".32em" x="-9" y="0" style="text-anchor: end;">10-14</text></g><g class="tick" transform="translate(0,496)" style="opacity: 1;"><line x2="-6" y2="0"></line><text dy=".32em" x="-9" y="0" style="text-anchor: end;">15-19</text></g><g class="tick" transform="translate(0,468)" style="opacity: 1;"><line x2="-6" y2="0"></line><text dy=".32em" x="-9" y="0" style="text-anchor: end;">20-24</text></g><g class="tick" transform="translate(0,440)" style="opacity: 1;"><line x2="-6" y2="0"></line><text dy=".32em" x="-9" y="0" style="text-anchor: end;">25-29</text></g><g class="tick" transform="translate(0,412)" style="opacity: 1;"><line x2="-6" y2="0"></line><text dy=".32em" x="-9" y="0" style="text-anchor: end;">30-34</text></g><g class="tick" transform="translate(0,384)" style="opacity: 1;"><line x2="-6" y2="0"></line><text dy=".32em" x="-9" y="0" style="text-anchor: end;">35-39</text></g><g class="tick" transform="translate(0,356)" style="opacity: 1;"><line x2="-6" y2="0"></line><text dy=".32em" x="-9" y="0" style="text-anchor: end;">40-44</text></g><g class="tick" transform="translate(0,328)" style="opacity: 1;"><line x2="-6" y2="0"></line><text dy=".32em" x="-9" y="0" style="text-anchor: end;">45-49</text></g><g class="tick" transform="translate(0,300)" style="opacity: 1;"><line x2="-6" y2="0"></line><text dy=".32em" x="-9" y="0" style="text-anchor: end;">50-54</text></g><g class="tick" transform="translate(0,272)" style="opacity: 1;"><line x2="-6" y2="0"></line><text dy=".32em" x="-9" y="0" style="text-anchor: end;">55-59</text></g><g class="tick" transform="translate(0,244)" style="opacity: 1;"><line x2="-6" y2="0"></line><text dy=".32em" x="-9" y="0" style="text-anchor: end;">60-64</text></g><g class="tick" transform="translate(0,216)" style="opacity: 1;"><line x2="-6" y2="0"></line><text dy=".32em" x="-9" y="0" style="text-anchor: end;">65-69</text></g><g class="tick" transform="translate(0,188)" style="opacity: 1;"><line x2="-6" y2="0"></line><text dy=".32em" x="-9" y="0" style="text-anchor: end;">70-74</text></g><g class="tick" transform="translate(0,160)" style="opacity: 1;"><line x2="-6" y2="0"></line><text dy=".32em" x="-9" y="0" style="text-anchor: end;">75-79</text></g><g class="tick" transform="translate(0,132)" style="opacity: 1;"><line x2="-6" y2="0"></line><text dy=".32em" x="-9" y="0" style="text-anchor: end;">80-84</text></g><g class="tick" transform="translate(0,104)" style="opacity: 1;"><line x2="-6" y2="0"></line><text dy=".32em" x="-9" y="0" style="text-anchor: end;">85-89</text></g><g class="tick" transform="translate(0,76)" style="opacity: 1;"><line x2="-6" y2="0"></line><text dy=".32em" x="-9" y="0" style="text-anchor: end;">90-94</text></g><g class="tick" transform="translate(0,48)" style="opacity: 1;"><line x2="-6" y2="0"></line><text dy=".32em" x="-9" y="0" style="text-anchor: end;">95-99</text></g><g class="tick" transform="translate(0,20)" style="opacity: 1;"><line x2="-6" y2="0"></line><text dy=".32em" x="-9" y="0" style="text-anchor: end;">>=100</text></g><path class="domain" d="M-6,0H0V599.1706875H-6"></path></g><g><rect x="16.99775" y="1" width="50.99325" height="17" fill="#ff6060"></rect><text x="72.991" y="14.6" text-anchor="start" style="font-size: 17px; font-weight: bold;">male</text></g><g transform="translate(722.4043750000001,0)"><rect x="-50.99325" y="1" width="50.99325" height="17" fill="#ababab"></rect><text x="-55.99325" y="14.6" text-anchor="end" style="font-size: 17px; font-weight: bold;">female</text></g></g></g></g></svg>