<svg id="svg-5544734748594536487" width="883" class="svg-populationPyramid" height="705.5132153320312" version="1.1" xmlns="http://www.w3.org/2000/svg"><rect class="svgBg" x="0" y="0" width="100%" height="100%" fill="#fff"></rect><g class="svgGroup" transform="translate(16.55625,16.55625)"><g class="svgTitle" style="display: block;"><text x="50%" y="0" dx="-16.55625" dy="20" text-anchor="middle" fill="#000" style="font-size: 20px; font-weight: bold;"></text></g><g class="mainGroup" transform="translate(0,26.49)"><g transform="translate(84.98875000000001,16.99775)"><g class="rectGroup"><rect fill="#ff6060" class="male" height="27" width="194.50019342660613" y="566" x="175.2008690733939"></rect><rect fill="#ff6060" class="male" height="27" width="197.38852791763708" y="538" x="172.31253458236296"></rect><rect fill="#ff6060" class="male" height="27" width="206.06762264573263" y="510" x="163.6334398542674"></rect><rect fill="#ff6060" class="male" height="27" width="222.18611430018376" y="482" x="147.51494819981627"></rect><rect fill="#ff6060" class="male" height="27" width="244.7994242489409" y="454" x="124.90163825105911"></rect><rect fill="#ff6060" class="male" height="27" width="259.6355199358014" y="426" x="110.06554256419861"></rect><rect fill="#ff6060" class="male" height="27" width="248.79920146005713" y="398" x="120.90186103994289"></rect><rect fill="#ff6060" class="male" height="27" width="235.72925561470802" y="370" x="133.971806885292"></rect><rect fill="#ff6060" class="male" height="27" width="238.74648752380398" y="342" x="130.95457497619606"></rect><rect fill="#ff6060" class="male" height="27" width="296.013313443924" y="314" x="73.68774905607604"></rect><rect fill="#ff6060" class="male" height="27" width="369.70106250000003" y="286" x="0"></rect><rect fill="#ff6060" class="male" height="27" width="284.2348021570829" y="258" x="85.4662603429171"></rect><rect fill="#ff6060" class="male" height="27" width="258.3086651123781" y="230" x="111.39239738762193"></rect><rect fill="#ff6060" class="male" height="27" width="298.6733030762114" y="202" x="71.02775942378862"></rect><rect fill="#ff6060" class="male" height="27" width="274.34418066695986" y="174" x="95.35688183304018"></rect><rect fill="#ff6060" class="male" height="27" width="180.97521532111466" y="146" x="188.72584717888537"></rect><rect fill="#ff6060" class="male" height="27" width="97.93382080855349" y="118" x="271.76724169144654"></rect><rect fill="#ff6060" class="male" height="27" width="54.38551698357753" y="90" x="315.3155455164225"></rect><rect fill="#ff6060" class="male" height="27" width="14.608857711395615" y="62" x="355.0922047886044"></rect><rect fill="#ff6060" class="male" height="27" width="2.787074744051779" y="34" x="366.91398775594826"></rect><rect fill="#ff6060" class="male" height="27" width="0.3994988363771199" y="6" x="369.3015636636229"></rect><rect fill="#ababab" class="female" height="27" width="175.39761900995177" y="566" x="369.70106250000003"></rect><rect fill="#ababab" class="female" height="27" width="176.48956796701145" y="538" x="369.70106250000003"></rect><rect fill="#ababab" class="female" height="27" width="182.71254605135675" y="510" x="369.70106250000003"></rect><rect fill="#ababab" class="female" height="27" width="195.28312121880776" y="482" x="369.70106250000003"></rect><rect fill="#ababab" class="female" height="27" width="213.26989420402072" y="454" x="369.70106250000003"></rect><rect fill="#ababab" class="female" height="27" width="224.20908973806308" y="426" x="369.70106250000003"></rect><rect fill="#ababab" class="female" height="27" width="213.26196249638178" y="398" x="369.70106250000003"></rect><rect fill="#ababab" class="female" height="27" width="204.2785379532828" y="370" x="369.70106250000003"></rect><rect fill="#ababab" class="female" height="27" width="211.04260990646844" y="342" x="369.70106250000003"></rect><rect fill="#ababab" class="female" height="27" width="267.41195421777127" y="314" x="369.70106250000003"></rect><rect fill="#ababab" class="female" height="27" width="348.3363283597977" y="286" x="369.70106250000003"></rect><rect fill="#ababab" class="female" height="27" width="272.61096203677357" y="258" x="369.70106250000003"></rect><rect fill="#ababab" class="female" height="27" width="251.02851599947803" y="230" x="369.70106250000003"></rect><rect fill="#ababab" class="female" height="27" width="297.2459971614685" y="202" x="369.70106250000003"></rect><rect fill="#ababab" class="female" height="27" width="288.5022042454667" y="174" x="369.70106250000003"></rect><rect fill="#ababab" class="female" height="27" width="201.6898706031335" y="146" x="369.70106250000003"></rect><rect fill="#ababab" class="female" height="27" width="120.2180079038958" y="118" x="369.70106250000003"></rect><rect fill="#ababab" class="female" height="27" width="75.5175016725081" y="90" x="369.70106250000003"></rect><rect fill="#ababab" class="female" height="27" width="24.132636289433606" y="62" x="369.70106250000003"></rect><rect fill="#ababab" class="female" height="27" width="5.473973683816951" y="34" x="369.70106250000003"></rect><rect fill="#ababab" class="female" height="27" width="1.0837362272411042" y="6" x="369.70106250000003"></rect></g><g class="coverGroup"><rect x="175.2008690733939" y="566" width="369.8978124365579" height="27" fill="#fff" opacity="0"></rect><rect x="172.31253458236296" y="538" width="373.87809588464853" height="27" fill="#fff" opacity="0"></rect><rect x="163.6334398542674" y="510" width="388.7801686970894" height="27" fill="#fff" opacity="0"></rect><rect x="147.51494819981627" y="482" width="417.4692355189915" height="27" fill="#fff" opacity="0"></rect><rect x="124.90163825105911" y="454" width="458.0693184529616" height="27" fill="#fff" opacity="0"></rect><rect x="110.06554256419861" y="426" width="483.8446096738645" height="27" fill="#fff" opacity="0"></rect><rect x="120.90186103994289" y="398" width="462.0611639564389" height="27" fill="#fff" opacity="0"></rect><rect x="133.971806885292" y="370" width="440.0077935679908" height="27" fill="#fff" opacity="0"></rect><rect x="130.95457497619606" y="342" width="449.7890974302724" height="27" fill="#fff" opacity="0"></rect><rect x="73.68774905607604" y="314" width="563.4252676616952" height="27" fill="#fff" opacity="0"></rect><rect x="0" y="286" width="718.0373908597977" height="27" fill="#fff" opacity="0"></rect><rect x="85.4662603429171" y="258" width="556.8457641938564" height="27" fill="#fff" opacity="0"></rect><rect x="111.39239738762193" y="230" width="509.3371811118561" height="27" fill="#fff" opacity="0"></rect><rect x="71.02775942378862" y="202" width="595.9193002376799" height="27" fill="#fff" opacity="0"></rect><rect x="95.35688183304018" y="174" width="562.8463849124266" height="27" fill="#fff" opacity="0"></rect><rect x="188.72584717888537" y="146" width="382.66508592424816" height="27" fill="#fff" opacity="0"></rect><rect x="271.76724169144654" y="118" width="218.1518287124493" height="27" fill="#fff" opacity="0"></rect><rect x="315.3155455164225" y="90" width="129.90301865608564" height="27" fill="#fff" opacity="0"></rect><rect x="355.0922047886044" y="62" width="38.74149400082922" height="27" fill="#fff" opacity="0"></rect><rect x="366.91398775594826" y="34" width="8.26104842786873" height="27" fill="#fff" opacity="0"></rect><rect x="369.3015636636229" y="6" width="1.483235063618224" height="27" fill="#fff" opacity="0"></rect></g><g class="tooltipGroup" display="none"><rect x="0" y="0" width="120" height="60" fill="rgba(255,255,255,.9)"></rect><text x="5" y="3" dy="15">1</text><text x="5" y="21" dy="15">2</text><text x="5" y="39" dy="15">3</text></g><g class="axis" transform="translate(0,599.1706875)"><g class="tick" transform="translate(369.70106250000003,0)" style="opacity: 1;"><line y2="6" x2="0"></line><text dy=".71em" y="9" x="0" style="text-anchor: middle;">0</text></g><g class="tick" transform="translate(312.3495972875195,0)" style="opacity: 1;"><line y2="6" x2="0"></line><text dy=".71em" y="9" x="0" style="text-anchor: middle;">10,000</text></g><g class="tick" transform="translate(254.998132075039,0)" style="opacity: 1;"><line y2="6" x2="0"></line><text dy=".71em" y="9" x="0" style="text-anchor: middle;">20,000</text></g><g class="tick" transform="translate(197.6466668625585,0)" style="opacity: 1;"><line y2="6" x2="0"></line><text dy=".71em" y="9" x="0" style="text-anchor: middle;">30,000</text></g><g class="tick" transform="translate(140.29520165007796,0)" style="opacity: 1;"><line y2="6" x2="0"></line><text dy=".71em" y="9" x="0" style="text-anchor: middle;">40,000</text></g><g class="tick" transform="translate(82.94373643759745,0)" style="opacity: 1;"><line y2="6" x2="0"></line><text dy=".71em" y="9" x="0" style="text-anchor: middle;">50,000</text></g><g class="tick" transform="translate(25.592271225116907,0)" style="opacity: 1;"><line y2="6" x2="0"></line><text dy=".71em" y="9" x="0" style="text-anchor: middle;">60,000</text></g><path class="domain" d="M0,6V0H369.70106250000003V6"></path></g><g class="axis" transform="translate(0,599.1706875)"><g class="tick" transform="translate(369.70106250000003,0)" style="opacity: 1;"><line y2="6" x2="0"></line><text dy=".71em" y="9" x="0" style="text-anchor: middle;">0</text></g><g class="tick" transform="translate(427.0525277124805,0)" style="opacity: 1;"><line y2="6" x2="0"></line><text dy=".71em" y="9" x="0" style="text-anchor: middle;">10,000</text></g><g class="tick" transform="translate(484.4039929249611,0)" style="opacity: 1;"><line y2="6" x2="0"></line><text dy=".71em" y="9" x="0" style="text-anchor: middle;">20,000</text></g><g class="tick" transform="translate(541.7554581374416,0)" style="opacity: 1;"><line y2="6" x2="0"></line><text dy=".71em" y="9" x="0" style="text-anchor: middle;">30,000</text></g><g class="tick" transform="translate(599.1069233499221,0)" style="opacity: 1;"><line y2="6" x2="0"></line><text dy=".71em" y="9" x="0" style="text-anchor: middle;">40,000</text></g><g class="tick" transform="translate(656.4583885624025,0)" style="opacity: 1;"><line y2="6" x2="0"></line><text dy=".71em" y="9" x="0" style="text-anchor: middle;">50,000</text></g><g class="tick" transform="translate(713.8098537748831,0)" style="opacity: 1;"><line y2="6" x2="0"></line><text dy=".71em" y="9" x="0" style="text-anchor: middle;">60,000</text></g><path class="domain" d="M369.70106250000003,6V0H739.4021250000001V6"></path></g><g class="axis" transform="translate(0,0)"><g class="tick" transform="translate(0,580)" style="opacity: 1;"><line x2="-6" y2="0"></line><text dy=".32em" x="-9" y="0" style="text-anchor: end;">0-4</text></g><g class="tick" transform="translate(0,552)" style="opacity: 1;"><line x2="-6" y2="0"></line><text dy=".32em" x="-9" y="0" style="text-anchor: end;">5-9</text></g><g class="tick" transform="translate(0,524)" style="opacity: 1;"><line x2="-6" y2="0"></line><text dy=".32em" x="-9" y="0" style="text-anchor: end;">10-14</text></g><g class="tick" transform="translate(0,496)" style="opacity: 1;"><line x2="-6" y2="0"></line><text dy=".32em" x="-9" y="0" style="text-anchor: end;">15-19</text></g><g class="tick" transform="translate(0,468)" style="opacity: 1;"><line x2="-6" y2="0"></line><text dy=".32em" x="-9" y="0" style="text-anchor: end;">20-24</text></g><g class="tick" transform="translate(0,440)" style="opacity: 1;"><line x2="-6" y2="0"></line><text dy=".32em" x="-9" y="0" style="text-anchor: end;">25-29</text></g><g class="tick" transform="translate(0,412)" style="opacity: 1;"><line x2="-6" y2="0"></line><text dy=".32em" x="-9" y="0" style="text-anchor: end;">30-34</text></g><g class="tick" transform="translate(0,384)" style="opacity: 1;"><line x2="-6" y2="0"></line><text dy=".32em" x="-9" y="0" style="text-anchor: end;">35-39</text></g><g class="tick" transform="translate(0,356)" style="opacity: 1;"><line x2="-6" y2="0"></line><text dy=".32em" x="-9" y="0" style="text-anchor: end;">40-44</text></g><g class="tick" transform="translate(0,328)" style="opacity: 1;"><line x2="-6" y2="0"></line><text dy=".32em" x="-9" y="0" style="text-anchor: end;">45-49</text></g><g class="tick" transform="translate(0,300)" style="opacity: 1;"><line x2="-6" y2="0"></line><text dy=".32em" x="-9" y="0" style="text-anchor: end;">50-54</text></g><g class="tick" transform="translate(0,272)" style="opacity: 1;"><line x2="-6" y2="0"></line><text dy=".32em" x="-9" y="0" style="text-anchor: end;">55-59</text></g><g class="tick" transform="translate(0,244)" style="opacity: 1;"><line x2="-6" y2="0"></line><text dy=".32em" x="-9" y="0" style="text-anchor: end;">60-64</text></g><g class="tick" transform="translate(0,216)" style="opacity: 1;"><line x2="-6" y2="0"></line><text dy=".32em" x="-9" y="0" style="text-anchor: end;">65-69</text></g><g class="tick" transform="translate(0,188)" style="opacity: 1;"><line x2="-6" y2="0"></line><text dy=".32em" x="-9" y="0" style="text-anchor: end;">70-74</text></g><g class="tick" transform="translate(0,160)" style="opacity: 1;"><line x2="-6" y2="0"></line><text dy=".32em" x="-9" y="0" style="text-anchor: end;">75-79</text></g><g class="tick" transform="translate(0,132)" style="opacity: 1;"><line x2="-6" y2="0"></line><text dy=".32em" x="-9" y="0" style="text-anchor: end;">80-84</text></g><g class="tick" transform="translate(0,104)" style="opacity: 1;"><line x2="-6" y2="0"></line><text dy=".32em" x="-9" y="0" style="text-anchor: end;">85-89</text></g><g class="tick" transform="translate(0,76)" style="opacity: 1;"><line x2="-6" y2="0"></line><text dy=".32em" x="-9" y="0" style="text-anchor: end;">90-94</text></g><g class="tick" transform="translate(0,48)" style="opacity: 1;"><line x2="-6" y2="0"></line><text dy=".32em" x="-9" y="0" style="text-anchor: end;">95-99</text></g><g class="tick" transform="translate(0,20)" style="opacity: 1;"><line x2="-6" y2="0"></line><text dy=".32em" x="-9" y="0" style="text-anchor: end;">>=100</text></g><path class="domain" d="M-6,0H0V599.1706875H-6"></path></g><g><rect x="16.99775" y="1" width="50.99325" height="17" fill="#ff6060"></rect><text x="72.991" y="14.6" text-anchor="start" style="font-size: 17px; font-weight: bold;">male</text></g><g transform="translate(722.4043750000001,0)"><rect x="-50.99325" y="1" width="50.99325" height="17" fill="#ababab"></rect><text x="-55.99325" y="14.6" text-anchor="end" style="font-size: 17px; font-weight: bold;">female</text></g></g></g></g></svg>