<svg id="svg-5544734748594536487" width="883" class="svg-populationPyramid" height="705.5132153320312" version="1.1" xmlns="http://www.w3.org/2000/svg"><rect class="svgBg" x="0" y="0" width="100%" height="100%" fill="#fff"></rect><g class="svgGroup" transform="translate(16.55625,16.55625)"><g class="svgTitle" style="display: block;"><text x="50%" y="0" dx="-16.55625" dy="20" text-anchor="middle" fill="#000" style="font-size: 20px; font-weight: bold;"></text></g><g class="mainGroup" transform="translate(0,26.49)"><g transform="translate(84.98875000000001,16.99775)"><g class="rectGroup"><rect fill="#ff6060" class="male" height="27" width="195.8775367257665" y="566" x="173.82352577423353"></rect><rect fill="#ff6060" class="male" height="27" width="201.60083959735834" y="538" x="168.1002229026417"></rect><rect fill="#ff6060" class="male" height="27" width="203.51987544123287" y="510" x="166.18118705876716"></rect><rect fill="#ff6060" class="male" height="27" width="206.20006078986287" y="482" x="163.50100171013716"></rect><rect fill="#ff6060" class="male" height="27" width="214.3160619520354" y="454" x="155.38500054796464"></rect><rect fill="#ff6060" class="male" height="27" width="230.50845799764286" y="426" x="139.19260450235717"></rect><rect fill="#ff6060" class="male" height="27" width="254.06526272401268" y="398" x="115.63579977598735"></rect><rect fill="#ff6060" class="male" height="27" width="269.6452810640436" y="370" x="100.0557814359564"></rect><rect fill="#ff6060" class="male" height="27" width="258.2389857379676" y="342" x="111.46207676203245"></rect><rect fill="#ff6060" class="male" height="27" width="244.07352120029944" y="314" x="125.6275412997006"></rect><rect fill="#ff6060" class="male" height="27" width="245.86431358670222" y="286" x="123.83674891329782"></rect><rect fill="#ff6060" class="male" height="27" width="301.79935048272114" y="258" x="67.90171201727888"></rect><rect fill="#ff6060" class="male" height="27" width="369.70106250000003" y="230" x="0"></rect><rect fill="#ff6060" class="male" height="27" width="273.42728648637404" y="202" x="96.27377601362599"></rect><rect fill="#ff6060" class="male" height="27" width="230.84552361886506" y="174" x="138.85553888113498"></rect><rect fill="#ff6060" class="male" height="27" width="233.55581238737744" y="146" x="136.1452501126226"></rect><rect fill="#ff6060" class="male" height="27" width="173.59979032090527" y="118" x="196.10127217909476"></rect><rect fill="#ff6060" class="male" height="27" width="83.01681848487573" y="90" x="286.6842440151243"></rect><rect fill="#ff6060" class="male" height="27" width="26.999018248148445" y="62" x="342.7020442518516"></rect><rect fill="#ff6060" class="male" height="27" width="7.26737600607953" y="34" x="362.4336864939205"></rect><rect fill="#ff6060" class="male" height="27" width="0.7948518540839586" y="6" x="368.9062106459161"></rect><rect fill="#ababab" class="female" height="27" width="179.77823740190252" y="566" x="369.70106250000003"></rect><rect fill="#ababab" class="female" height="27" width="183.38979921078044" y="538" x="369.70106250000003"></rect><rect fill="#ababab" class="female" height="27" width="183.5348697698098" y="510" x="369.70106250000003"></rect><rect fill="#ababab" class="female" height="27" width="184.33776204151945" y="482" x="369.70106250000003"></rect><rect fill="#ababab" class="female" height="27" width="189.94126509780153" y="454" x="369.70106250000003"></rect><rect fill="#ababab" class="female" height="27" width="202.53675383821223" y="426" x="369.70106250000003"></rect><rect fill="#ababab" class="female" height="27" width="221.4137285744157" y="398" x="369.70106250000003"></rect><rect fill="#ababab" class="female" height="27" width="233.0450954112398" y="370" x="369.70106250000003"></rect><rect fill="#ababab" class="female" height="27" width="221.62081747448633" y="342" x="369.70106250000003"></rect><rect fill="#ababab" class="female" height="27" width="211.9188138442953" y="314" x="369.70106250000003"></rect><rect fill="#ababab" class="female" height="27" width="218.1280022825016" y="286" x="369.70106250000003"></rect><rect fill="#ababab" class="female" height="27" width="274.405449029422" y="258" x="369.70106250000003"></rect><rect fill="#ababab" class="female" height="27" width="352.3077313822829" y="230" x="369.70106250000003"></rect><rect fill="#ababab" class="female" height="27" width="268.01365404062165" y="202" x="369.70106250000003"></rect><rect fill="#ababab" class="female" height="27" width="234.0140138813291" y="174" x="369.70106250000003"></rect><rect fill="#ababab" class="female" height="27" width="251.96773081250672" y="146" x="369.70106250000003"></rect><rect fill="#ababab" class="female" height="27" width="207.60323403105053" y="118" x="369.70106250000003"></rect><rect fill="#ababab" class="female" height="27" width="109.74287779484621" y="90" x="369.70106250000003"></rect><rect fill="#ababab" class="female" height="27" width="42.33711992104372" y="62" x="369.70106250000003"></rect><rect fill="#ababab" class="female" height="27" width="14.446548149344949" y="34" x="369.70106250000003"></rect><rect fill="#ababab" class="female" height="27" width="2.2775024569204447" y="6" x="369.70106250000003"></rect></g><g class="coverGroup"><rect x="173.82352577423353" y="566" width="375.655774127669" height="27" fill="#fff" opacity="0"></rect><rect x="168.1002229026417" y="538" width="384.9906388081388" height="27" fill="#fff" opacity="0"></rect><rect x="166.18118705876716" y="510" width="387.0547452110427" height="27" fill="#fff" opacity="0"></rect><rect x="163.50100171013716" y="482" width="390.5378228313823" height="27" fill="#fff" opacity="0"></rect><rect x="155.38500054796464" y="454" width="404.25732704983693" height="27" fill="#fff" opacity="0"></rect><rect x="139.19260450235717" y="426" width="433.04521183585507" height="27" fill="#fff" opacity="0"></rect><rect x="115.63579977598735" y="398" width="475.47899129842835" height="27" fill="#fff" opacity="0"></rect><rect x="100.0557814359564" y="370" width="502.6903764752834" height="27" fill="#fff" opacity="0"></rect><rect x="111.46207676203245" y="342" width="479.8598032124539" height="27" fill="#fff" opacity="0"></rect><rect x="125.6275412997006" y="314" width="455.9923350445947" height="27" fill="#fff" opacity="0"></rect><rect x="123.83674891329782" y="286" width="463.9923158692038" height="27" fill="#fff" opacity="0"></rect><rect x="67.90171201727888" y="258" width="576.2047995121432" height="27" fill="#fff" opacity="0"></rect><rect x="0" y="230" width="722.0087938822829" height="27" fill="#fff" opacity="0"></rect><rect x="96.27377601362599" y="202" width="541.4409405269957" height="27" fill="#fff" opacity="0"></rect><rect x="138.85553888113498" y="174" width="464.85953750019416" height="27" fill="#fff" opacity="0"></rect><rect x="136.1452501126226" y="146" width="485.52354319988416" height="27" fill="#fff" opacity="0"></rect><rect x="196.10127217909476" y="118" width="381.20302435195583" height="27" fill="#fff" opacity="0"></rect><rect x="286.6842440151243" y="90" width="192.75969627972194" height="27" fill="#fff" opacity="0"></rect><rect x="342.7020442518516" y="62" width="69.33613816919217" height="27" fill="#fff" opacity="0"></rect><rect x="362.4336864939205" y="34" width="21.71392415542448" height="27" fill="#fff" opacity="0"></rect><rect x="368.9062106459161" y="6" width="3.0723543110044034" height="27" fill="#fff" opacity="0"></rect></g><g class="tooltipGroup" display="none"><rect x="0" y="0" width="120" height="60" fill="rgba(255,255,255,.9)"></rect><text x="5" y="3" dy="15">1</text><text x="5" y="21" dy="15">2</text><text x="5" y="39" dy="15">3</text></g><g class="axis" transform="translate(0,599.1706875)"><g class="tick" transform="translate(369.70106250000003,0)" style="opacity: 1;"><line y2="6" x2="0"></line><text dy=".71em" y="9" x="0" style="text-anchor: middle;">0</text></g><g class="tick" transform="translate(309.5182958418667,0)" style="opacity: 1;"><line y2="6" x2="0"></line><text dy=".71em" y="9" x="0" style="text-anchor: middle;">10,000</text></g><g class="tick" transform="translate(249.33552918373337,0)" style="opacity: 1;"><line y2="6" x2="0"></line><text dy=".71em" y="9" x="0" style="text-anchor: middle;">20,000</text></g><g class="tick" transform="translate(189.15276252559997,0)" style="opacity: 1;"><line y2="6" x2="0"></line><text dy=".71em" y="9" x="0" style="text-anchor: middle;">30,000</text></g><g class="tick" transform="translate(128.96999586746668,0)" style="opacity: 1;"><line y2="6" x2="0"></line><text dy=".71em" y="9" x="0" style="text-anchor: middle;">40,000</text></g><g class="tick" transform="translate(68.7872292093333,0)" style="opacity: 1;"><line y2="6" x2="0"></line><text dy=".71em" y="9" x="0" style="text-anchor: middle;">50,000</text></g><g class="tick" transform="translate(8.604462551199967,0)" style="opacity: 1;"><line y2="6" x2="0"></line><text dy=".71em" y="9" x="0" style="text-anchor: middle;">60,000</text></g><path class="domain" d="M0,6V0H369.70106250000003V6"></path></g><g class="axis" transform="translate(0,599.1706875)"><g class="tick" transform="translate(369.70106250000003,0)" style="opacity: 1;"><line y2="6" x2="0"></line><text dy=".71em" y="9" x="0" style="text-anchor: middle;">0</text></g><g class="tick" transform="translate(429.8838291581334,0)" style="opacity: 1;"><line y2="6" x2="0"></line><text dy=".71em" y="9" x="0" style="text-anchor: middle;">10,000</text></g><g class="tick" transform="translate(490.0665958162667,0)" style="opacity: 1;"><line y2="6" x2="0"></line><text dy=".71em" y="9" x="0" style="text-anchor: middle;">20,000</text></g><g class="tick" transform="translate(550.2493624744001,0)" style="opacity: 1;"><line y2="6" x2="0"></line><text dy=".71em" y="9" x="0" style="text-anchor: middle;">30,000</text></g><g class="tick" transform="translate(610.4321291325334,0)" style="opacity: 1;"><line y2="6" x2="0"></line><text dy=".71em" y="9" x="0" style="text-anchor: middle;">40,000</text></g><g class="tick" transform="translate(670.6148957906668,0)" style="opacity: 1;"><line y2="6" x2="0"></line><text dy=".71em" y="9" x="0" style="text-anchor: middle;">50,000</text></g><g class="tick" transform="translate(730.7976624488001,0)" style="opacity: 1;"><line y2="6" x2="0"></line><text dy=".71em" y="9" x="0" style="text-anchor: middle;">60,000</text></g><path class="domain" d="M369.70106250000003,6V0H739.4021250000001V6"></path></g><g class="axis" transform="translate(0,0)"><g class="tick" transform="translate(0,580)" style="opacity: 1;"><line x2="-6" y2="0"></line><text dy=".32em" x="-9" y="0" style="text-anchor: end;">0-4</text></g><g class="tick" transform="translate(0,552)" style="opacity: 1;"><line x2="-6" y2="0"></line><text dy=".32em" x="-9" y="0" style="text-anchor: end;">5-9</text></g><g class="tick" transform="translate(0,524)" style="opacity: 1;"><line x2="-6" y2="0"></line><text dy=".32em" x="-9" y="0" style="text-anchor: end;">10-14</text></g><g class="tick" transform="translate(0,496)" style="opacity: 1;"><line x2="-6" y2="0"></line><text dy=".32em" x="-9" y="0" style="text-anchor: end;">15-19</text></g><g class="tick" transform="translate(0,468)" style="opacity: 1;"><line x2="-6" y2="0"></line><text dy=".32em" x="-9" y="0" style="text-anchor: end;">20-24</text></g><g class="tick" transform="translate(0,440)" style="opacity: 1;"><line x2="-6" y2="0"></line><text dy=".32em" x="-9" y="0" style="text-anchor: end;">25-29</text></g><g class="tick" transform="translate(0,412)" style="opacity: 1;"><line x2="-6" y2="0"></line><text dy=".32em" x="-9" y="0" style="text-anchor: end;">30-34</text></g><g class="tick" transform="translate(0,384)" style="opacity: 1;"><line x2="-6" y2="0"></line><text dy=".32em" x="-9" y="0" style="text-anchor: end;">35-39</text></g><g class="tick" transform="translate(0,356)" style="opacity: 1;"><line x2="-6" y2="0"></line><text dy=".32em" x="-9" y="0" style="text-anchor: end;">40-44</text></g><g class="tick" transform="translate(0,328)" style="opacity: 1;"><line x2="-6" y2="0"></line><text dy=".32em" x="-9" y="0" style="text-anchor: end;">45-49</text></g><g class="tick" transform="translate(0,300)" style="opacity: 1;"><line x2="-6" y2="0"></line><text dy=".32em" x="-9" y="0" style="text-anchor: end;">50-54</text></g><g class="tick" transform="translate(0,272)" style="opacity: 1;"><line x2="-6" y2="0"></line><text dy=".32em" x="-9" y="0" style="text-anchor: end;">55-59</text></g><g class="tick" transform="translate(0,244)" style="opacity: 1;"><line x2="-6" y2="0"></line><text dy=".32em" x="-9" y="0" style="text-anchor: end;">60-64</text></g><g class="tick" transform="translate(0,216)" style="opacity: 1;"><line x2="-6" y2="0"></line><text dy=".32em" x="-9" y="0" style="text-anchor: end;">65-69</text></g><g class="tick" transform="translate(0,188)" style="opacity: 1;"><line x2="-6" y2="0"></line><text dy=".32em" x="-9" y="0" style="text-anchor: end;">70-74</text></g><g class="tick" transform="translate(0,160)" style="opacity: 1;"><line x2="-6" y2="0"></line><text dy=".32em" x="-9" y="0" style="text-anchor: end;">75-79</text></g><g class="tick" transform="translate(0,132)" style="opacity: 1;"><line x2="-6" y2="0"></line><text dy=".32em" x="-9" y="0" style="text-anchor: end;">80-84</text></g><g class="tick" transform="translate(0,104)" style="opacity: 1;"><line x2="-6" y2="0"></line><text dy=".32em" x="-9" y="0" style="text-anchor: end;">85-89</text></g><g class="tick" transform="translate(0,76)" style="opacity: 1;"><line x2="-6" y2="0"></line><text dy=".32em" x="-9" y="0" style="text-anchor: end;">90-94</text></g><g class="tick" transform="translate(0,48)" style="opacity: 1;"><line x2="-6" y2="0"></line><text dy=".32em" x="-9" y="0" style="text-anchor: end;">95-99</text></g><g class="tick" transform="translate(0,20)" style="opacity: 1;"><line x2="-6" y2="0"></line><text dy=".32em" x="-9" y="0" style="text-anchor: end;">>=100</text></g><path class="domain" d="M-6,0H0V599.1706875H-6"></path></g><g><rect x="16.99775" y="1" width="50.99325" height="17" fill="#ff6060"></rect><text x="72.991" y="14.6" text-anchor="start" style="font-size: 17px; font-weight: bold;">male</text></g><g transform="translate(722.4043750000001,0)"><rect x="-50.99325" y="1" width="50.99325" height="17" fill="#ababab"></rect><text x="-55.99325" y="14.6" text-anchor="end" style="font-size: 17px; font-weight: bold;">female</text></g></g></g></g></svg>