<?xml version="1.0" encoding="utf-8"?>
<!-- Generator: Adobe Illustrator 21.1.0, SVG Export Plug-In . SVG Version: 6.00 Build 0)  -->
<svg version="1.1" id="svg-5544734748594536490" xmlns="http://www.w3.org/2000/svg" xmlns:xlink="http://www.w3.org/1999/xlink"
	 x="0px" y="0px" viewBox="0 0 751 590.2" style="enable-background:new 0 0 751 590.2;" xml:space="preserve">
<style type="text/css">
	.st0{fill:#29A2C6;}
	.st1{fill:#FFF618;}
	.st2{fill:#A9EBA1;}
	.st3{fill:#FF6D31;}
	.st4{fill:#A7DBDB;}
	.st5{fill:#F7CA71;}
	.st6{display:none;}
	.st7{display:inline;}
	.st8{enable-background:new    ;}
	.st9{fill:#FFFFFF;}
	.st10{font-family:'MyriadPro-Regular';}
	.st11{font-size:18px;}
	.st12{font-family:'ArialMT';}
	.st13{font-size:14px;}
	.st14{font-size:16px;}
</style>
<g transform="translate(14.081249999999999,14.081249999999999)">
	<g transform="translate(0,17.529999999999998)">
		<circle class="st0" cx="257.7" cy="187" r="8"/>
		<circle class="st0" cx="179.6" cy="173.8" r="8.1"/>
		<circle class="st0" cx="242.3" cy="195.7" r="8.2"/>
		<circle class="st0" cx="177.2" cy="191.7" r="8.5"/>
		<circle class="st0" cx="265.3" cy="169.7" r="9.4"/>
		<circle class="st0" cx="230.4" cy="210.4" r="9.2"/>
		<circle class="st0" cx="213.2" cy="201" r="8.9"/>
		<circle class="st0" cx="195.7" cy="193.7" r="8.6"/>
		<circle class="st0" cx="221.1" cy="155.8" r="35.5"/>
		<circle class="st1" cx="279.6" cy="352.2" r="7.9"/>
		<circle class="st1" cx="264.9" cy="342.7" r="8.1"/>
		<circle class="st1" cx="249.8" cy="333.7" r="8"/>
		<circle class="st1" cx="232.5" cy="331.6" r="7.9"/>
		<circle class="st1" cx="205.7" cy="355.5" r="8.5"/>
		<circle class="st1" cx="221.2" cy="345.4" r="8.5"/>
		<circle class="st1" cx="196.6" cy="392" r="8.6"/>
		<circle class="st1" cx="198.6" cy="373.1" r="8.9"/>
		<circle class="st1" cx="246.3" cy="388.3" r="39.7"/>
		<circle class="st2" cx="100.1" cy="226.7" r="8.8"/>
		<circle class="st2" cx="93.3" cy="302.8" r="8.5"/>
		<circle class="st2" cx="108" cy="291.9" r="8.3"/>
		<circle class="st2" cx="112" cy="240.8" r="8.1"/>
		<circle class="st2" cx="117.8" cy="221.6" r="8.1"/>
		<circle class="st2" cx="117.2" cy="257.7" r="8.1"/>
		<circle class="st2" cx="115" cy="275.4" r="8.2"/>
		<circle class="st2" cx="83.3" cy="219" r="8.2"/>
		<circle class="st2" cx="71.4" cy="262.7" r="35.6"/>
		<circle class="st3" cx="167.6" cy="357.7" r="9.8"/>
		<circle class="st3" cx="76.1" cy="352.6" r="9.8"/>
		<circle class="st3" cx="139.4" cy="404.6" r="9.5"/>
		<circle class="st3" cx="176.1" cy="338.9" r="9.4"/>
		<circle class="st3" cx="165.2" cy="377.6" r="8.8"/>
		<circle class="st3" cx="85.4" cy="335" r="8.6"/>
		<circle class="st3" cx="157.5" cy="334.4" r="8.3"/>
		<circle class="st3" cx="154.3" cy="392.5" r="8.2"/>
		<circle class="st3" cx="121.5" cy="362" r="35.1"/>
		<circle class="st4" cx="259" cy="301.2" r="9.8"/>
		<circle class="st4" cx="268.5" cy="222.5" r="9.8"/>
		<circle class="st4" cx="253.2" cy="236.8" r="9.7"/>
		<circle class="st4" cx="245" cy="274.2" r="9.6"/>
		<circle class="st4" cx="239.7" cy="294" r="9.3"/>
		<circle class="st4" cx="296.1" cy="315" r="9.2"/>
		<circle class="st4" cx="318.7" cy="222.4" r="9.2"/>
		<circle class="st4" cx="276.5" cy="311.7" r="9.1"/>
		<circle class="st4" cx="294.1" cy="265.5" r="38.8"/>
		<circle class="st5" cx="173.6" cy="226" r="7.9"/>
		<circle class="st5" cx="144" cy="240" r="7.9"/>
		<circle class="st5" cx="208.3" cy="235.6" r="8.4"/>
		<circle class="st5" cx="191.8" cy="226.9" r="8.8"/>
		<circle class="st5" cx="138.8" cy="304.5" r="9"/>
		<circle class="st5" cx="155.2" cy="225.4" r="9"/>
		<circle class="st5" cx="221" cy="249.3" r="8.9"/>
		<circle class="st5" cx="202.9" cy="317.5" r="8.9"/>
		<circle class="st5" cx="178.3" cy="274.4" r="39.2"/>
		<g class="st6">
			<rect x="-31" y="82.5" class="st7" width="120" height="44"/>
			<text transform="matrix(1 0 0 1 -25.9814 100.4877)" class="st12 st13" style="display:inline;fill:#FFFFFF;">1</text>
			<text transform="matrix(1 0 0 1 -25.9814 118.4877)" class="st12 st13" style="display:inline;fill:#FFFFFF;">2</text>
		</g>
		<text transform="matrix(1 0 0 1 53.8672 267.2417)" class="st10 st11">2015</text>
		<text transform="matrix(1 0 0 1 162.5057 283.6308)" class="st10 st11">2015</text>
		<text transform="matrix(1 0 0 1 229.9417 400.6523)" class="st10 st11">2015</text>
		<text transform="matrix(1 0 0 1 106.8138 373.1184)" class="st10 st11">2015</text>
		<text transform="matrix(1 0 0 1 276.5875 275.4365)" class="st10 st11">2015</text>
		<text transform="matrix(1 0 0 1 202.9732 165.7189)" class="st10 st11">2015</text>
	</g>
	<g transform="translate(531.725,445.06)">
		<g>
			<path class="st0" d="M-166.1-13.4h24c1.7,0,3,1.3,3,3v9c0,1.7-1.3,3-3,3h-24c-1.7,0-3-1.3-3-3v-9
				C-169.1-12.1-167.8-13.4-166.1-13.4z"/>
			<text transform="matrix(1 0 0 1 -129.0516 0.6134)" class="st12 st13">20-24</text>
			<path class="st1" d="M-166.1,11.6h24c1.7,0,3,1.3,3,3v9c0,1.7-1.3,3-3,3h-24c-1.7,0-3-1.3-3-3v-9
				C-169.1,12.9-167.8,11.6-166.1,11.6z"/>
			<text transform="matrix(1 0 0 1 -129.0516 25.6134)" class="st12 st13">25-29</text>
			<path class="st2" d="M-166.1,36.6h24c1.7,0,3,1.3,3,3v9c0,1.7-1.3,3-3,3h-24c-1.7,0-3-1.3-3-3v-9
				C-169.1,37.9-167.8,36.6-166.1,36.6z"/>
			<text transform="matrix(1 0 0 1 -129.0516 50.6134)" class="st12 st13">30-34</text>
			<path class="st3" d="M-72.6-13.4h24c1.7,0,3,1.3,3,3v9c0,1.7-1.3,3-3,3h-24c-1.7,0-3-1.3-3-3v-9C-75.6-12.1-74.3-13.4-72.6-13.4z
				"/>
			<text transform="matrix(1 0 0 1 -35.5516 0.6134)" class="st12 st13">35-39</text>
			<path class="st4" d="M-72.6,11.6h24c1.7,0,3,1.3,3,3v9c0,1.7-1.3,3-3,3h-24c-1.7,0-3-1.3-3-3v-9C-75.6,12.9-74.3,11.6-72.6,11.6z
				"/>
			<text transform="matrix(1 0 0 1 -35.5516 25.6134)" class="st12 st13">40-44</text>
			<path class="st5" d="M-72.6,36.6h24c1.7,0,3,1.3,3,3v9c0,1.7-1.3,3-3,3h-24c-1.7,0-3-1.3-3-3v-9C-75.6,37.9-74.2,36.6-72.6,36.6z
				"/>
			<text transform="matrix(1 0 0 1 -35.536 50.6134)" class="st12 st13">45-49</text>
		</g>
	</g>
</g>
<text transform="matrix(1 0 0 1 67.9483 106.4433)" class="st10 st11">Average Number of Childbearing Women</text>
<text transform="matrix(1 0 0 1 221.9299 175.2557)" class="st10 st14">Year</text>
</svg>
