<?xml version="1.0" encoding="utf-8"?>
<!-- Generator: Adobe Illustrator 21.1.0, SVG Export Plug-In . SVG Version: 6.00 Build 0)  -->
<svg version="1.1" id="svg-5544734748594536490" xmlns="http://www.w3.org/2000/svg" xmlns:xlink="http://www.w3.org/1999/xlink"
	 x="0px" y="0px" viewBox="0 0 883 694.3" style="enable-background:new 0 0 883 694.3;" xml:space="preserve">
<style type="text/css">
	.st0{fill:#FFFFFF;}
	.st1{fill:#29A2C6;}
	.st2{fill:#FFCB18;}
	.st3{fill:#73B66B;}
	.st4{fill:#FF6D31;}
	.st5{fill:#AD8B33;}
	.st6{fill:#051A29;}
	.st7{fill:#6A1FB4;}
	.st8{fill:#99A4AB;}
	.st9{fill:#1FB4AB;}
	.st10{display:none;}
	.st11{display:inline;}
	.st12{display:inline;enable-background:new    ;}
	.st13{font-family:'ArialMT';}
	.st14{font-size:14px;}
	.st15{font-family:'KozGoPr6N-Regular-83pv-RKSJ-H';}
</style>
<rect class="st0" width="883" height="694.3"/>
<g transform="translate(16.55625,16.55625)">
	<g transform="translate(0,21.49)">
		<circle class="st1" cx="366.9" cy="214.3" r="8.7"/>
		<circle class="st1" cx="332.7" cy="221.6" r="8.6"/>
		<circle class="st1" cx="351.4" cy="227.5" r="9.6"/>
		<circle class="st1" cx="324.2" cy="202.7" r="10.6"/>
		<circle class="st1" cx="346.7" cy="206.4" r="10.6"/>
		<circle class="st1" cx="338.2" cy="187.4" r="8.6"/>
		<circle class="st2" cx="360.3" cy="162.4" r="8.8"/>
		<circle class="st2" cx="387.1" cy="139.1" r="8.7"/>
		<circle class="st2" cx="368.4" cy="144.6" r="9.2"/>
		<circle class="st2" cx="383.5" cy="159.6" r="10.6"/>
		<circle class="st2" cx="372.5" cy="179.5" r="10.6"/>
		<circle class="st2" cx="402.1" cy="150.5" r="8.6"/>
		<circle class="st3" cx="480.7" cy="180.4" r="8.9"/>
		<circle class="st3" cx="509.2" cy="208.8" r="8.7"/>
		<circle class="st3" cx="481.9" cy="199.7" r="9"/>
		<circle class="st3" cx="497.2" cy="167.9" r="10.3"/>
		<circle class="st3" cx="500.5" cy="190" r="10.5"/>
		<circle class="st3" cx="516.4" cy="176.2" r="9.1"/>
		<circle class="st4" cx="411.1" cy="247.4" r="9.2"/>
		<circle class="st4" cx="376.6" cy="250.6" r="8.6"/>
		<circle class="st4" cx="419" cy="265.2" r="8.8"/>
		<circle class="st4" cx="392.5" cy="238" r="10.2"/>
		<circle class="st4" cx="394.6" cy="260.5" r="10.5"/>
		<circle class="st4" cx="405" cy="279.2" r="9.5"/>
		<circle class="st5" cx="426.8" cy="193.9" r="10.2"/>
		<circle class="st5" cx="427.3" cy="173" r="9.3"/>
		<circle class="st5" cx="408.6" cy="184.6" r="8.8"/>
		<circle class="st5" cx="418.3" cy="213.3" r="9.6"/>
		<circle class="st5" cx="445.8" cy="183.3" r="10.1"/>
		<circle class="st5" cx="400.3" cy="202.9" r="9.8"/>
		<circle class="st6" cx="444.7" cy="237.1" r="10"/>
		<circle class="st6" cx="460" cy="250.9" r="9.2"/>
		<circle class="st6" cx="488.5" cy="235" r="8.8"/>
		<circle class="st6" cx="452.9" cy="218" r="9.3"/>
		<circle class="st6" cx="468.4" cy="231.9" r="10"/>
		<circle class="st6" cx="480.3" cy="253.4" r="9.7"/>
		<circle class="st7" cx="478.7" cy="126.7" r="9.6"/>
		<circle class="st7" cx="434" cy="139.1" r="9.4"/>
		<circle class="st7" cx="470.5" cy="145" r="8.9"/>
		<circle class="st7" cx="451.5" cy="148.7" r="9"/>
		<circle class="st7" cx="457.7" cy="129.1" r="10"/>
		<circle class="st7" cx="439" cy="119.2" r="9.6"/>
		<circle class="st8" cx="369.2" cy="110" r="9.4"/>
		<circle class="st8" cx="399.5" cy="82.4" r="9.6"/>
		<circle class="st8" cx="416.3" cy="93.2" r="8.9"/>
		<circle class="st8" cx="368.6" cy="90.4" r="8.9"/>
		<circle class="st8" cx="386.8" cy="99.1" r="9.9"/>
		<circle class="st8" cx="405" cy="109.7" r="9.7"/>
		<circle class="st9" cx="313" cy="382.3" r="38.5"/>
		<circle class="st9" cx="394.4" cy="365.7" r="43"/>
		<circle class="st9" cx="460.1" cy="314.7" r="38.6"/>
		<circle class="st9" cx="475.2" cy="391.4" r="38"/>
		<circle class="st9" cx="417.6" cy="449.2" r="42.1"/>
		<circle class="st9" cx="334.5" cy="302.6" r="42.5"/>
		<g transform="translate(394.4437561035156,86.95375061035156)" class="st10">
			<rect x="0" y="0" class="st11" width="122.7" height="44"/>
			<text transform="matrix(1 0 0 1 5 18)" class="st12"><tspan x="0" y="0" class="st0 st13 st14">Age</tspan><tspan x="24.9" y="0" class="st0 st15 st14">：</tspan><tspan x="38.9" y="0" class="st0 st13 st14">25-29</tspan></text>
			<text transform="matrix(1 0 0 1 5 36)" class="st12"><tspan x="0" y="0" class="st0 st13 st14">Number</tspan><tspan x="49.8" y="0" class="st0 st15 st14">：</tspan><tspan x="63.8" y="0" class="st0 st13 st14">39510</tspan></text>
		</g>
	</g>
	<g transform="translate(672.4875000000001,544.2416271972656)">
		<g>
			<path class="st1" d="M3,0h24c1.7,0,3,1.3,3,3v9c0,1.7-1.3,3-3,3H3c-1.7,0-3-1.3-3-3V3C0,1.3,1.3,0,3,0z"/>
			<text transform="matrix(1 0 0 1 40 14)" class="st13 st14">2006</text>
			<path class="st2" d="M3,25h24c1.7,0,3,1.3,3,3v9c0,1.7-1.3,3-3,3H3c-1.7,0-3-1.3-3-3v-9C0,26.3,1.3,25,3,25z"/>
			<text transform="matrix(1 0 0 1 40 39)" class="st13 st14">2007</text>
			<path class="st3" d="M3,50h24c1.7,0,3,1.3,3,3v9c0,1.7-1.3,3-3,3H3c-1.7,0-3-1.3-3-3v-9C0,51.3,1.3,50,3,50z"/>
			<text transform="matrix(1 0 0 1 40 64)" class="st13 st14">2008</text>
			<path class="st4" d="M3,75h24c1.7,0,3,1.3,3,3v9c0,1.7-1.3,3-3,3H3c-1.7,0-3-1.3-3-3v-9C0,76.3,1.3,75,3,75z"/>
			<text transform="matrix(1 0 0 1 40 89)" class="st13 st14">2009</text>
			<path class="st5" d="M3,100h24c1.7,0,3,1.3,3,3v9c0,1.7-1.3,3-3,3H3c-1.7,0-3-1.3-3-3v-9C0,101.3,1.3,100,3,100z"/>
			<text transform="matrix(1 0 0 1 40 114)" class="st13 st14">2011</text>
			<path class="st6" d="M88.4,0h24c1.7,0,3,1.3,3,3v9c0,1.7-1.3,3-3,3h-24c-1.7,0-3-1.3-3-3V3C85.4,1.3,86.8,0,88.4,0z"/>
			<text transform="matrix(1 0 0 1 125.4219 14)" class="st13 st14">2012</text>
			<path class="st7" d="M88.4,25h24c1.7,0,3,1.3,3,3v9c0,1.7-1.3,3-3,3h-24c-1.7,0-3-1.3-3-3v-9C85.4,26.3,86.8,25,88.4,25z"/>
			<text transform="matrix(1 0 0 1 125.4219 39)" class="st13 st14">2013</text>
			<path class="st8" d="M88.4,50h24c1.7,0,3,1.3,3,3v9c0,1.7-1.3,3-3,3h-24c-1.7,0-3-1.3-3-3v-9C85.4,51.3,86.8,50,88.4,50z"/>
			<text transform="matrix(1 0 0 1 125.4219 64)" class="st13 st14">2014</text>
			<path class="st9" d="M88.4,75h24c1.7,0,3,1.3,3,3v9c0,1.7-1.3,3-3,3h-24c-1.7,0-3-1.3-3-3v-9C85.4,76.3,86.8,75,88.4,75z"/>
			<text transform="matrix(1 0 0 1 125.4219 89)" class="st13 st14">2015</text>
		</g>
	</g>
</g>
</svg>
